<svg width="25" height="25" viewBox="0 0 28 28" fill="none" xmlns="http://www.w3.org/2000/svg">
<rect x="0.5" y="0.5" width="27" height="27" rx="7.5" fill="white"/>
<rect x="0.5" y="0.5" width="27" height="27" rx="7.5" stroke="#3c7167"/>
<path d="M11.8054 11.1381C12.0657 10.8777 12.0657 10.4556 11.8054 10.1953C11.545 9.93491 11.1229 9.93491 10.8626 10.1953L7.52925 13.5286C7.2689 13.7889 7.2689 14.2111 7.52925 14.4714L10.8626 17.8047C11.1229 18.0651 11.545 18.0651 11.8054 17.8047C12.0657 17.5444 12.0657 17.1223 11.8054 16.8619L8.94346 14L11.8054 11.1381Z" fill="#3c7167"/>
<path d="M17.1387 10.1953C16.8784 9.93491 16.4563 9.93491 16.1959 10.1953C15.9356 10.4556 15.9356 10.8777 16.1959 11.1381L19.0578 14L16.1959 16.8619C15.9356 17.1223 15.9356 17.5444 16.1959 17.8047C16.4563 18.0651 16.8784 18.0651 17.1387 17.8047L20.4721 14.4714C20.7324 14.2111 20.7324 13.7889 20.4721 13.5286L17.1387 10.1953Z" fill="#3c7167"/>
</svg>
