<?xml version="1.0" encoding="utf-8"?>
<!-- Generator: Adobe Illustrator 25.2.3, SVG Export Plug-In . SVG Version: 6.00 Build 0)  -->
<svg version="1.1" id="Layer_1" xmlns="http://www.w3.org/2000/svg" xmlns:xlink="http://www.w3.org/1999/xlink" x="0px" y="0px"
	 viewBox="0 0 1569.15 770.09" style="enable-background:new 0 0 1569.15 770.09;" xml:space="preserve">
<style type="text/css">
	.st0{fill:#F1DCDA;stroke:#000000;stroke-width:3;stroke-miterlimit:10;}
	.st1{fill:#E4DEEB;stroke:#000000;stroke-width:3;stroke-miterlimit:10;}
	.st2{fill:#FCF9CE;stroke:#000000;stroke-width:3;stroke-miterlimit:10;}
	.st3{fill:none;stroke:#000000;stroke-width:3;stroke-miterlimit:10;}
	.st4{font-family:'Montserrat-Regular';}
	.st5{font-size:16px;}
</style>
<rect x="74.15" y="1.92" className="st0" width="370.43" height="329.61"/>
<rect x="74.15" y="436.64" className="st1" width="370.43" height="329.61"/>
<rect x="444.59" y="436.64" className="st2" width="370.43" height="329.61"/>
<rect x="444.59" y="1.92" className="st1" width="370.43" height="329.61"/>
<rect x="815.02" y="1.92" className="st1" width="386.76" height="329.61"/>
<rect x="1201.78" y="1.92" className="st1" width="365.43" height="256.14"/>
<polygon className="st2" points="1236.48,535.63 1236.48,766.25 815.01,766.25 815.01,436.65 1079.31,436.65 1079.31,535.63 "/>
<rect y="258.06" className="st3" width="74.15" height="255.12"/>
<rect x="1420.16" y="258.06" className="st3" width="145.93" height="73.47"/>
<rect x="1236.48" y="564.71" className="st3" width="114.29" height="101.54"/>
<rect x="1236.48" y="666.25" className="st3" width="114.29" height="100"/>
<rect x="1454.86" y="666.25" className="st2" width="112.29" height="100"/>
<rect x="1454.86" y="513.94" className="st2" width="112.29" height="101.54"/>
<g>
	<rect x="1420.16" y="332.62" className="st3" width="146.99" height="98.86"/>
	<line className="st3" x1="1496.11" y1="332.62" x2="1496.11" y2="431.48"/>
	<line className="st3" x1="1421.16" y1="357.79" x2="1568.15" y2="357.79"/>
	<line className="st3" x1="1420.16" y1="383.13" x2="1569.15" y2="383.13"/>
	<line className="st3" x1="1420.16" y1="408.07" x2="1569.15" y2="408.07"/>
</g>
<rect x="74.15" y="1.92" className="st3" width="1493.06" height="764.33"/>
<text transform="matrix(1 0 0 1 1008.3982 176.902)" className="st4 st5">1</text>
<text transform="matrix(1 0 0 1 256.0746 176.902)" className="st4 st5">1</text>
<text transform="matrix(1 0 0 1 611.9406 176.902)" className="st4 st5">1</text>
<text transform="matrix(1 0 0 1 1012.3339 601.4481)" className="st4 st5">1</text>
<text transform="matrix(1 0 0 1 1370.6708 142.2435)" className="st4 st5">1</text>
<text transform="matrix(1 0 0 1 1511.0049 575.4877)" className="st4 st5">1</text>
<text transform="matrix(1 0 0 1 1511.005 716.2485)" className="st4 st5">1</text>
<text transform="matrix(1 0 0 1 260.0102 601.4481)" className="st4 st5">1</text>
<text transform="matrix(1 0 0 1 615.8762 601.4481)" className="st4 st5">1</text>
</svg>
