<?xml version="1.0" encoding="utf-8"?>
<!-- Generator: Adobe Illustrator 25.2.3, SVG Export Plug-In . SVG Version: 6.00 Build 0)  -->
<svg version="1.1" id="Layer_1" xmlns="http://www.w3.org/2000/svg" xmlns:xlink="http://www.w3.org/1999/xlink" x="0px" y="0px"
	 viewBox="0 0 1569.15 917.22" style="enable-background:new 0 0 1569.15 917.22;" xml:space="preserve">
<style type="text/css">
	.st0{fill:#DDD9C4;stroke:#000000;stroke-miterlimit:10;}
	.st1{fill:#EDEBE1;stroke:#000000;stroke-miterlimit:10;}
	.st2{fill:#E4DEEB;stroke:#000000;stroke-miterlimit:10;}
	.st3{fill:#FCD5B4;stroke:#000000;stroke-miterlimit:10;}
	.st4{fill:#F1DCDA;stroke:#000000;stroke-miterlimit:10;}
	.st5{fill:#ECF0DE;stroke:#000000;stroke-miterlimit:10;}
	.st6{fill:#FCF9CE;stroke:#000000;stroke-miterlimit:10;}
	.st7{fill:none;stroke:#000000;stroke-miterlimit:10;}
	.st8{fill:#A8D057;stroke:#000000;stroke-miterlimit:10;}
	.st9{fill:#DBEFF3;stroke:#000000;stroke-miterlimit:10;}
	.st10{fill:#C5D9F0;stroke:#000000;stroke-miterlimit:10;}
	.st11{fill:#FDE8D8;stroke:#000000;stroke-miterlimit:10;}
	.st12{font-family:'Montserrat-Regular';}
	.st13{font-size:16px;}
	.st14{font-size:13.4206px;}
</style>
<polygon className="st0" points="1089.45,499.64 1130.01,824.18 1566.78,761.97 1523.51,446.91 "/>
<polygon className="st1" points="184.81,551.03 190.22,642.98 1100.62,589.01 1089.45,499.64 "/>
<polygon className="st2" points="190.22,642.98 201.04,775.5 1118.34,730.81 1100.62,589.01 "/>
<polygon className="st3" points="201.04,775.5 214.56,917.48 1128.66,846.49 1118.34,730.81 "/>
<rect x="612.9" className="st4" width="530.07" height="160.91"/>
<rect x="2.43" y="27.72" className="st5" width="86.71" height="35.07"/>
<rect x="118.3" y="97.09" className="st6" width="67.7" height="48.73"/>
<rect x="274.99" y="97.87" className="st4" width="76.57" height="47.96"/>
<rect x="351.56" y="139.19" className="st7" width="38.28" height="7.02"/>
<rect x="351.56" y="132.16" className="st7" width="38.28" height="7.02"/>
<rect x="351.56" y="125.14" className="st7" width="38.28" height="7.02"/>
<rect x="351.56" y="118.7" className="st7" width="38.28" height="7.02"/>
<rect x="185.74" y="97.87" className="st6" width="29.92" height="20.45"/>
<rect x="332.54" y="0.17" className="st8" width="56.03" height="27.55"/>
<rect x="574.93" y="118.29" className="st7" width="38.76" height="42.62"/>
<rect x="603.05" y="152.55" className="st7" width="9.84" height="8.37"/>
<rect x="525.57" y="8.79" className="st7" width="49.36" height="75.05"/>
<rect x="185.74" y="118.32" className="st6" width="29.92" height="27.5"/>
<rect x="215.79" y="97.48" className="st6" width="29.92" height="20.45"/>
<rect x="215.79" y="117.93" className="st6" width="29.92" height="27.89"/>
<rect x="2.43" y="62.79" className="st5" width="86.71" height="35.07"/>
<rect x="89.15" y="27.72" className="st5" width="87.98" height="69.39"/>
<polygon className="st5" points="284.37,27.73 284.37,83.84 245.08,83.84 245.08,97.09 177.12,97.09 177.12,27.73 "/>
<polygon className="st4" points="284.37,27.73 389.08,27.73 389.84,97.66 274.99,97.87 274.99,145.82 245.71,145.82 245.08,83.84 
	284.37,83.84 "/>
<rect x="128.36" y="167.25" className="st5" width="48.76" height="70.06"/>
<rect x="21.41" y="152.38" className="st7" width="106.95" height="70.06"/>
<rect x="177.12" y="167.25" className="st4" width="212.97" height="70.06"/>
<line className="st7" x1="370.56" y1="117.15" x2="370.82" y2="145.42"/>
<rect x="351.56" y="97.87" className="st7" width="38.28" height="20.45"/>
<rect x="525.57" y="0.17" className="st2" width="88.11" height="160.74"/>
<rect x="1138.13" className="st9" width="274.5" height="269.77"/>
<rect x="1138.13" y="105.47" className="st2" width="53.41" height="44.62"/>
<rect x="1315.94" className="st2" width="96.68" height="139.28"/>
<rect x="1138.13" y="398.23" className="st4" width="274.5" height="62.15"/>
<rect x="1138.13" y="333.32" className="st10" width="177.82" height="64.91"/>
<polygon className="st11" points="1412.62,269.76 1412.62,398.23 1315.93,398.23 1315.93,333.31 1138.13,333.31 1138.13,269.76 "/>
<polyline className="st7" points="184.81,551.03 160.47,551.03 0.24,448.94 2.43,167.25 "/>
<line className="st7" x1="-46.41" y1="0.17" x2="1457.25" y2="0.17"/>
<rect x="2.43" y="97.87" className="st4" width="86.71" height="69.39"/>
<line className="st0" x1="1412.62" y1="179.84" x2="1505.65" y2="449.08"/>
<rect x="1440.05" y="340.42" className="st8" width="19.08" height="50.71"/>
<text transform="matrix(1 0 0 1 39.4959 52.2391)" className="st12 st13">1</text>
<text transform="matrix(1 0 0 1 39.64 83.8375)" className="st12 st13">1</text>
<text transform="matrix(1 0 0 1 39.6401 139.1865)" className="st12 st13">1</text>
<text transform="matrix(1 0 0 1 152.1503 128.6535)" className="st12 st13">1</text>
<text transform="matrix(1 0 0 1 138.4592 72.6379)" className="st12 st13">1</text>
<text transform="matrix(1 0 0 1 221.6816 67.7484)" className="st12 st13">1</text>
<text transform="matrix(1 0 0 1 327.7557 67.7486)" className="st12 st13">1</text>
<text transform="matrix(1 0 0 1 309.9779 125.7265)" className="st12 st13">1</text>
<text transform="matrix(1 0 0 1 274.9906 213.1582)" className="st12 st13">1</text>
<text transform="matrix(1 0 0 1 574.929 571.311)" className="st12 st13">1</text>
<text transform="matrix(1 0 0 1 587.0516 686.8942)" className="st12 st13">1</text>
<text transform="matrix(1 0 0 1 590.9878 824.1443)" className="st12 st13">1</text>
<text transform="matrix(1 0 0 1 1309.21 656.1443)" className="st12 st13">1</text>
<text transform="matrix(1 0 0 1 1250.5432 442.811)" className="st12 st13">1</text>
<text transform="matrix(1 0 0 1 1244.321 379.6999)" className="st12 st13">1</text>
<text transform="matrix(1 0 0 1 1352.7655 345.0332)" className="st12 st13">1</text>
<text transform="matrix(1 0 0 1 1275.3737 156.7301)" className="st12 st13">1</text>
<text transform="matrix(1 0 0 1 1356.7014 83.8373)" className="st12 st13">1</text>
<text transform="matrix(1 0 0 1 1161.1298 134.8833)" className="st12 st13">1</text>
<text transform="matrix(1 0 0 1 902.867 105.4727)" className="st12 st13">1</text>
<text transform="matrix(1 0 0 1 565.7183 105.4727)" className="st12 st13">1</text>
<text transform="matrix(1 0 0 1 1449.5913 368.5001)" className="st12 st13">1</text>
<text transform="matrix(1 0 0 1 152.1503 213.1582)" className="st12 st13">1</text>
<text transform="matrix(1 0 0 1 196.0021 139.6042)" className="st12 st13">1</text>
<text transform="matrix(1 0 0 1 230.7476 139.6044)" className="st12 st13">1</text>
<text transform="matrix(1 0 0 1 360.5602 23.143)" className="st12 st13">1</text>
<text transform="matrix(1 0 0 1 196.1461 114.5268)" className="st12 st14">1</text>
<text transform="matrix(1 0 0 1 228.1702 114.5268)" className="st12 st14">1</text>
</svg>
