<?xml version="1.0" encoding="utf-8"?>
<!-- Generator: Adobe Illustrator 25.2.3, SVG Export Plug-In . SVG Version: 6.00 Build 0)  -->
<svg version="1.1" id="Layer_1" xmlns="http://www.w3.org/2000/svg" xmlns:xlink="http://www.w3.org/1999/xlink" x="0px" y="0px"
	 viewBox="0 0 1569.15 770.09" style="enable-background:new 0 0 1569.15 770.09;" xml:space="preserve">
<style type="text/css">
	.st0{fill:#E4DEEB;stroke:#000000;stroke-width:3;stroke-miterlimit:10;}
	.st1{fill:#ECF0DE;stroke:#000000;stroke-width:3;stroke-miterlimit:10;}
	.st2{fill:#FCF9CE;stroke:#000000;stroke-width:3;stroke-miterlimit:10;}
	.st3{fill:none;stroke:#000000;stroke-width:3;stroke-miterlimit:10;}
	.st4{font-family:'Montserrat-Regular';}
	.st5{font-size:16px;}
</style>
<rect x="827.07" y="562.7" className="st0" width="412.25" height="208.72"/>
<rect x="558.32" y="190.82" transform="matrix(-1.836970e-16 1 -1 -1.836970e-16 943.4876 -299.8592)" className="st1" width="126.71" height="262"/>
<rect x="783.76" y="227.37" transform="matrix(-1.836970e-16 1 -1 -1.836970e-16 1168.931 -525.3026)" className="st2" width="126.71" height="188.89"/>
<rect x="783.76" y="355.49" transform="matrix(-1.836970e-16 1 -1 -1.836970e-16 1297.0513 -397.1824)" className="st2" width="126.71" height="188.89"/>
<rect x="558.32" y="318.94" transform="matrix(-1.836970e-16 1 -1 -1.836970e-16 1071.6078 -171.739)" className="st2" width="126.71" height="262"/>
<g>
	<rect x="81.11" className="st0" width="370.93" height="207.63"/>
	<rect x="452.04" className="st0" width="226.02" height="207.63"/>
	<rect x="678.05" className="st0" width="186.01" height="207.63"/>
	<rect x="864.06" className="st0" width="375.25" height="207.63"/>
	<rect x="1239.31" className="st0" width="149.24" height="127.61"/>
	<rect x="1388.55" className="st0" width="180.6" height="258.46"/>
	<rect x="152.84" y="258.46" className="st0" width="335.96" height="253.41"/>
	<rect x="80.75" y="562.7" className="st0" width="371.29" height="208.72"/>
	<rect x="452.04" y="562.7" className="st0" width="375.03" height="208.72"/>
	<rect x="1388.55" y="511.87" className="st0" width="180.6" height="259.54"/>
	
		<rect x="1025.67" y="301.06" transform="matrix(-1.836970e-16 1 -1 -1.836970e-16 1540.3719 -640.5031)" className="st0" width="129.53" height="297.75"/>
	
		<rect x="1027.08" y="172.94" transform="matrix(-1.836970e-16 1 -1 -1.836970e-16 1412.2518 -768.6233)" className="st0" width="126.71" height="297.75"/>
	<rect x="1239.31" y="643.09" className="st0" width="149.24" height="128.33"/>
</g>
<rect x="1428.92" y="332.79" className="st3" width="138.35" height="104.76"/>
<line className="st3" x1="1500.4" y1="332.79" x2="1500.4" y2="437.55"/>
<line className="st3" x1="1429.86" y1="359.46" x2="1568.21" y2="359.46"/>
<line className="st3" x1="1428.92" y1="386.32" x2="1569.15" y2="386.32"/>
<line className="st3" x1="1428.92" y1="412.74" x2="1569.15" y2="412.74"/>
<rect x="1429.86" y="258.46" className="st3" width="137.41" height="74.33"/>
<rect y="258.46" className="st3" width="80.75" height="256.24"/>
<rect x="81.11" className="st3" width="1488.04" height="771.42"/>
<rect x="1239.31" y="258.46" className="st3" width="327.96" height="253.41"/>
<text transform="matrix(1 0 0 1 266.3912 109.7097)" className="st4 st5">1</text>
<text transform="matrix(1 0 0 1 565.0447 109.7097)" className="st4 st5">1</text>
<text transform="matrix(1 0 0 1 771.0565 109.7098)" className="st4 st5">1</text>
<text transform="matrix(1 0 0 1 1051.6865 109.7101)" className="st4 st5">1</text>
<text transform="matrix(1 0 0 1 1313.9324 77.7097)" className="st4 st5">1</text>
<text transform="matrix(1 0 0 1 1482.7854 653.7096)" className="st4 st5">1</text>
<text transform="matrix(1 0 0 1 1313.9326 718.2432)" className="st4 st5">1</text>
<text transform="matrix(1 0 0 1 1033.1898 686.1077)" className="st4 st5">1</text>
<text transform="matrix(1 0 0 1 618.0787 681.6632)" className="st4 st5">1</text>
<text transform="matrix(1 0 0 1 618.2222 454.5986)" className="st4 st5">1</text>
<text transform="matrix(1 0 0 1 618.3655 321.8141)" className="st4 st5">1</text>
<text transform="matrix(1 0 0 1 838.81 329.8141)" className="st4 st5">1</text>
<text transform="matrix(1 0 0 1 838.9532 457.8141)" className="st4 st5">1</text>
<text transform="matrix(1 0 0 1 1090.4379 454.5988)" className="st4 st5">1</text>
<text transform="matrix(1 0 0 1 1086.8823 329.8141)" className="st4 st5">1</text>
<text transform="matrix(1 0 0 1 1486.7207 121.6633)" className="st4 st5">1</text>
<text transform="matrix(1 0 0 1 328.3847 392.3763)" className="st4 st5">1</text>
<text transform="matrix(1 0 0 1 259.0514 674.9077)" className="st4 st5">1</text>
</svg>
