<?xml version="1.0" encoding="utf-8"?>
<!-- Generator: Adobe Illustrator 25.2.3, SVG Export Plug-In . SVG Version: 6.00 Build 0)  -->
<svg version="1.1" id="Layer_1" xmlns="http://www.w3.org/2000/svg" xmlns:xlink="http://www.w3.org/1999/xlink" x="0px" y="0px"
	 viewBox="0 0 1569.15 768.76" style="enable-background:new 0 0 1569.15 768.76;" xml:space="preserve">
<style type="text/css">
	.st0{fill:#F1DCDA;stroke:#000000;stroke-width:3;stroke-miterlimit:10;}
	.st1{fill:none;stroke:#000000;stroke-width:3;stroke-miterlimit:10;}
	.st2{fill:#FCF9CE;stroke:#000000;stroke-width:3;stroke-miterlimit:10;}
	.st3{font-family:'Montserrat-Regular';}
	.st4{font-size:16px;}
</style>
<rect x="79.97" className="st0" width="328.4" height="256.96"/>
<rect x="79.97" y="256.96" className="st0" width="328.4" height="256.96"/>
<rect x="148.21" y="513.93" className="st0" width="413.7" height="204.72"/>
<rect x="408.37" className="st0" width="153.54" height="203.65"/>
<rect x="561.91" className="st0" width="601.36" height="256.96"/>
<rect x="1163.27" className="st0" width="403.92" height="128.48"/>
<rect x="1163.27" y="128.48" className="st1" width="403.92" height="128.48"/>
<rect x="1163.27" y="255.9" className="st0" width="260.16" height="180.19"/>
<rect x="1163.27" y="513.93" className="st0" width="405.17" height="254.83"/>
<rect x="784.35" y="513.93" className="st0" width="378.91" height="254.83"/>
<rect x="561.91" y="513.93" className="st0" width="222.45" height="254.83"/>
<rect y="258.03" className="st1" width="79.97" height="254.83"/>
<rect x="408.37" y="308.68" className="st0" width="153.54" height="127.42"/>
<rect x="408.37" y="203.65" className="st2" width="153.54" height="105.02"/>
<rect x="561.91" y="256.16" className="st2" width="222.45" height="179.93"/>
<rect x="1010.26" y="256.03" className="st1" width="153.01" height="179.93"/>
<rect x="784.35" y="256.16" className="st2" width="111.22" height="78.64"/>
<rect x="784.35" y="334.8" className="st2" width="112.95" height="101.29"/>
<rect x="897.31" y="256.16" className="st2" width="112.95" height="78.64"/>
<rect x="897.31" y="334.8" className="st2" width="112.95" height="101.29"/>
<rect x="1423.43" y="436.09" className="st1" width="145.01" height="77.84"/>
<g>
	<rect x="1422.72" y="332.67" className="st1" width="144.47" height="103.29"/>
	<line className="st1" x1="1497.36" y1="332.67" x2="1497.36" y2="435.96"/>
	<line className="st1" x1="1423.7" y1="358.97" x2="1568.17" y2="358.97"/>
	<line className="st1" x1="1422.72" y1="385.45" x2="1569.15" y2="385.45"/>
	<line className="st1" x1="1422.72" y1="411.5" x2="1569.15" y2="411.5"/>
</g>
<rect x="1422.72" y="258.84" className="st1" width="144.47" height="73.28"/>
<text transform="matrix(1 0 0 1 230.6072 149.2693)" className="st3 st4">1</text>
<text transform="matrix(1 0 0 1 485.1388 120.3338)" className="st3 st4">1</text>
<text transform="matrix(1 0 0 1 485.1387 256.1639)" className="st3 st4">1</text>
<text transform="matrix(1 0 0 1 485.139 385.4453)" className="st3 st4">1</text>
<text transform="matrix(1 0 0 1 673.1307 358.9672)" className="st3 st4">1</text>
<text transform="matrix(1 0 0 1 850.1628 120.3338)" className="st3 st4">1</text>
<text transform="matrix(1 0 0 1 839.9646 308.6761)" className="st3 st4">1</text>
<text transform="matrix(1 0 0 1 946.1627 308.6761)" className="st3 st4">1</text>
<text transform="matrix(1 0 0 1 953.7844 394.6025)" className="st3 st4">1</text>
<text transform="matrix(1 0 0 1 843.9001 394.6025)" className="st3 st4">1</text>
<text transform="matrix(1 0 0 1 230.7512 385.4455)" className="st3 st4">1</text>
<text transform="matrix(1 0 0 1 345.2739 631.0468)" className="st3 st4">1</text>
<text transform="matrix(1 0 0 1 669.835 651.5186)" className="st3 st4">1</text>
<text transform="matrix(1 0 0 1 953.9287 651.5187)" className="st3 st4">1</text>
<text transform="matrix(1 0 0 1 1353.274 651.5187)" className="st3 st4">1</text>
<text transform="matrix(1 0 0 1 1293.3479 345.9943)" className="st3 st4">1</text>
<text transform="matrix(1 0 0 1 1376.241 75.8896)" className="st3 st4">1</text>
</svg>
