<?xml version="1.0" encoding="utf-8"?>
<!-- Generator: Adobe Illustrator 25.2.3, SVG Export Plug-In . SVG Version: 6.00 Build 0)  -->
<svg version="1.1" id="Layer_1" xmlns="http://www.w3.org/2000/svg" xmlns:xlink="http://www.w3.org/1999/xlink" x="0px" y="0px"
	 viewBox="0 0 739.9 545.5" style="enable-background:new 0 0 739.9 545.5;" xml:space="preserve">
<style type="text/css">
	.st0{fill:#FCF9CE;stroke:#000000;stroke-width:0.25;stroke-miterlimit:10;}
	.st1{fill:#A8D48C;stroke:#000000;stroke-width:0.25;stroke-miterlimit:10;}
	.st2{fill:none;stroke:#000000;stroke-width:0.25;stroke-miterlimit:10;}
	.st3{fill:#DCE5F0;stroke:#000000;stroke-width:0.25;stroke-miterlimit:10;}
	.st4{fill:#ECF0DE;stroke:#000000;stroke-width:0.25;stroke-miterlimit:10;}
	.st5{fill:#F1DCDA;stroke:#000000;stroke-width:0.25;stroke-miterlimit:10;}
	.st6{fill:#FFFFFF;stroke:#000000;stroke-width:0.25;stroke-miterlimit:10;}
	.st7{fill:none;stroke:#000000;stroke-width:0.25;stroke-miterlimit:10;stroke-dasharray:6.1758,6.1758;}
	.st8{fill:none;stroke:#000000;stroke-width:0.25;stroke-miterlimit:10;stroke-dasharray:6.051,6.051;}
	.st9{fill:none;stroke:#000000;stroke-width:0.25;stroke-miterlimit:10;stroke-dasharray:8.535,8.535;}
	.st10{fill:none;stroke:#000000;stroke-miterlimit:10;}
	.st11{font-family:'ArialMT';}
	.st12{font-size:7.2606px;}
</style>
<polygon className="st0" points="183.7,436.2 183.7,443.9 178.6,443.9 178.6,481.2 148.9,481.2 148.9,433.6 178.6,433.6 178.6,436.2 "/>
<polygon className="st1" points="514.3,194.3 514.3,201 500.9,201 500.9,209.6 472.4,209.6 472.4,194.3 "/>
<rect x="669.2" y="105.2" className="st2" width="25.3" height="14.2"/>
<rect x="707.4" y="145.6" className="st2" width="25.3" height="7.1"/>
<rect x="710.1" y="171.8" className="st2" width="22.7" height="13.7"/>
<rect x="580.9" y="194.2" className="st2" width="5.3" height="16"/>
<rect x="624.6" y="194.2" className="st3" width="14.8" height="16"/>
<rect x="586.2" y="194.2" className="st2" width="38.4" height="16"/>
<rect x="582.3" y="73.8" className="st4" width="10.8" height="37.5"/>
<rect x="582.3" y="111.3" className="st3" width="21.1" height="9.9"/>
<rect x="558.4" y="50.9" className="st0" width="37.4" height="13.3"/>
<rect x="549.5" y="106.7" className="st2" width="8.9" height="15.2"/>
<rect x="558.4" y="64.2" className="st5" width="13.4" height="16.1"/>
<rect x="451.4" y="149.2" className="st2" width="10.7" height="16.1"/>
<rect x="468.7" y="150.5" className="st2" width="19.8" height="14.8"/>
<rect x="502.7" y="155.3" className="st2" width="29.5" height="21"/>
<rect x="418.7" y="198.9" className="st0" width="16.7" height="11.5"/>
<rect x="435.4" y="198.9" className="st1" width="12.7" height="11.5"/>
<rect x="510.8" y="227.1" className="st3" width="18.4" height="16"/>
<rect x="420.8" y="259.1" className="st1" width="35.1" height="18.1"/>
<rect x="456" y="259.1" className="st3" width="31.1" height="18.1"/>
<rect x="373.8" y="244.1" className="st2" width="15.6" height="33.1"/>
<rect x="286.4" y="328" className="st2" width="33.1" height="15.6"/>
<rect x="242.1" y="328" className="st2" width="31.4" height="15.6"/>
<rect x="261.9" y="303.3" className="st1" width="35.1" height="15.6"/>
<rect x="234.5" y="375.7" className="st2" width="29" height="15.6"/>
<polygon className="st0" points="275.7,350.8 275.7,371.7 263.5,371.7 263.5,375.7 234.5,375.7 234.5,350.8 "/>
<rect x="248.9" y="309" className="st3" width="13.1" height="9.8"/>
<rect x="260.4" y="328" className="st5" width="13.1" height="15.6"/>
<rect x="195.3" y="369.8" className="st2" width="11.7" height="21.5"/>
<rect x="207.1" y="375.7" className="st2" width="24.1" height="15.6"/>
<rect x="208" y="407.1" className="st2" width="89" height="20.3"/>
<rect x="207.1" y="361.9" className="st2" width="18.4" height="13.8"/>
<rect x="298.6" y="448.4" className="st1" width="16.3" height="27.2"/>
<rect x="288.2" y="451.6" className="st0" width="10.5" height="19.9"/>
<rect x="278.2" y="451.6" className="st5" width="10" height="19.9"/>
<rect x="242" y="451.6" className="st3" width="36.2" height="19.9"/>
<rect x="270.1" y="471.5" className="st5" width="28.5" height="6.2"/>
<rect x="216.5" y="451.6" className="st5" width="22" height="29.6"/>
<rect x="120" y="430.4" className="st5" width="18.2" height="44.1"/>
<rect x="183.8" y="428.6" className="st2" width="5.4" height="15.3"/>
<rect x="127.7" y="474.6" className="st2" width="10.5" height="7.6"/>
<rect x="178.6" y="443.9" className="st2" width="10.5" height="7.6"/>
<rect x="148.9" y="433.6" className="st3" width="5.3" height="7.6"/>
<rect x="120" y="423.7" className="st2" width="7.5" height="6.7"/>
<rect x="129.5" y="417.3" className="st3" width="8.7" height="6.7"/>
<rect x="129.5" y="411.2" className="st3" width="8.7" height="6.7"/>
<rect x="120" y="417.3" className="st2" width="7.5" height="6.7"/>
<rect x="178.6" y="422.4" className="st2" width="10.5" height="6.2"/>
<rect x="182.9" y="418.2" className="st5" width="6.2" height="4.2"/>
<polygon className="st3" points="178.6,403.3 178.6,428.6 148.9,428.6 148.9,408.4 "/>
<rect x="70.7" y="500.4" className="st1" width="64.8" height="15.7"/>
<rect x="162.9" y="528.6" className="st5" width="79.1" height="16.9"/>
<rect x="222.8" y="517.5" className="st2" width="9.4" height="7.2"/>
<rect x="272.5" y="500.4" className="st2" width="82.8" height="21.3"/>
<rect x="355.4" y="500.4" className="st2" width="98.1" height="21.3"/>
<rect x="492.9" y="500.4" className="st2" width="123" height="21.3"/>
<rect x="615.8" y="500.4" className="st2" width="118.8" height="21.3"/>
<rect x="346.5" y="530.1" className="st5" width="131.3" height="15.4"/>
<rect x="492.9" y="530.1" className="st2" width="88" height="15.4"/>
<rect x="580.9" y="530.1" className="st2" width="80.6" height="15.4"/>
<rect x="661.5" y="530.1" className="st2" width="78.5" height="15.4"/>
<rect x="270.5" y="530.1" className="st3" width="76" height="15.4"/>
<polygon className="st3" points="272.5,500.5 272.5,521.7 238.5,521.7 238.5,514.8 219.4,514.8 219.4,516.1 136.3,516.1 135.5,516.2 
	135.5,500.5 "/>
<line className="st2" x1="238.5" y1="521.8" x2="238.5" y2="521.6"/>
<polygon className="st3" points="101.9,432.6 101.9,474.6 83.7,474.6 83.7,446.7 "/>
<polygon className="st0" points="120,418.7 120,474.6 101.9,474.6 101.9,432.3 "/>
<rect x="195.3" y="361.9" className="st6" width="11.7" height="7.9"/>
<rect x="208" y="407.1" className="st3" width="13.8" height="8.1"/>
<rect x="220.7" y="407.1" className="st5" width="13.8" height="8.1"/>
<rect x="297" y="407.1" className="st2" width="7.1" height="19"/>
<rect x="314.9" y="407.1" className="st5" width="16" height="68.5"/>
<polygon className="st2" points="420.9,243.1 420.9,277.2 389.4,277.2 389.4,233.9 399.4,233.9 399.4,227.1 405.1,227.1 405.1,243.1 "/>
<rect x="389.4" y="227.1" className="st2" width="10.1" height="6.7"/>
<rect x="379.3" y="231.7" className="st2" width="10.1" height="12.3"/>
<rect x="359" y="255.5" className="st2" width="14.8" height="10.6"/>
<rect x="354" y="245" className="st2" width="5" height="21.1"/>
<rect x="413" y="227.1" className="st0" width="7.9" height="16"/>
<rect x="405.1" y="227.1" className="st3" width="3.3" height="16"/>
<rect x="408.2" y="227.1" className="st5" width="4.8" height="16"/>
<rect x="487.1" y="259.1" className="st5" width="35.7" height="18.1"/>
<rect x="483.7" y="227.1" className="st0" width="19.9" height="16"/>
<rect x="420.9" y="227.1" className="st5" width="62.8" height="16"/>
<rect x="420.9" y="243.1" className="st2" width="62.8" height="16"/>
<rect x="503.5" y="227.1" className="st2" width="7.3" height="16"/>
<rect x="522.8" y="259.1" className="st1" width="6.4" height="18.1"/>
<rect x="483.7" y="243.1" className="st3" width="45.5" height="16"/>
<rect x="496.4" y="205.5" className="st6" width="4.4" height="4.1"/>
<rect x="467.1" y="194.3" className="st2" width="5.3" height="15.4"/>
<rect x="524.4" y="194.3" className="st2" width="5.3" height="15.4"/>
<rect x="639.4" y="194.2" className="st2" width="4.4" height="16"/>
<polygon className="st5" points="524.4,194.3 524.4,209.6 500.9,209.6 500.9,201 514.3,201 514.3,194.3 "/>
<polygon className="st0" points="83.7,446.7 83.7,474.6 65.2,474.6 70.6,455.9 75.4,452.5 75.4,452.5 "/>
<rect x="65.2" y="474.6" className="st1" width="16.6" height="7.6"/>
<path className="st5" d="M75.4,449v3.5l-4.7,3.3l-5.5,18.7v7.6H40.7c0,0,1.4-6.5,1.5-7.5c0-0.1,0-0.2,0.1-0.3
	C48.1,464,75.4,449,75.4,449z"/>
<polygon className="st2" points="62.2,499.2 62.2,516.6 16.9,516.6 16.9,524.2 0,524.2 0,508.3 9.8,499.2 "/>
<g>
	<g>
		<polyline className="st2" points="174.5,371.7 179.4,368.2 179.2,374.2 		"/>
		<line className="st7" x1="179.1" y1="380.3" x2="178.9" y2="389.6"/>
		<polyline className="st2" points="178.8,392.7 178.6,398.7 172.7,399.7 		"/>
		<line className="st8" x1="166.8" y1="400.7" x2="157.8" y2="402.3"/>
		<polyline className="st2" points="154.8,402.8 148.9,403.9 148.9,397.9 		"/>
		<polyline className="st2" points="148.9,396.2 148.9,390.2 153.8,386.7 		"/>
		<line className="st9" x1="160.7" y1="381.7" x2="171.1" y2="374.2"/>
	</g>
</g>
<path className="st1" d="M534.9,136.2h-2.7v19.1h-29.5v-19.1c0,0-3.6-15.4,14.8-15.1c0.5,0.3,17.4-3.2,17.4,12.2
	C535.2,133.9,534.9,136.2,534.9,136.2z"/>
<rect x="0" className="st10" width="740" height="545.5"/>
<line className="st10" x1="0" y1="488.3" x2="739.9" y2="488.3"/>
<line className="st10" x1="0" y1="493.7" x2="739.9" y2="493.7"/>
<polygon className="st2" points="330.9,475.6 330.9,481.2 242,481.2 242,471.4 298.6,471.4 298.6,471.5 270.1,471.5 270.1,477.7 
	298.6,477.7 298.6,475.6 "/>
<polyline className="st10" points="146.5,433.2 146.5,481.2 216.5,481.2 238.5,481.2 330.9,481.2 "/>
<path className="st10" d="M-11.2,466.4"/>
<rect x="474.8" y="121.9" transform="matrix(0.8351 -0.5501 0.5501 0.8351 11.4323 289.1671)" className="st3" width="26.4" height="7.3"/>
<path className="st10" d="M359,0c0,0-8.3,268.8-359,458.7"/>
<polyline className="st10" points="330.9,481.2 330.9,407.1 330.9,294.5 548.3,294.5 548.3,132.7 696.7,129.2 696.3,204.3 732.7,204.3 
	732.7,109.6 703.8,109.6 703.8,102.1 656.7,102.1 656.7,96.7 595.8,96.7 595.8,38.1 570,38.1 178.6,361.9 179.4,368.2 97.8,397.5 
	"/>
<text transform="matrix(1 0 0 1 278.5875 314.7196)" className="st11 st12">1</text>
<text transform="matrix(1 0 0 1 252.8097 317.3863)" className="st11 st12">1</text>
<text transform="matrix(1 0 0 1 248.8553 338.7196)" className="st11 st12">1</text>
<text transform="matrix(1 0 0 1 266.0405 338.7194)" className="st11 st12">1</text>
<text transform="matrix(1 0 0 1 299.2257 338.7194)" className="st11 st12">1</text>
<text transform="matrix(1 0 0 1 402.2667 260.7917)" className="st11 st12">1</text>
<text transform="matrix(1 0 0 1 379.3038 263.4289)" className="st11 st12">1</text>
<text transform="matrix(1 0 0 1 448.4108 237.9085)" className="st11 st12">1</text>
<text transform="matrix(1 0 0 1 449.1653 253.464)" className="st11 st12">1</text>
<text transform="matrix(1 0 0 1 502.4684 254.3529)" className="st11 st12">1</text>
<text transform="matrix(1 0 0 1 491.3573 237.9084)" className="st11 st12">1</text>
<text transform="matrix(1 0 0 1 504.9291 237.9084)" className="st11 st12">1</text>
<text transform="matrix(1 0 0 1 518.7646 237.9084)" className="st11 st12">1</text>
<text transform="matrix(1 0 0 1 524.4071 271.464)" className="st11 st12">1</text>
<text transform="matrix(1 0 0 1 415.2273 238.7973)" className="st11 st12">1</text>
<text transform="matrix(1 0 0 1 381.5957 241.0196)" className="st11 st12">1</text>
<text transform="matrix(1 0 0 1 364.9392 263.4289)" className="st11 st12">1</text>
<text transform="matrix(1 0 0 1 353.9706 259.1129)" className="st11 st12">1</text>
<text transform="matrix(1 0 0 1 393.0817 233.1855)" className="st11 st12">1</text>
<text transform="matrix(1 0 0 1 424.6373 207.5739)" className="st11 st12">1</text>
<text transform="matrix(1 0 0 1 439.1662 207.5742)" className="st11 st12">1</text>
<text transform="matrix(1 0 0 1 408.4294 238.7973)" className="st11 st12">1</text>
<text transform="matrix(1 0 0 1 485.0075 204.6109)" className="st11 st12">1</text>
<text transform="matrix(1 0 0 1 514.3368 207.5738)" className="st11 st12">1</text>
<text transform="matrix(1 0 0 1 515.0914 169.5329)" className="st11 st12">1</text>
<text transform="matrix(1 0 0 1 515.8458 143.0885)" className="st11 st12">1</text>
<text transform="matrix(1 0 0 1 475.8458 160.783)" className="st11 st12">1</text>
<text transform="matrix(1 0 0 1 454.2903 160.7829)" className="st11 st12">1</text>
<text transform="matrix(1 0 0 1 485.7625 129.5346)" className="st11 st12">1</text>
<text transform="matrix(1 0 0 1 551.079 116.2359)" className="st11 st12">1</text>
<text transform="matrix(1 0 0 1 591.162 118.2011)" className="st11 st12">1</text>
<text transform="matrix(1 0 0 1 678.9398 114.8677)" className="st11 st12">1</text>
<text transform="matrix(1 0 0 1 630.3259 204.6111)" className="st11 st12">1</text>
<text transform="matrix(1 0 0 1 715.734 180.6455)" className="st11 st12">1</text>
<text transform="matrix(1 0 0 1 718.7069 151.0884)" className="st11 st12">1</text>
<text transform="matrix(1 0 0 1 584.7708 95.185)" className="st11 st12">1</text>
<text transform="matrix(1 0 0 1 563.4313 75.8504)" className="st11 st12">1</text>
<text transform="matrix(1 0 0 1 572.9869 60.7393)" className="st11 st12">1</text>
<text transform="matrix(1 0 0 1 438.4108 270.3493)" className="st11 st12">1</text>
<text transform="matrix(1 0 0 1 471.5216 270.3495)" className="st11 st12">1</text>
<text transform="matrix(1 0 0 1 502.4682 268.1479)" className="st11 st12">1</text>
<text transform="matrix(1 0 0 1 250.1886 366.8141)" className="st11 st12">1</text>
<text transform="matrix(1 0 0 1 219.1515 387.1847)" className="st11 st12">1</text>
<text transform="matrix(1 0 0 1 214.2626 371.703)" className="st11 st12">1</text>
<text transform="matrix(1 0 0 1 199.2816 368.9699)" className="st11 st12">1</text>
<text transform="matrix(1 0 0 1 198.4663 386.8883)" className="st11 st12">1</text>
<text transform="matrix(1 0 0 1 184.894 438.3699)" className="st11 st12">1</text>
<text transform="matrix(1 0 0 1 182.9292 427.4071)" className="st11 st12">1</text>
<text transform="matrix(1 0 0 1 181.9356 449.7388)" className="st11 st12">1</text>
<text transform="matrix(1 0 0 1 160.4107 461.4781)" className="st11 st12">1</text>
<text transform="matrix(1 0 0 1 160.2626 418.7403)" className="st11 st12">1</text>
<text transform="matrix(1 0 0 1 131.3552 417.1477)" className="st11 st12">1</text>
<text transform="matrix(1 0 0 1 132.1101 423.7039)" className="st11 st12">1</text>
<text transform="matrix(1 0 0 1 122.6286 422.3701)" className="st11 st12">1</text>
<text transform="matrix(1 0 0 1 121.8879 430.4444)" className="st11 st12">1</text>
<text transform="matrix(1 0 0 1 125.8879 452.5185)" className="st11 st12">1</text>
<text transform="matrix(1 0 0 1 108.4064 453.5928)" className="st11 st12">1</text>
<text transform="matrix(1 0 0 1 73.447 463.9253)" className="st11 st12">1</text>
<text transform="matrix(1 0 0 1 50.1877 475.7773)" className="st11 st12">1</text>
<text transform="matrix(1 0 0 1 72.1136 481.1828)" className="st11 st12">1</text>
<text transform="matrix(1 0 0 1 95.0766 510.2198)" className="st11 st12">1</text>
<text transform="matrix(1 0 0 1 197.0031 539.8494)" className="st11 st12">1</text>
<text transform="matrix(1 0 0 1 226.2029 523.4072)" className="st11 st12">1</text>
<text transform="matrix(1 0 0 1 186.448 511.1109)" className="st11 st12">1</text>
<text transform="matrix(1 0 0 1 313.9619 537.7773)" className="st11 st12">1</text>
<text transform="matrix(1 0 0 1 416.0111 539.8495)" className="st11 st12">1</text>
<text transform="matrix(1 0 0 1 616.6228 539.8492)" className="st11 st12">1</text>
<text transform="matrix(1 0 0 1 526.9932 539.8492)" className="st11 st12">1</text>
<text transform="matrix(1 0 0 1 715.7339 539.8492)" className="st11 st12">1</text>
<text transform="matrix(1 0 0 1 35.0766 509.479)" className="st11 st12">1</text>
<text transform="matrix(1 0 0 1 89.5951 457.3699)" className="st11 st12">1</text>
<text transform="matrix(1 0 0 1 225.4478 470.0738)" className="st11 st12">1</text>
<text transform="matrix(1 0 0 1 255.092 479.0749)" className="st11 st12">1</text>
<text transform="matrix(1 0 0 1 259.3883 465.3542)" className="st11 st12">1</text>
<text transform="matrix(1 0 0 1 280.8698 463.9256)" className="st11 st12">1</text>
<text transform="matrix(1 0 0 1 291.6846 463.9256)" className="st11 st12">1</text>
<text transform="matrix(1 0 0 1 306.7851 463.9256)" className="st11 st12">1</text>
<text transform="matrix(1 0 0 1 281.6245 477.7027)" className="st11 st12">1</text>
<text transform="matrix(1 0 0 1 212.3178 413.9253)" className="st11 st12">1</text>
<text transform="matrix(1 0 0 1 225.4477 413.9248)" className="st11 st12">1</text>
<text transform="matrix(1 0 0 1 245.4477 420.2592)" className="st11 st12">1</text>
<text transform="matrix(1 0 0 1 298.6329 419.0739)" className="st11 st12">1</text>
<text transform="matrix(1 0 0 1 320.8551 422.3701)" className="st11 st12">1</text>
<rect x="251.6" y="375.7" className="st5" width="11.9" height="7.8"/>
<text transform="matrix(1 0 0 1 256.4824 381.964)" className="st11 st12">1</text>
</svg>
