<?xml version="1.0" encoding="utf-8"?>
<!-- Generator: Adobe Illustrator 25.2.3, SVG Export Plug-In . SVG Version: 6.00 Build 0)  -->
<svg version="1.1" id="Layer_1" xmlns="http://www.w3.org/2000/svg" xmlns:xlink="http://www.w3.org/1999/xlink" x="0px" y="0px"
	 viewBox="0 0 1617.93 1014.99" style="enable-background:new 0 0 1617.93 1014.99;" xml:space="preserve">
<style type="text/css">
	.st0{fill:none;stroke:#DE2D27;stroke-miterlimit:10;stroke-dasharray:3,3,3,3,3,3;}
	.st1{fill:#DBEFF2;stroke:#000000;stroke-width:0.5;stroke-miterlimit:10;}
	.st2{fill:#D7E3BB;stroke:#000000;stroke-width:0.5;stroke-miterlimit:10;}
	.st3{fill:#FBE6D7;stroke:#000000;stroke-width:0.5;stroke-miterlimit:10;}
	.st4{fill:#EBEEDD;stroke:#000000;stroke-width:0.5;stroke-miterlimit:10;}
	.st5{fill:#FAF8CF;stroke:#000000;stroke-width:0.5;stroke-miterlimit:10;}
	.st6{fill:#E3DDEA;stroke:#000000;stroke-width:0.5;stroke-miterlimit:10;}
	.st7{fill:#FFFFFF;stroke:#000000;stroke-width:0.5;stroke-miterlimit:10;}
	.st8{fill:#DBE4EE;stroke:#000000;stroke-width:0.5;stroke-miterlimit:10;}
	.st9{fill:#D9D8D7;stroke:#000000;stroke-width:0.5;stroke-miterlimit:10;}
	.st10{fill:none;stroke:#000000;stroke-width:0.5;stroke-miterlimit:10;}
	.st11{fill:#010101;stroke:#000000;stroke-width:0.5;stroke-miterlimit:10;}
	.st12{font-family:'Roboto-Light';}
	.st13{font-size:16.8928px;}
	.st14{font-size:16.8927px;}
	.st15{fill:none;stroke:#000000;stroke-width:0.5;stroke-miterlimit:10;stroke-dasharray:3,3,3,3,3,3;}
	.st16{fill:#DCD8C3;stroke:#000000;stroke-width:0.5;stroke-miterlimit:10;}
	.st17{fill:#F1DBD9;stroke:#000000;stroke-width:0.5;stroke-miterlimit:10;}
	.st18{fill:none;stroke:#000000;stroke-width:2;stroke-miterlimit:10;}
	.st19{font-family:'Montserrat-Regular';}
	.st20{font-size:19px;}
	.st21{font-size:17.1228px;}
	.st22{font-size:12.6612px;}
	.st23{font-size:10.118px;}
	.st24{font-size:9.1144px;}
	.st25{font-size:16px;}
</style>
<polygon className="st0" points="0,777.53 160.05,769.36 158.66,829.44 106.77,832.9 1.18,839.92 "/>
<path className="st1" d="M403.21,195.42c35.73-21.66,71.45-43.32,107.18-64.98c-10.14-27.18-20.28-54.37-30.42-81.55
	c-41.04,24.08-82.07,48.15-123.1,72.23C372.31,145.89,387.76,170.65,403.21,195.42z"/>
<path className="st2" d="M509.51,131.21c48.63-12.09,97.26-24.18,145.88-36.28c-1.55-13.46-3.11-26.92-4.66-40.39
	c1.66-16.35,3.32-32.71,4.99-49.06c-58.87,14.6-117.73,29.19-176.6,43.79C489.25,76.59,499.38,103.9,509.51,131.21z"/>
<polygon className="st3" points="696.61,5.34 696.61,66.92 652.2,65.21 651.03,54.48 656.01,5.41 "/>
<polygon className="st4" points="741.33,5.49 741.33,68.87 696.61,67.17 696.61,5.58 "/>
<polygon className="st5" points="792.76,5.34 787.34,70.58 741.33,68.82 741.33,5.43 "/>
<path className="st6" d="M841.64,12.24l-7.41,62.73c-15.67-1.46-31.31-2.93-46.89-4.39l5.42-65.24L841.64,12.24z"/>
<path className="st7" d="M956.62,29.95l0.11-0.19c-0.02,0.08-0.04,0.13-0.08,0.21C956.64,29.95,956.64,29.95,956.62,29.95z"/>
<path className="st3" d="M1237.61,167.97c-15.35,20.06-30.69,40.13-46.02,60.19c-12.73-8.63-25.43-17.27-38.16-25.88l42.48-61.47
	C1210.9,149.88,1224.81,159.02,1237.61,167.97z"/>
<path className="st8" d="M1283.6,203.04l-46.72,54.41c-15.07-9.84-30.16-19.69-45.25-29.54l45.44-60.48
	C1252.57,179.3,1268.09,191.16,1283.6,203.04z"/>
<path className="st6" d="M1340.67,246.42c-18.86,13.85-37.75,27.72-56.61,41.57c-15.69-10.25-31.38-20.48-47.07-30.74l46.72-54.41
	C1302.7,217.34,1321.67,231.89,1340.67,246.42z"/>
<path className="st7" d="M1340.66,246.67c-18.99,13.72-37.97,27.44-56.96,41.16c14.76,21.57,29.51,43.15,44.27,64.72
	c20.02-14.5,40.04-29,60.06-43.49C1372.25,288.27,1356.46,267.47,1340.66,246.67"/>
<path className="st6" d="M1340.66,246.67c-18.99,13.72-37.97,27.44-56.96,41.16c14.76,21.57,29.51,43.15,44.27,64.72
	c20.02-14.5,40.04-29,60.06-43.49C1372.25,288.27,1356.46,267.47,1340.66,246.67z"/>
<path className="st6" d="M1388.3,308.55c7.77,13.63,15.53,27.27,23.3,40.9c-20.19,13.46-40.39,26.92-60.58,40.39
	c-7.59-12.51-15.19-25.03-22.78-37.54C1348.26,337.72,1368.28,323.13,1388.3,308.55"/>
<path className="st3" d="M1412.12,349.06c5.52,11,11.05,22.01,16.57,33.01c-18.99,12.9-37.97,25.8-56.96,38.7
	c-6.86-10.31-13.72-20.63-20.58-30.94C1371.47,376.25,1391.79,362.66,1412.12,349.06"/>
<path className="st3" d="M1456.25,431.77l-63.31,28.36c-7.08-13.03-14.15-26.07-21.21-39.1c18.98-12.95,37.97-25.9,56.95-38.83
	c3.21,7.68,6.4,15.35,9.59,23.03C1444.26,414.09,1450.26,422.93,1456.25,431.77z"/>
<path className="st1" d="M1485.64,475.13c-21.92,11.56-43.85,23.12-65.77,34.71c-8.99-16.57-17.96-33.13-26.93-49.7l63.31-28.36
	C1466.05,446.22,1475.85,460.67,1485.64,475.13z"/>
<path className="st6" d="M1564.35,636.24c-27.44,8.91-54.88,17.82-82.33,26.73l20.97,114.43c33.53-9.97,67.05-19.94,100.58-29.9
	C1590.49,710.41,1577.42,673.33,1564.35,636.24"/>
<polygon className="st2" points="1606.9,794.49 1511.41,818.8 1502.99,777.39 1603.57,747.49 1605.51,756.43 "/>
<polygon className="st3" points="1510.74,862.01 1512.32,823.23 1511.41,818.8 1606.9,794.49 1609.17,856.99 "/>
<polygon className="st2" points="1610.56,894.87 1509.2,900.11 1510.74,862.01 1609.17,856.99 "/>
<path className="st5" d="M1617.48,995.48l-108.28-1.67v-93.49c34.01-1.8,68-3.59,102.01-5.37
	C1613.3,928.45,1615.4,961.97,1617.48,995.48z"/>
<path className="st8" d="M1617.93,1002.63l-108.73,8.56v-17.38l108.28,1.67C1617.63,997.86,1617.78,1000.24,1617.93,1002.63z"/>
<polygon className="st1" points="1440.7,778.18 1334.05,801.11 1310.74,730.26 1425.77,710.61 "/>
<polygon className="st2" points="1453.03,833.96 1353.74,861.25 1334.05,801.11 1440.7,778.18 "/>
<polygon className="st2" points="1468.49,904.01 1462.28,917.99 1381.7,950.4 1353.74,861.25 1453.03,833.96 "/>
<path className="st2" d="M1155.49,259.11l-55.75,70.5c-12.95-10.57-25.9-21.13-38.85-31.7l41.93-78.7L1155.49,259.11z"/>
<path className="st6" d="M1226.38,312.81l-64.62,67.42c-20.68-16.89-41.35-33.75-62.02-50.62l55.75-70.5L1226.38,312.81z"/>
<path className="st5" d="M1360.15,473.94c-39.51,10.87-79.04,21.75-118.57,32.62c-1.03-2.25-2.06-4.49-3.1-6.74
	c-8.8-2.06-17.61-4.13-26.41-6.21c-8.8-13.63-17.61-27.27-26.41-40.9c10-9.5,20.03-18.98,30.03-28.47
	c-17.98-14.68-35.96-29.36-53.94-44.01l64.62-67.42l64.4,48.78C1313.9,399.03,1337.03,436.5,1360.15,473.94z"/>
<polygon className="st2" points="768.63,106.73 754.38,177.97 671.49,163.02 686.51,96.24 "/>
<polygon className="st3" points="514.28,169.26 514.28,195.42 479.33,198.01 478.56,172.37 "/>
<polygon className="st3" points="516.38,259.67 473.45,266.78 470.55,245.03 513.4,237.93 "/>
<polygon className="st3" points="592.4,247.08 549.28,254.23 546.32,232.47 589.38,225.34 "/>
<polygon className="st2" points="595.95,272.66 477.21,294.92 473.45,266.78 516.38,259.67 513.4,237.93 470.55,245.03 466.79,216.97 
	585.79,199.53 589.38,225.34 546.32,232.47 549.28,254.23 592.4,247.08 "/>
<polygon className="st8" points="582.73,174.55 514.28,177.68 514.28,169.26 515.84,154.5 580.29,152.18 "/>
<polygon className="st5" points="585.79,199.53 514.28,210.01 514.28,177.68 582.73,174.55 584.18,187.91 "/>
<polygon className="st8" points="514.28,195.42 514.28,210.01 466.79,216.97 464.58,200.34 479.33,198.01 "/>
<polygon className="st6" points="599.83,300.53 480.94,322.81 477.21,294.92 595.95,272.66 "/>
<polygon className="st4" points="603.62,327.97 575.64,332.61 549.49,336.94 505.7,344.21 484.28,347.76 480.94,322.81 599.83,300.53 
	603.6,327.71 "/>
<polygon className="st9" points="508.78,365.49 487.1,368.87 484.28,347.76 505.7,344.21 "/>
<polygon className="st3" points="605.93,351.79 580.29,355.3 553.15,359.02 529.03,362.32 528.49,362.4 508.78,365.49 505.7,344.21 
	525.35,340.94 549.49,336.94 575.64,332.61 603.62,327.97 "/>
<polygon className="st5" points="321.57,743.01 299.89,746.38 297.07,725.27 318.49,721.72 "/>
<polygon className="st2" points="393.08,732.81 365.94,736.53 362.28,714.46 388.42,710.12 "/>
<polygon className="st3" points="341.27,739.91 321.57,743.01 318.49,721.72 338.14,718.46 "/>
<polygon className="st6" points="365.94,736.53 341.82,739.83 341.27,739.91 338.14,718.46 362.28,714.46 "/>
<polygon className="st3" points="418.72,729.3 393.08,732.81 388.42,710.12 416.41,705.49 "/>
<polygon className="st0" points="289.78,720.9 419.82,699.35 423.17,733.92 340.67,745.22 321.06,748.3 294,752.52 "/>
<polygon className="st7" points="671.17,246.16 799.32,233.73 801.65,298.97 676.61,312.17 673.5,302.08 652.53,300.52 649.42,274.12 
	671.17,270.23 "/>
<polygon className="st3" points="671.17,246.16 799.32,233.73 801.65,298.97 676.61,312.17 673.5,302.08 652.53,300.52 649.42,274.12 
	671.17,270.23 "/>
<path className="st10" d="M668.84,310.36l12.43,89.06l12.43,43.49l120.13-29c-3.11-14.15-6.21-28.3-9.32-42.46
	c-2.76-14.84-5.52-29.69-8.28-44.53c-10.36,1.03-20.71,2.07-31.07,3.11c-2.76-8.63-5.52-17.26-8.28-25.89
	C727.52,306.22,698.18,308.29,668.84,310.36z"/>
<polygon className="st6" points="894.1,322.53 813.6,322.53 802.96,234.5 890.46,246.92 "/>
<polygon className="st1" points="897.97,402.79 833.06,411.95 815.62,339.37 813.6,322.53 894.1,322.53 "/>
<polygon className="st7" points="925.14,295.09 943.01,476.05 1033.1,467.51 1021.45,286.54 "/>
<polygon className="st3" points="1028.1,389.84 934.49,389.84 925.15,295.09 1021.45,286.55 "/>
<polygon className="st5" points="1033.11,467.51 943.01,476.05 934.49,389.84 1028.1,389.84 "/>
<polygon className="st1" points="676.34,767.07 574.77,793.4 546.64,688.31 649.42,658.47 "/>
<polygon className="st6" points="690.39,823.81 589.62,848.85 574.77,793.4 676.34,767.07 "/>
<polygon className="st5" points="806.43,732.33 706.91,759.19 671.94,650.68 761.34,614.02 "/>
<polygon className="st3" points="825.14,781.41 722.49,807.5 706.91,759.19 806.43,732.33 806.45,732.33 "/>
<polygon className="st2" points="914.95,758.57 825.14,781.41 806.45,732.33 806.43,732.33 761.34,614.02 761.47,613.96 759.84,610.06 
	755.9,600.62 850.46,559.48 "/>
<polygon className="st1" points="1038.93,736.92 949.87,759.19 884.92,550.35 979.13,519.42 1014.02,650.68 1014.51,650.43 "/>
<polygon className="st5" points="1097.66,570.57 1030.48,595.96 1003.94,509.7 1064.44,490.52 1093.75,550.35 "/>
<polygon className="st3" points="1105.97,613.74 1042.87,636.24 1030.48,595.96 1097.66,570.57 "/>
<polygon className="st5" points="1125.53,715.26 1038.93,736.92 1014.51,650.43 1042.87,636.24 1105.97,613.74 "/>
<polygon className="st4" points="345.84,292.85 316.53,330.66 299.24,318.93 333,284.08 "/>
<polygon className="st9" points="321.46,276.19 283.62,308.34 271.2,299.91 310.79,268.92 "/>
<polygon className="st6" points="333,284.08 299.24,318.93 283.62,308.34 321.46,276.19 "/>
<polygon className="st1" points="414.19,339.49 388.6,379.61 366.42,364.54 393.51,325.38 "/>
<polygon className="st3" points="363.47,304.87 336.34,344.12 316.53,330.66 345.84,292.85 "/>
<polygon className="st8" points="376.62,313.85 349.5,353.07 336.34,344.12 363.47,304.87 "/>
<polygon className="st1" points="393.51,325.38 366.42,364.54 349.5,353.07 376.62,313.85 "/>
<polygon className="st5" points="174.66,402.35 241.14,384.92 257.82,445.89 188.41,469.01 "/>
<polygon className="st2" points="192.08,485.19 242.52,468.7 253.86,519.11 201.98,533.21 "/>
<polygon className="st5" points="632.44,434.04 631.39,467.08 696.02,462.76 687.15,424.25 "/>
<polygon className="st3" points="395.73,480.59 344.56,494.68 330.45,446.5 386.89,431.88 "/>
<polygon className="st3" points="344.92,494.24 296.65,507.54 282.38,458.59 330.81,446.06 "/>
<polygon className="st8" points="296.53,507.58 253.88,519.33 242.55,468.92 282.26,458.63 "/>
<polygon className="st2" points="106.43,826.36 6.41,833.01 5.43,781.35 105.03,776.27 "/>
<polygon className="st8" points="154.62,773.73 153.47,823.23 106.43,826.36 105.03,776.27 "/>
<polygon className="st6" points="635.92,507.19 584.06,518.45 570.03,462.35 573.5,461.65 568.32,426.96 613.53,420.77 618.66,452.55 
	623.54,451.57 "/>
<polygon className="st3" points="742.07,476.14 680.33,491.57 636.96,500.75 631.38,467.09 694.69,456.83 696.66,465.63 735.33,459.36 
	"/>
<polygon className="st1" points="837.15,523.27 772.51,551.89 742.07,476.14 735.33,459.36 735.33,432.86 807.91,415.49 812.77,477.45 
	"/>
<polygon className="st7" points="696.66,465.63 694.69,456.83 734.28,450.41 735.33,432.86 735.33,459.36 "/>
<polygon className="st6" points="772.51,551.89 710.37,579.43 680.33,491.57 742.07,476.14 "/>
<polygon className="st2" points="565.67,445.17 480.89,457.41 480.01,426.96 561.26,415.98 "/>
<polygon className="st3" points="569.2,466.29 487.65,481.14 480.89,457.41 565.67,445.17 568.32,462.7 "/>
<polygon className="st3" points="573.52,483.63 493.29,500.96 487.65,481.14 569.2,466.29 "/>
<polygon className="st8" points="577.89,501.27 499.08,521.3 493.16,500.93 573.52,483.63 "/>
<polygon className="st5" points="582.39,519.42 503.66,537.39 499.08,521.3 577.89,501.27 "/>
<path className="st2" d="M813.82,413.92l-78.49,18.94v26.5l-38.67,6.27l-1.97-8.8l-3.13-13.91l-10.29-43.51l-12.43-89.04
	c29.34-2.08,58.67-4.15,88.01-6.21c2.76,8.62,5.54,17.25,8.3,25.88c10.34-1.03,20.7-2.06,31.06-3.12
	c2.76,14.85,5.52,29.69,8.28,44.54C807.61,385.61,810.71,399.77,813.82,413.92z"/>
<path className="st1" d="M1463.9,576.5c-14.49-22.26-29-44.52-43.49-66.8c21.74-11.56,43.49-23.12,65.24-34.69l44.01,75.6
	c-0.04,0.02-0.07,0.04-0.11,0.06c6.23,13.68,12.43,28.15,18.49,43.43c5.74,14.51,10.91,28.6,15.52,42.19
	c-27.25,8.9-54.53,17.77-81.8,26.67c-5.88-28.83-11.75-57.64-17.61-86.47"/>
<line className="st10" x1="1359.49" y1="860.47" x2="1359.1" y2="860.58"/>
<line className="st5" x1="1617.93" y1="995.48" x2="1617.48" y2="995.48"/>
<line className="st10" x1="1456.91" y1="431.47" x2="1456.25" y2="431.77"/>
<line className="st10" x1="1609.19" y1="856.99" x2="1609.17" y2="856.99"/>
<line className="st6" x1="1491.29" y1="713.54" x2="1582.63" y2="688.09"/>
<line className="st1" x1="1515.85" y1="526.88" x2="1449.78" y2="554.81"/>
<line className="st1" x1="1545.6" y1="588.01" x2="1470.91" y2="609.67"/>
<line className="st10" x1="813.6" y1="322.53" x2="813.09" y2="322.53"/>
<line className="st10" x1="671.17" y1="269.77" x2="676.4" y2="309.36"/>
<line className="st10" x1="754.38" y1="177.97" x2="754.27" y2="178.49"/>
<line className="st10" x1="696.61" y1="6.77" x2="696.61" y2="6.58"/>
<line className="st10" x1="741.33" y1="6.67" x2="741.33" y2="6.58"/>
<line className="st10" x1="834.23" y1="76.22" x2="834.21" y2="76.4"/>
<line className="st10" x1="895.04" y1="20.9" x2="895.02" y2="21.03"/>
<line className="st10" x1="589.7" y1="225.28" x2="589.38" y2="225.34"/>
<line className="st10" x1="592.64" y1="247.04" x2="592.4" y2="247.08"/>
<line className="st10" x1="596.28" y1="272.6" x2="595.95" y2="272.66"/>
<line className="st10" x1="603.64" y1="327.97" x2="603.62" y2="327.97"/>
<line className="st10" x1="546.32" y1="232.47" x2="546.28" y2="232.13"/>
<line className="st10" x1="528.56" y1="362.88" x2="528.49" y2="362.4"/>
<line className="st10" x1="525.35" y1="340.94" x2="525.3" y2="340.55"/>
<line className="st10" x1="553.23" y1="359.51" x2="553.15" y2="359.02"/>
<line className="st10" x1="549.49" y1="336.94" x2="549.47" y2="336.87"/>
<line className="st10" x1="575.64" y1="332.61" x2="575.54" y2="332.18"/>
<g>
	<g>
		<line className="st10" x1="385.43" y1="674.97" x2="484.16" y2="377.73"/>
		<g>
			<path d="M384.48,677.84c0.95-1.18,2.36-2.57,3.6-3.31l-2.53,0.07l-1.99-1.57C384.13,674.37,384.43,676.32,384.48,677.84z"/>
		</g>
	</g>
</g>
<g>
	<g>
		<line className="st10" x1="198.18" y1="538.42" x2="80.41" y2="761.48"/>
		<g>
			<path d="M79,764.15c0.2-1.5,0.22-3.48-0.11-4.89l1.7,1.87l2.5,0.35C81.75,762,80.13,763.14,79,764.15z"/>
		</g>
	</g>
</g>
<line className="st10" x1="742.48" y1="476.05" x2="742.07" y2="476.14"/>
<line className="st10" x1="761.34" y1="614.02" x2="759.84" y2="610.06"/>
<line className="st10" x1="1014.51" y1="650.43" x2="1005.24" y2="617.59"/>
<line className="st10" x1="283.62" y1="308.34" x2="283.22" y2="308.68"/>
<line className="st10" x1="299.24" y1="318.93" x2="298.95" y2="319.23"/>
<line className="st10" x1="342.54" y1="290.4" x2="342.37" y2="290.6"/>
<line className="st10" x1="316.53" y1="330.66" x2="316.09" y2="331.23"/>
<line className="st10" x1="356.03" y1="298.05" x2="355.88" y2="298.3"/>
<line className="st10" x1="336.33" y1="344.12" x2="336.1" y2="344.46"/>
<line className="st10" x1="363.73" y1="304.49" x2="363.47" y2="304.87"/>
<line className="st10" x1="349.5" y1="353.07" x2="349.14" y2="353.59"/>
<line className="st10" x1="376.94" y1="313.37" x2="376.62" y2="313.85"/>
<line className="st10" x1="366.42" y1="364.54" x2="366.12" y2="364.99"/>
<line className="st10" x1="393.83" y1="324.9" x2="393.51" y2="325.38"/>
<path className="st10" d="M344.59,253.67"/>
<path className="st3" d="M342.7,243.98c0,0,7.51,35.75,8.76,35.75s59.23-17.88,59.23-17.88l-7.51-36.35L342.7,243.98z"/>
<line className="st10" x1="410.68" y1="261.86" x2="414.19" y2="339.49"/>
<text transform="matrix(0.3152 -0.949 0.949 0.3152 403.7011 590.3117)" className="st11 st12 st13">ikinci mərtəbə</text>
<text transform="matrix(0.4669 -0.8843 0.8843 0.4669 113.4635 674.8043)" className="st11 st12 st14">ikinci mərtəbə</text>
<path className="st10" d="M512.11,559.47"/>
<polyline className="st2" points="537.68,656.86 662.16,609.04 636.42,512.55 504.7,541.01 538.73,661.31 "/>
<polygon className="st3" points="836.81,523.13 873.53,497.82 864.3,408.13 807.61,416.75 808.26,432.2 812.54,477.22 "/>
<polygon className="st15" points="1062.34,304.15 1025.12,287.6 1037.31,465.63 1057.33,462.7 1064.43,342.02 1080.69,342.02 
	1166.33,459.92 1178.57,476.05 1068.23,489.12 1095.09,545.01 1238.42,504.76 1211.73,497.88 1184.2,452.83 1212.97,425.98 "/>
<polygon className="st15" points="1310.74,730.25 1427.24,709.28 1359.41,474.47 1240.84,507.09 "/>
<polyline className="st15" points="286.74,159 312.58,199.93 381.04,159.88 356.87,121.12 286.74,159 "/>
<polygon className="st2" points="312.58,199.93 344.41,241.65 403.21,195.42 381.04,159.88 "/>
<polygon className="st6" points="145.68,266.38 240.78,332.27 230.22,345.66 136.23,275.06 "/>
<path className="st10" d="M787.34,6.58"/>
<path className="st10" d="M787.34,6.58"/>
<path className="st16" d="M895.02,19.63l-8.48,60.08c-17.44-1.63-34.89-3.27-52.31-4.9l7.41-62.73L895.02,19.63z"/>
<path className="st6" d="M956.74,28.27c-6.21,18.71-12.43,37.45-18.66,56.18c-17.12-1.6-34.31-3.21-51.54-4.82l8.48-60.08L956.74,28.27z
	"/>
<path className="st17" d="M996.7,40.67l-21.23,57.68c-12.43-4.62-24.89-9.23-37.39-13.83c6.36-18.66,12.24-37.31,18.58-55.97
	C969.4,32.02,982.79,36.03,996.7,40.67z"/>
<path className="st3" d="M1046.36,59.37l-23.71,56.76c-15.75-5.86-31.44-11.71-47.19-17.57l21.23-57.68c8.82,2.95,17.87,6.14,27.1,9.61
	C1031.55,53.4,1039.08,56.36,1046.36,59.37z"/>
<path className="st8" d="M1089.04,78.53c-8.67,17.51-17.34,35.04-26.01,52.55c-13.51-4.96-26.95-9.95-40.37-14.94l23.71-56.76
	C1061.58,65.65,1075.83,72.11,1089.04,78.53z"/>
<path className="st5" d="M1089.08,78.5c-6.24,12.62-12.47,25.24-18.71,37.86c5.61,2.91,11.22,5.83,16.83,8.74
	c7.14-12.21,14.28-24.42,21.42-36.63C1102.11,85.15,1095.6,81.83,1089.08,78.5"/>
<polygon className="st2" points="864.63,119.01 855.3,196.17 754.38,177.97 768.63,106.73 "/>
<path className="st2" d="M952.62,135.36l-11.58,76.05l-85.74-15.24c3.45-26.77,5.87-52.14,9.33-78.91
	C893.74,123.48,923.16,129.43,952.62,135.36z"/>
<path className="st2" d="M1053.04,155.99l-30.56,69.9l-81.44-14.47l11.58-76.05C986.22,142.15,1019.84,148.91,1053.04,155.99z"/>
<line className="st10" x1="886.54" y1="81.11" x2="886.52" y2="81.28"/>
<path className="st10" d="M792.76,5.34"/>
<path className="st2" d="M1195.9,140.81l-42.48,61.47c-14.47-9.82-28.94-19.63-43.4-29.45c12.5-19.61,24.98-39.23,37.48-58.84
	c13.91,7.06,28.47,14.98,43.49,23.89C1192.66,138.86,1194.29,139.84,1195.9,140.81z"/>
<path className="st18" d="M170.65,384.29l31.76,148.6l278.48-75.48l65.75,230.9l42.98,160.54l535.91-133.58l-31.78-164.91l145.04-43.7
	L1381.7,950.4l126.56-34.4l0.94,95.19l108.73-8.56L1606.1,756.2l-43.68-123.27l-32.37-82.92l-44.4-73.41l-47.22-72.71l-11.47-25.27
	c0,0-7.83-15.93-17.19-32.4c-6.59-11.58-10.89-20.47-19.84-34.83c-15.38-24.67-37.92-50.22-52.79-65.35
	c0-0.16-48.22-41.87-100.06-78.6c-31.81-22.54-64.65-40.86-89.55-53.45l-38.89-25.52c0,0-113.27-52.95-155.51-59.14L789.23,5.95
	L656.57,6.1L480.82,49.5l-123.1,72.23l44.63,73.69L270.63,300.53l-90.39-63.23l-45.19,39.35l107.9,93.33L170.65,384.29z"/>
<rect x="182.05" y="309.01" transform="matrix(0.649 -0.7608 0.7608 0.649 -175.0338 252.5169)" className="st8" width="8.17" height="13.85"/>
<text transform="matrix(1 0 0 1 447.3911 121.1196)" className="st19 st20">1</text>
<text transform="matrix(1 0 0 1 555.816 84.4504)" className="st19 st20">1</text>
<text transform="matrix(1 0 0 1 673.7873 40.1545)" className="st19 st20">1</text>
<text transform="matrix(1 0 0 1 715.0102 45.9023)" className="st19 st20">1</text>
<text transform="matrix(1 0 0 1 761.3433 48.8884)" className="st19 st20">1</text>
<text transform="matrix(1 0 0 1 808.9664 51.998)" className="st19 st20">1</text>
<text transform="matrix(1 0 0 1 855.7828 59.3805)" className="st19 st20">1</text>
<text transform="matrix(1 0 0 1 910.8939 63.4465)" className="st19 st20">1</text>
<text transform="matrix(1 0 0 1 956.6224 74.9721)" className="st19 st20">1</text>
<text transform="matrix(1 0 0 1 1003.9405 87.4166)" className="st19 st20">1</text>
<text transform="matrix(1 0 0 1 1046.3597 101.8041)" className="st19 st20">1</text>
<text transform="matrix(1 0 0 1 1085.4708 107.82)" className="st19 st20">1</text>
<text transform="matrix(1 0 0 1 715.1807 140.812)" className="st19 st20">1</text>
<text transform="matrix(1 0 0 1 548.5053 171.1889)" className="st19 st20">1</text>
<text transform="matrix(1 0 0 1 544.3571 196.1717)" className="st19 st20">1</text>
<text transform="matrix(1 0 0 1 496.5323 190.542)" className="st19 st20">1</text>
<text transform="matrix(1 0 0 1 480.944 213.3569)" className="st19 st20">1</text>
<text transform="matrix(1 0 0 1 528.5627 249.2087)" className="st19 st20">1</text>
<text transform="matrix(1 0 0 1 563.5257 247.2253)" className="st19 st20">1</text>
<text transform="matrix(1 0 0 1 493.4631 258.1882)" className="st19 st20">1</text>
<text transform="matrix(1 0 0 1 535.2409 304.4944)" className="st19 st20">1</text>
<text transform="matrix(1 0 0 1 535.412 332.6083)" className="st19 st20">1</text>
<text transform="matrix(1 0 0 1 542.283 355.1268)" className="st19 st20">1</text>
<text transform="matrix(1 0 0 1 496.5319 362.3954)" className="st19 st20">1</text>
<text transform="matrix(1 0 0 1 355.8817 202.9898)" className="st19 st20">1</text>
<text transform="matrix(1 0 0 1 376.9396 258.188)" className="st19 st20">1</text>
<text transform="matrix(1 0 0 1 308.8574 303.0861)" className="st19 st21">1</text>
<text transform="matrix(1 0 0 1 321.9418 313.233)" className="st19 st21">1</text>
<text transform="matrix(1 0 0 1 339.1845 327.9721)" className="st19 st21">1</text>
<text transform="matrix(1 0 0 1 352.8027 333.676)" className="st19 st21">1</text>
<text transform="matrix(1 0 0 1 368.29 345.6619)" className="st19 st21">1</text>
<text transform="matrix(1 0 0 1 389.1708 355.1268)" className="st19 st21">1</text>
<text transform="matrix(1 0 0 1 294.0497 292.8484)" className="st19 st22">1</text>
<text transform="matrix(1 0 0 1 198.0497 318.4865)" className="st19 st22">1</text>
<text transform="matrix(1 0 0 1 209.9016 420.7693)" className="st19 st22">1</text>
<text transform="matrix(1 0 0 1 222.9653 505.2137)" className="st19 st22">1</text>
<text transform="matrix(1 0 0 1 265.3357 495.7965)" className="st19 st22">1</text>
<text transform="matrix(1 0 0 1 306.2246 483.6286)" className="st19 st22">1</text>
<text transform="matrix(1 0 0 1 403.7012 721.7213)" className="st19 st22">1</text>
<text transform="matrix(1 0 0 1 377.6785 727.1831)" className="st19 st22">1</text>
<text transform="matrix(1 0 0 1 326.1539 736.5302)" className="st19 st22">1</text>
<text transform="matrix(1 0 0 1 309.339 739.9088)" className="st19 st22">1</text>
<text transform="matrix(1 0 0 1 129.8209 804.6359)" className="st19 st22">1</text>
<text transform="matrix(1 0 0 1 53.3764 807.4985)" className="st19 st22">1</text>
<text transform="matrix(1 0 0 1 357.6135 467.56)" className="st19 st22">1</text>
<text transform="matrix(1 0 0 1 184.8793 319.9752)" className="st19 st23">1</text>
<text transform="matrix(1 0 0 1 802.9556 158.1362)" className="st19 st20">1</text>
<text transform="matrix(1 0 0 1 987.7454 184.4889)" className="st19 st20">1</text>
<text transform="matrix(1 0 0 1 848.528 290.6018)" className="st19 st20">1</text>
<text transform="matrix(1 0 0 1 855.3043 367.2383)" className="st19 st20">1</text>
<text transform="matrix(1 0 0 1 983.801 349.1938)" className="st19 st20">1</text>
<text transform="matrix(1 0 0 1 987.9161 431.8807)" className="st19 st20">1</text>
<text transform="matrix(1 0 0 1 837.1534 470.7997)" className="st19 st20">1</text>
<text transform="matrix(1 0 0 1 778.5877 494.6837)" className="st19 st20">1</text>
<text transform="matrix(1 0 0 1 719.6844 382.1975)" className="st19 st20">1</text>
<text transform="matrix(1 0 0 1 735.3289 279.7322)" className="st19 st20">1</text>
<text transform="matrix(1 0 0 1 662.1628 294.919)" className="st19 st20">1</text>
<text transform="matrix(1 0 0 1 666.8369 456.8255)" className="st19 st20">1</text>
<text transform="matrix(1 0 0 1 666.8366 483.6945)" className="st19 st20">1</text>
<text transform="matrix(1 0 0 1 724.3585 527.7842)" className="st19 st20">1</text>
<text transform="matrix(1 0 0 1 599.8304 490.5169)" className="st19 st20">1</text>
<text transform="matrix(1 0 0 1 589.3759 586.9341)" className="st19 st20">1</text>
<text transform="matrix(1 0 0 1 602.1175 736.5303)" className="st19 st20">1</text>
<text transform="matrix(1 0 0 1 616.3397 826.1124)" className="st19 st20">1</text>
<text transform="matrix(1 0 0 1 761.3432 783.1448)" className="st19 st20">1</text>
<text transform="matrix(1 0 0 1 735.3286 705.4857)" className="st19 st20">1</text>
<text transform="matrix(1 0 0 1 821.5507 682.3746)" className="st19 st20">1</text>
<text transform="matrix(1 0 0 1 952.6241 644.1523)" className="st19 st20">1</text>
<text transform="matrix(1 0 0 1 1060.8873 682.3745)" className="st19 st20">1</text>
<text transform="matrix(1 0 0 1 1070.0193 617.5872)" className="st19 st20">1</text>
<text transform="matrix(1 0 0 1 1055.8484 551.8939)" className="st19 st20">1</text>
<text transform="matrix(1 0 0 1 1251.4039 424.2476)" className="st19 st20">1</text>
<text transform="matrix(1 0 0 1 1148.7529 328.9692)" className="st19 st20">1</text>
<text transform="matrix(1 0 0 1 1099.7413 279.7319)" className="st19 st20">1</text>
<text transform="matrix(1 0 0 1 1379.7413 767.0685)" className="st19 st20">1</text>
<text transform="matrix(1 0 0 1 1554.9417 793.4025)" className="st19 st20">1</text>
<text transform="matrix(1 0 0 1 1542.7935 738.2914)" className="st19 st20">1</text>
<text transform="matrix(1 0 0 1 1526.7935 679.0321)" className="st19 st20">1</text>
<text transform="matrix(1 0 0 1 1516.8647 624.2173)" className="st19 st20">1</text>
<text transform="matrix(1 0 0 1 1496.5608 573.366)" className="st19 st20">1</text>
<text transform="matrix(1 0 0 1 1466.3386 520.9216)" className="st19 st20">1</text>
<text transform="matrix(1 0 0 1 1433.1534 475.0149)" className="st19 st20">1</text>
<text transform="matrix(1 0 0 1 1407.9683 431.468)" className="st19 st20">1</text>
<text transform="matrix(1 0 0 1 1386.3386 389.8396)" className="st19 st20">1</text>
<text transform="matrix(1 0 0 1 1366.7831 352.5602)" className="st19 st20">1</text>
<text transform="matrix(1 0 0 1 1338.6349 311.3751)" className="st19 st20">1</text>
<text transform="matrix(1 0 0 1 1281.4497 254.4862)" className="st19 st20">1</text>
<text transform="matrix(1 0 0 1 1232.2645 217.4491)" className="st19 st20">1</text>
<text transform="matrix(1 0 0 1 897.9678 169.2561)" className="st19 st20">1</text>
<text transform="matrix(1 0 0 1 1563.5688 833.9608)" className="st19 st20">1</text>
<text transform="matrix(1 0 0 1 1568.2427 886.8077)" className="st19 st20">1</text>
<text transform="matrix(1 0 0 1 1568.4136 954.3633)" className="st19 st20">1</text>
<text transform="matrix(1 0 0 1 1516.8647 1006.5919)" className="st19 st24">1</text>
<text transform="matrix(1 0 0 1 1399.2969 828.2483)" className="st19 st20">1</text>
<text transform="matrix(1 0 0 1 1413.9907 900.1078)" className="st19 st20">1</text>
<text transform="matrix(1 0 0 1 525.3527 440.079)" className="st19 st25">1</text>
<text transform="matrix(1 0 0 1 525.5234 467.5599)" className="st19 st25">1</text>
<text transform="matrix(1 0 0 1 528.4874 487.6823)" className="st19 st25">1</text>
<text transform="matrix(1 0 0 1 531.3686 506.9965)" className="st19 st25">1</text>
<text transform="matrix(1 0 0 1 533.1612 524.9495)" className="st19 st25">1</text>
<text transform="matrix(1 0 0 1 1148.5819 164.9299)" className="st19 st20">1</text>
<text transform="matrix(1 0 0 1 1187.693 192.2772)" className="st19 st20">1</text>
</svg>
