<?xml version="1.0" encoding="utf-8"?>
<!-- Generator: Adobe Illustrator 25.2.3, SVG Export Plug-In . SVG Version: 6.00 Build 0)  -->
<svg version="1.1" id="Layer_1" xmlns="http://www.w3.org/2000/svg" xmlns:xlink="http://www.w3.org/1999/xlink" x="0px" y="0px"
	 viewBox="0 0 1737.93 893.67" style="enable-background:new 0 0 1737.93 893.67;" xml:space="preserve">
<style type="text/css">
	.st0{fill:none;stroke:#000000;stroke-width:3;stroke-miterlimit:10;}
	.st1{fill:#B7DEE8;stroke:#000000;stroke-width:3;stroke-miterlimit:10;}
	.st2{fill:#ECF0DE;stroke:#000000;stroke-width:3;stroke-miterlimit:10;}
	.st3{fill:#D2EDF3;stroke:#000000;stroke-width:3;stroke-miterlimit:10;}
	.st4{fill:#DBEFF3;stroke:#000000;stroke-width:3;stroke-miterlimit:10;}
	.st5{fill:#F1DCDA;stroke:#000000;stroke-width:3;stroke-miterlimit:10;}
	.st6{fill:#FDE8D8;stroke:#000000;stroke-width:3;stroke-miterlimit:10;}
	.st7{fill:#D9D9D8;stroke:#000000;stroke-width:3;stroke-miterlimit:10;}
	.st8{fill:#E4DEEB;stroke:#000000;stroke-width:3;stroke-miterlimit:10;}
	.st9{fill:#DDD9C4;stroke:#000000;stroke-width:3;stroke-miterlimit:10;}
	.st10{font-family:'Montserrat-Medium';}
	.st11{font-size:20px;}
</style>
<rect x="25.62" y="-25.3" transform="matrix(6.045736e-14 -1 1 6.045736e-14 25.2954 86.6624)" className="st0" width="60.72" height="111.96"/>
<line className="st0" x1="25.96" y1="60.72" x2="25.96" y2="0"/>
<line className="st0" x1="53.8" y1="60.4" x2="53.8" y2="0.32"/>
<line className="st0" x1="85.08" y1="60.72" x2="85.08" y2="0"/>
<rect x="111.96" y="0.32" className="st0" width="43.7" height="43.7"/>
<rect x="53.8" y="60.4" className="st0" width="31.28" height="38.87"/>
<rect x="85.08" y="60.4" className="st0" width="26.88" height="38.87"/>
<polygon className="st1" points="0,61.05 0,500.16 155.65,500.16 155.65,99.27 53.8,99.27 53.8,60.4 "/>
<rect x="155.65" y="173.05" className="st2" width="98.53" height="162.67"/>
<rect x="450.1" y="176.6" className="st3" width="107.82" height="159.11"/>
<rect x="21.67" y="478.17" transform="matrix(-1.836970e-16 1 -1 -1.836970e-16 633.8221 478.1692)" className="st1" width="112.32" height="155.65"/>
<rect x="204.61" y="644.88" transform="matrix(-1.836970e-16 1 -1 -1.836970e-16 1094.9839 307.1068)" className="st4" width="378.67" height="112.32"/>
<rect x="368.58" y="593.23" transform="matrix(-1.836970e-16 1 -1 -1.836970e-16 1258.9628 143.1279)" className="st5" width="378.67" height="215.64"/>
<rect x="925.29" y="598.82" transform="matrix(-1.836970e-16 1 -1 -1.836970e-16 1815.6698 -413.5791)" className="st6" width="378.67" height="204.44"/>
<rect x="1135.96" y="592.6" transform="matrix(-1.836970e-16 1 -1 -1.836970e-16 2026.3364 -624.2458)" className="st6" width="378.67" height="216.89"/>
<rect x="1359.82" y="-38.65" transform="matrix(-1.836970e-16 1 -1 -1.836970e-16 1695.5302 -1359.4965)" className="st2" width="335.39" height="413.33"/>
<rect x="1036.85" y="51.71" transform="matrix(-1.836970e-16 1 -1 -1.836970e-16 1372.5587 -878.9125)" className="st4" width="177.78" height="390.22"/>
<rect x="572.4" y="605.05" transform="matrix(-1.836970e-16 1 -1 -1.836970e-16 1462.7809 -60.6902)" className="st7" width="378.67" height="192"/>
<rect x="767.96" y="601.49" transform="matrix(-1.836970e-16 1 -1 -1.836970e-16 1613.892 -256.2458)" className="st8" width="334.22" height="154.67"/>
<rect x="912.85" y="790.82" transform="matrix(-1.836970e-16 1 -1 -1.836970e-16 1803.2253 -66.9125)" className="st0" width="44.44" height="154.67"/>
<rect x="573.16" y="161.36" transform="matrix(-1.836970e-16 1 -1 -1.836970e-16 908.8718 -396.559)" className="st6" width="159.11" height="189.6"/>
<rect x="229.56" y="115.17" transform="matrix(-1.836970e-16 1 -1 -1.836970e-16 565.2676 -199.1937)" className="st5" width="305.35" height="135.74"/>
<rect x="673.68" y="207.65" transform="matrix(-1.836970e-16 1 -1 -1.836970e-16 1009.3886 -539.8603)" className="st0" width="201.9" height="54.22"/>
<rect x="55.89" y="555.95" transform="matrix(-1.836970e-16 1 -1 -1.836970e-16 711.5999 555.947)" className="st9" width="43.88" height="155.65"/>
<polygon className="st5" points="155.65,30.36 314.36,30.36 314.36,335.71 254.18,335.71 254.18,173.05 155.65,173.05 155.65,99.27 
	111.96,99.27 111.96,44.02 155.65,44.02 "/>
<polygon className="st4" points="450.1,30.36 661.29,30.36 661.29,0.32 747.51,0.32 747.51,176.6 450.1,176.6 "/>
<polygon className="st5" points="930.62,2.08 930.62,157.93 1320.85,157.93 1320.85,28.16 982.18,29.93 981.88,1.79 "/>
<polygon className="st8" points="1505.29,335.71 1505.29,845.93 1602.62,845.93 1602.62,782.82 1734.18,785.49 1734.18,335.71 "/>
<rect x="1602.62" y="782.82" className="st0" width="131.56" height="107.56"/>
<polygon className="st4" points="0,655.71 0,845.93 53.8,845.93 55.98,764.16 155.65,761.49 155.65,655.71 "/>
<polygon className="st6" points="0,845.93 0,890.38 155.65,890.38 155.65,761.49 55.98,764.16 53.8,845.93 "/>
<rect x="55.02" y="800.17" className="st0" width="25.77" height="25.77"/>
<line className="st0" x1="747.51" y1="0.32" x2="930.62" y2="2.08"/>
<line className="st0" x1="79.83" y1="890.38" x2="382.23" y2="890.38"/>
<line className="st0" x1="1395.38" y1="890.38" x2="1697.79" y2="890.38"/>
<line className="st0" x1="155.65" y1="674.73" x2="155.65" y2="977.14"/>
<line className="st0" x1="337.78" y1="674.73" x2="337.78" y2="977.14"/>
<text transform="matrix(1 0 0 1 592.8804 113.4897)" className="st10 st11">1</text>
<text transform="matrix(1 0 0 1 1142.1797 99.4904)" className="st10 st11">1</text>
<text transform="matrix(1 0 0 1 1131.958 254.3786)" className="st10 st11">1</text>
<text transform="matrix(1 0 0 1 1505.2915 157.9338)" className="st10 st11">1</text>
<text transform="matrix(1 0 0 1 1603.217 582.1564)" className="st10 st11">1</text>
<text transform="matrix(1 0 0 1 1314.4443 701.0453)" className="st10 st11">1</text>
<text transform="matrix(1 0 0 1 1123.0691 701.0453)" className="st10 st11">1</text>
<text transform="matrix(1 0 0 1 930.6243 701.0453)" className="st10 st11">1</text>
<text transform="matrix(1 0 0 1 747.5134 701.0453)" className="st10 st11">1</text>
<text transform="matrix(1 0 0 1 552.1748 701.0456)" className="st10 st11">1</text>
<text transform="matrix(1 0 0 1 393.9388 701.0458)" className="st10 st11">1</text>
<text transform="matrix(1 0 0 1 67.9009 818.7202)" className="st10 st11">1</text>
<text transform="matrix(1 0 0 1 639.9575 256.1567)" className="st10 st11">1</text>
<text transform="matrix(1 0 0 1 504.0082 256.1567)" className="st10 st11">1</text>
<text transform="matrix(1 0 0 1 369.702 242.157)" className="st10 st11">1</text>
<text transform="matrix(1 0 0 1 79.8275 297.4902)" className="st10 st11">1</text>
<text transform="matrix(1 0 0 1 77.8267 555.9953)" className="st10 st11">1</text>
<text transform="matrix(1 0 0 1 68 701.0453)" className="st10 st11">1</text>
<text transform="matrix(1 0 0 1 72.4764 701)" className="st10 st11">1</text>
<text transform="matrix(1 0 0 1 220.106 113.4902)" className="st10 st11">1</text>
<text transform="matrix(1 0 0 1 189.2909 256.1565)" className="st10 st11">1</text>
</svg>

