<?xml version="1.0" encoding="utf-8"?>
<!-- Generator: Adobe Illustrator 25.2.3, SVG Export Plug-In . SVG Version: 6.00 Build 0)  -->
<svg version="1.1" id="Layer_1" xmlns="http://www.w3.org/2000/svg" xmlns:xlink="http://www.w3.org/1999/xlink" x="0px" y="0px"
	 viewBox="0 0 2018.22 968.33" style="enable-background:new 0 0 2018.22 968.33;" xml:space="preserve">
<style type="text/css">
	.st0{fill:none;stroke:#000000;stroke-width:3;stroke-miterlimit:10;}
	.st1{fill:#F1DCDA;stroke:#000000;stroke-width:3;stroke-miterlimit:10;}
	.st2{fill:#D2EDF3;stroke:#000000;stroke-width:3;stroke-miterlimit:10;}
	.st3{fill:#D8E4BC;stroke:#000000;stroke-width:3;stroke-miterlimit:10;}
	.st4{fill:#E4DEEB;stroke:#000000;stroke-width:3;stroke-miterlimit:10;}
	.st5{fill:#ECF0DE;stroke:#000000;stroke-width:3;stroke-miterlimit:10;}
	.st6{fill:#FDE8D8;stroke:#000000;stroke-width:3;stroke-miterlimit:10;}
	.st7{fill:#C5D9F0;stroke:#000000;stroke-width:3;stroke-miterlimit:10;}
	.st8{fill:#DDD9C4;stroke:#000000;stroke-width:3;stroke-miterlimit:10;}
	.st9{fill:#B7DEE8;stroke:#000000;stroke-width:3;stroke-miterlimit:10;}
	.st10{fill:#DBEFF3;stroke:#000000;stroke-width:3;stroke-miterlimit:10;}
	.st11{fill:#FCF9CE;stroke:#000000;stroke-width:3;stroke-miterlimit:10;}
	.st12{fill:#F6EB14;stroke:#000000;stroke-width:3;stroke-miterlimit:10;}
	.st13{font-family:'Montserrat-Medium';}
	.st14{font-size:20px;}
</style>
<rect y="0.83" className="st0" width="2018.22" height="966.45"/>
<g>
	
		<rect x="-4.33" y="6.71" transform="matrix(8.799089e-14 -1 1 8.799089e-14 -6.7088 122.717)" className="st0" width="124.67" height="116.01"/>
	<line className="st0" x1="26.9" y1="126.39" x2="26.9" y2="1.72"/>
	<line className="st0" x1="58.68" y1="125.73" x2="58.68" y2="2.38"/>
	<line className="st0" x1="91.09" y1="126.39" x2="91.09" y2="1.72"/>
</g>
<line className="st0" x1="0" y1="64.05" x2="166.22" y2="64.05"/>
<g>
	
		<rect x="0.65" y="861.27" transform="matrix(-1 -1.488923e-13 1.488923e-13 -1 123.4062 1828.5513)" className="st0" width="122.11" height="106.01"/>
	<line className="st0" x1="122.11" y1="942.7" x2="0" y2="942.7"/>
	<line className="st0" x1="121.47" y1="913.66" x2="0.65" y2="913.66"/>
	<line className="st0" x1="122.11" y1="884.04" x2="0" y2="884.04"/>
</g>
<line className="st0" x1="59.46" y1="967.28" x2="59.46" y2="857.49"/>
<g>
	
		<rect x="1010.49" y="2.76" transform="matrix(9.420814e-14 -1 1 9.420814e-14 1009.8754 1126.6696)" className="st0" width="115.57" height="111.27"/>
	<line className="st0" x1="1038.44" y1="115.57" x2="1038.44" y2="0"/>
	<line className="st0" x1="1068.92" y1="114.96" x2="1068.92" y2="0.61"/>
	<line className="st0" x1="1094.34" y1="115.57" x2="1094.34" y2="0"/>
</g>
<line className="st0" x1="1012.64" y1="57.78" x2="1123.91" y2="57.78"/>
<rect x="166.22" y="1.72" className="st1" width="161.78" height="101.33"/>
<rect x="0" y="139.49" className="st2" width="166.22" height="232"/>
<rect x="0" y="370.16" className="st3" width="166.22" height="284"/>
<rect x="166.22" y="422.6" className="st4" width="108.44" height="231.56"/>
<rect x="166.22" y="214.16" className="st5" width="108.44" height="208.44"/>
<rect x="166.22" y="103.05" className="st2" width="108.44" height="111.11"/>
<rect x="353.78" y="283.49" className="st6" width="503.11" height="176.89"/>
<rect x="353.78" y="460.38" className="st7" width="243.56" height="308.44"/>
<rect x="856.89" y="283.49" className="st1" width="144" height="485.33"/>
<rect x="504.89" y="1.72" className="st8" width="154.67" height="212.44"/>
<rect x="659.56" y="103.05" className="st5" width="116.44" height="111.11"/>
<rect x="776" y="103.05" className="st1" width="80.89" height="111.11"/>
<rect x="659.56" y="0.83" className="st1" width="341.33" height="102.22"/>
<rect x="597.88" y="0.83" className="st0" width="61.68" height="61.68"/>
<rect x="856.89" y="103.05" className="st8" width="144" height="111.11"/>
<rect x="1180.15" y="1.39" className="st6" width="192" height="212.77"/>
<rect x="1372.15" y="1.39" className="st4" width="117.33" height="212.77"/>
<rect x="1093.69" y="283.49" className="st3" width="106.01" height="88.44"/>
<rect x="1199.7" y="283.49" className="st3" width="133.93" height="88.44"/>
<rect x="1093.69" y="371.94" className="st1" width="239.94" height="102.96"/>
<rect x="1093.69" y="474.68" className="st3" width="106.01" height="139.48"/>
<rect x="1333.63" y="474.68" className="st8" width="82.37" height="195.78"/>
<rect x="1333.63" y="283.49" className="st9" width="82.37" height="191.41"/>
<rect x="1416" y="283.49" className="st4" width="258.37" height="191.41"/>
<rect x="1416" y="476.86" className="st10" width="258.37" height="193.59"/>
<rect x="1333.63" y="780.61" className="st5" width="127.7" height="186.67"/>
<rect x="1093.69" y="614.16" className="st3" width="106.01" height="56.3"/>
<rect x="1199.7" y="614.16" className="st3" width="133.93" height="56.3"/>
<rect x="1199.7" y="474.68" className="st3" width="133.93" height="139.48"/>
<rect x="1123.26" y="725.95" className="st4" width="210.37" height="241.33"/>
<rect x="1010.22" y="815.28" className="st0" width="113.63" height="152"/>
<rect x="776" y="564.38" className="st4" width="80.89" height="204.44"/>
<rect x="859.56" y="837.51" className="st0" width="150.67" height="129.77"/>
<rect x="676" y="837.51" className="st8" width="183.56" height="129.77"/>
<rect x="856.89" y="283.49" className="st10" width="144" height="64.88"/>
<rect x="327.56" y="837.51" className="st1" width="348.17" height="129.77"/>
<rect x="119.56" y="837.51" className="st7" width="208" height="129.77"/>
<rect x="0" y="654.88" className="st0" width="59.56" height="99.56"/>
<rect x="59.56" y="654.88" className="st0" width="59.56" height="99.56"/>
<g>
	<rect x="0" y="967.28" className="st0" width="118.93" height="0"/>
	<line className="st0" x1="0.63" y1="967.28" x2="119.56" y2="967.28"/>
	<line className="st0" x1="1.26" y1="967.28" x2="118.93" y2="967.28"/>
	<line className="st0" x1="0.63" y1="967.28" x2="119.56" y2="967.28"/>
</g>
<polygon className="st8" points="328,1.72 328,89.27 355.11,89.27 353.78,214.16 504.89,214.16 504.89,1.72 "/>
<polygon className="st10" points="1489.48,1.39 1674.37,0.83 1674.37,153.27 1683.11,153.27 1683.11,212.98 1489.48,214.16 "/>
<polygon className="st5" points="1674.37,0.83 2018.22,0.83 2018.22,126.6 1761.33,126.6 1760.89,167.49 1683.11,167.49 1683.11,153.27 
	1674.37,153.27 "/>
<rect x="1761.33" y="126.6" className="st5" width="100" height="96.89"/>
<polygon className="st1" points="1761.33,223.49 1761.33,323.05 2018.22,323.05 2018.22,126.6 1861.33,126.6 1861.33,223.49 "/>
<rect x="1761.33" y="323.05" className="st5" width="256.89" height="138.22"/>
<rect x="1761.33" y="461.27" className="st11" width="256.89" height="103.11"/>
<polygon className="st6" points="1761.33,564.38 1761.33,670.46 1895.11,670.46 1895.11,725.27 2018.22,725.27 2018.22,564.38 "/>
<rect x="1940.44" y="725.27" className="st6" width="77.78" height="69.78"/>
<polygon className="st5" points="1461.33,725.95 1623.56,727.72 1623.56,967.28 1333.63,967.28 1333.63,912.61 1461.33,912.61 "/>
<polygon className="st10" points="1623.56,729.61 1804.44,729.61 1804.44,798.94 1861.56,798.94 1861.78,967.28 1623.56,967.28 "/>
<rect x="1861.78" y="839.4" className="st0" width="78.67" height="127.88"/>
<rect x="1940" y="839.4" className="st0" width="78.67" height="127.88"/>
<polygon className="st3" points="597.33,460.38 856.89,460.38 856.89,564.38 776,564.38 776,768.83 597.33,768.83 "/>
<rect x="26.67" y="837.51" className="st12" width="32.89" height="23.1"/>
<rect x="1119.01" y="30.4" transform="matrix(-1.836970e-16 1 -1 -1.836970e-16 1177.4103 -1093.505)" className="st12" width="32.89" height="23.1"/>
<rect x="111.12" y="36.06" transform="matrix(-1.836970e-16 1 -1 -1.836970e-16 175.1677 -79.9516)" className="st12" width="32.89" height="23.1"/>
<text transform="matrix(1 0 0 1 431.3143 125.7284)" className="st13 st14">1</text>
<text transform="matrix(1 0 0 1 238.4862 62.5036)" className="st13 st14">1</text>
<text transform="matrix(1 0 0 1 220.4447 167.9384)" className="st13 st14">1</text>
<text transform="matrix(1 0 0 1 220.4447 327.7162)" className="st13 st14">1</text>
<text transform="matrix(1 0 0 1 214.6669 544.4199)" className="st13 st14">1</text>
<text transform="matrix(1 0 0 1 73.3335 526.1611)" className="st13 st14">1</text>
<text transform="matrix(1 0 0 1 73.4937 269.2712)" className="st13 st14">1</text>
<text transform="matrix(1 0 0 1 582.222 125.7282)" className="st13 st14">1</text>
<text transform="matrix(1 0 0 1 816.4447 62.5033)" className="st13 st14">1</text>
<text transform="matrix(1 0 0 1 814.4396 167.9389)" className="st13 st14">1</text>
<text transform="matrix(1 0 0 1 928.8888 167.9389)" className="st13 st14">1</text>
<text transform="matrix(1 0 0 1 715.589 167.9384)" className="st13 st14">1</text>
<text transform="matrix(1 0 0 1 626.7172 41.9523)" className="st13 st14">1</text>
<text transform="matrix(1 0 0 1 597.8796 359.5588)" className="st13 st14">1</text>
<text transform="matrix(1 0 0 1 475.5557 614.6049)" className="st13 st14">1</text>
<text transform="matrix(1 0 0 1 691.8397 614.6049)" className="st13 st14">1</text>
<text transform="matrix(1 0 0 1 808.0001 675.9384)" className="st13 st14">1</text>
<text transform="matrix(1 0 0 1 928.8888 679.9379)" className="st13 st14">1</text>
<text transform="matrix(1 0 0 1 928.8888 327.716)" className="st13 st14">1</text>
<text transform="matrix(1 0 0 1 1141.3333 336.2785)" className="st13 st14">1</text>
<text transform="matrix(1 0 0 1 1266.6667 336.2785)" className="st13 st14">1</text>
<text transform="matrix(1 0 0 1 1372.1482 433.2714)" className="st13 st14">1</text>
<text transform="matrix(1 0 0 1 1372.1482 600.6054)" className="st13 st14">1</text>
<text transform="matrix(1 0 0 1 1561.3333 600.6059)" className="st13 st14">1</text>
<text transform="matrix(1 0 0 1 1566.6328 371.9382)" className="st13 st14">1</text>
<text transform="matrix(1 0 0 1 1915.9993 269.2714)" className="st13 st14">1</text>
<text transform="matrix(1 0 0 1 1916.1592 402.6054)" className="st13 st14">1</text>
<text transform="matrix(1 0 0 1 1921.2996 526.1611)" className="st13 st14">1</text>
<text transform="matrix(1 0 0 1 1921.46 621.2709)" className="st13 st14">1</text>
<text transform="matrix(1 0 0 1 1979.3337 760.1606)" className="st13 st14">1</text>
<text transform="matrix(1 0 0 1 1742.6667 863.2714)" className="st13 st14">1</text>
<text transform="matrix(1 0 0 1 1545.1853 863.2719)" className="st13 st14">1</text>
<text transform="matrix(1 0 0 1 1397.4817 863.2719)" className="st13 st14">1</text>
<text transform="matrix(1 0 0 1 1213.6606 863.2719)" className="st13 st14">1</text>
<text transform="matrix(1 0 0 1 776.0001 903.3373)" className="st13 st14">1</text>
<text transform="matrix(1 0 0 1 531.9999 902.395)" className="st13 st14">1</text>
<text transform="matrix(1 0 0 1 225.7446 903.3373)" className="st13 st14">1</text>
<text transform="matrix(1 0 0 1 43.111 857.4936)" className="st13 st14">1</text>
<text transform="matrix(1 0 0 1 1571.9321 97.5316)" className="st13 st14">1</text>
<text transform="matrix(1 0 0 1 1422.6665 97.5316)" className="st13 st14">1</text>
<text transform="matrix(1 0 0 1 1276.1479 97.5316)" className="st13 st14">1</text>
<text transform="matrix(1 0 0 1 1846.2961 73.2716)" className="st13 st14">1</text>
<text transform="matrix(1 0 0 1 1811.333 181.5312)" className="st13 st14">1</text>
<text transform="matrix(1 0 0 1 1135.4575 51.9381)" className="st13 st14">1</text>
<text transform="matrix(1 0 0 1 1205.3333 433.2719)" className="st13 st14">1</text>
<text transform="matrix(1 0 0 1 1141.4932 572.5678)" className="st13 st14">1</text>
<text transform="matrix(1 0 0 1 1264.8884 573.6606)" className="st13 st14">1</text>
<text transform="matrix(1 0 0 1 1141.4934 644.8271)" className="st13 st14">1</text>
<text transform="matrix(1 0 0 1 1271.9663 644.8271)" className="st13 st14">1</text>
</svg>
