<?xml version="1.0" encoding="utf-8"?>
<!-- Generator: Adobe Illustrator 25.2.3, SVG Export Plug-In . SVG Version: 6.00 Build 0)  -->
<svg version="1.1" id="Layer_1" xmlns="http://www.w3.org/2000/svg" xmlns:xlink="http://www.w3.org/1999/xlink" x="0px" y="0px"
	 viewBox="0 0 1916.75 1095.68" style="enable-background:new 0 0 1916.75 1095.68;" xml:space="preserve">
<style type="text/css">
	.st0{fill:none;stroke:#000000;stroke-width:3;stroke-miterlimit:10;}
	.st1{fill:none;stroke:#000000;stroke-width:2;stroke-miterlimit:10;}
	.st2{fill:#D2EDF3;stroke:#000000;stroke-width:3;stroke-miterlimit:10;}
	.st3{fill:#C5BD97;stroke:#000000;stroke-width:3;stroke-miterlimit:10;}
	.st4{fill:#E4DEEB;stroke:#000000;stroke-width:3;stroke-miterlimit:10;}
	.st5{fill:#ECF0DE;stroke:#000000;stroke-width:3;stroke-miterlimit:10;}
	.st6{fill:#DDD9C4;stroke:#000000;stroke-width:3;stroke-miterlimit:10;}
	.st7{fill:#FDE8D8;stroke:#000000;stroke-width:3;stroke-miterlimit:10;}
	.st8{fill:#C5D9F0;stroke:#000000;stroke-width:3;stroke-miterlimit:10;}
	.st9{fill:#FCF9CE;stroke:#000000;stroke-width:3;stroke-miterlimit:10;}
	.st10{fill:#ECF0DE;stroke:#000000;stroke-width:4;stroke-miterlimit:10;}
	.st11{fill:#F1DCDA;stroke:#000000;stroke-width:3;stroke-miterlimit:10;}
	.st12{fill:#FFFFFF;stroke:#000000;stroke-width:3;stroke-miterlimit:10;}
	.st13{fill:#F6EB14;stroke:#000000;stroke-width:3;stroke-miterlimit:10;}
	.st14{fill:#F6EB14;stroke:#000000;stroke-width:2;stroke-miterlimit:10;}
	.st15{font-family:'Montserrat-Medium';}
	.st16{font-size:20px;}
</style>
<polygon className="st0" points="7.35,75.8 8.69,1021.16 1915.25,1015.55 1915.35,75.8 1736.68,75.8 1735.8,99.36 1120.68,99.36 
	1121.57,1.58 744.48,2.75 744.48,95.36 167.51,98.03 167.97,75.83 "/>
<line className="st1" x1="122.85" y1="130.47" x2="7.35" y2="130.47"/>
<g>
	
		<rect x="5.53" y="77.85" transform="matrix(-1.836970e-16 1 -1 -1.836970e-16 200.6981 69.6591)" className="st1" width="119.98" height="114.67"/>
	<line className="st1" x1="96.27" y1="75.83" x2="96.27" y2="195.8"/>
	<line className="st1" x1="64.85" y1="76.46" x2="64.85" y2="195.17"/>
	<line className="st1" x1="32.81" y1="75.83" x2="32.81" y2="195.8"/>
</g>
<line className="st1" x1="1024.39" y1="134.37" x2="938.03" y2="134.37"/>
<rect x="926.09" y="90.17" transform="matrix(-1.617091e-14 1 -1 -1.617091e-14 1114.9972 -847.4191)" className="st1" width="110.24" height="87.24"/>
<line className="st1" x1="1000.07" y1="79.26" x2="1000.07" y2="189.49"/>
<line className="st1" x1="973.08" y1="79.84" x2="973.08" y2="188.91"/>
<line className="st1" x1="956.33" y1="79.26" x2="956.33" y2="189.49"/>
<g>
	
		<rect x="8.06" y="920.56" transform="matrix(-1 -1.224647e-16 1.224647e-16 -1 129.5532 1941.7216)" className="st1" width="113.44" height="100.59"/>
	<line className="st1" x1="120.89" y1="997.83" x2="7.46" y2="997.83"/>
	<line className="st1" x1="120.29" y1="970.28" x2="8.06" y2="970.28"/>
	<line className="st1" x1="120.89" y1="942.17" x2="7.46" y2="942.17"/>
</g>
<polygon className="st2" points="167.74,95.36 167.74,195.8 201.95,195.8 201.95,338.91 303.45,338.91 303.45,282.02 744.48,280.25 
	744.48,95.36 "/>
<rect x="388.78" y="359.65" className="st3" width="117.93" height="162.96"/>
<rect x="506.7" y="359.65" className="st3" width="117.93" height="162.96"/>
<rect x="624.63" y="359.65" className="st2" width="110.22" height="162.96"/>
<rect x="935.74" y="359.65" className="st4" width="184.89" height="162.96"/>
<rect x="935.74" y="522.62" className="st5" width="184.89" height="198.52"/>
<rect x="1095.74" y="792.84" className="st4" width="129.78" height="225.19"/>
<rect x="1400.63" y="792.84" className="st6" width="111.11" height="225.19"/>
<rect x="1225.52" y="792.84" className="st7" width="175.11" height="225.19"/>
<rect x="1120.63" y="359.65" className="st6" width="171.56" height="162.96"/>
<rect x="1120.63" y="522.62" className="st8" width="171.56" height="198.52"/>
<rect x="1293.08" y="359.65" className="st4" width="295.11" height="162.96"/>
<rect x="1666.41" y="359.65" className="st2" width="250.34" height="110.81"/>
<rect x="1666.41" y="470.47" className="st2" width="250.34" height="129.78"/>
<rect x="1293.08" y="522.62" className="st9" width="295.11" height="198.52"/>
<rect x="734.85" y="359.65" className="st2" width="125.63" height="162.96"/>
<rect x="388.78" y="522.62" className="st4" width="117.93" height="198.52"/>
<rect x="506.7" y="522.62" className="st9" width="117.93" height="198.52"/>
<rect x="624.63" y="522.62" className="st5" width="110.22" height="198.52"/>
<rect x="734.85" y="522.62" className="st5" width="125.63" height="198.52"/>
<polygon className="st7" points="1120.63,95.36 1736.63,95.36 1736.63,75.8 1916.75,75.8 1916.75,359.65 1665.52,359.65 1665.52,281.14 
	1120.63,281.14 "/>
<polygon className="st2" points="1666.41,600.25 1666.41,721.14 1821.96,721.14 1821.96,796.69 1915.02,796.69 1916.75,600.25 "/>
<polygon className="st2" points="1511.74,792.84 1713.52,792.84 1713.52,836.69 1767.74,836.69 1770.41,1018.02 1511.74,1018.02 "/>
<polygon className="st10" points="220.19,792.84 860.48,792.84 860.48,861.58 715.3,861.58 715.67,879.14 302.85,878.47 303.15,860.99 
	220.19,863.36 "/>
<rect x="331.3" y="918.47" className="st10" width="135.11" height="100.59"/>
<rect x="466.41" y="918.32" className="st10" width="158.22" height="100.74"/>
<polygon className="st10" points="738.41,1019.06 738.41,940.53 679.74,940.53 679.74,910.47 624.63,910.47 624.63,1019.06 "/>
<polygon className="st11" points="8.19,195.17 8.19,766.91 122.85,766.91 122.85,721.14 300.63,721.14 303.45,338.91 201.52,338.91 
	201.52,195.8 "/>
<rect x="1770.41" y="905.43" className="st12" width="79.99" height="112.59"/>
<rect x="1850.4" y="905.43" className="st12" width="64.86" height="112.59"/>
<rect x="972.63" y="918.47" className="st12" width="123.11" height="99.56"/>
<line className="st1" x1="64.18" y1="1021.16" x2="64.18" y2="919.42"/>
<g>
	<g>
		
			<rect x="161.02" y="1020.83" transform="matrix(-1 -4.053458e-14 4.053458e-14 -1 592.729 2117.0701)" className="st1" width="270.7" height="75.41"/>
		<line className="st1" x1="430.28" y1="1078.76" x2="159.58" y2="1078.76"/>
		<line className="st1" x1="428.85" y1="1058.1" x2="161.02" y2="1058.1"/>
		<line className="st1" x1="430.28" y1="1037.03" x2="159.58" y2="1037.03"/>
	</g>
	<line className="st1" x1="299.86" y1="1093.4" x2="299.86" y2="1016.96"/>
</g>
<rect x="28.33" y="889.01" className="st13" width="38.68" height="30.41"/>
<g>
	<g>
		
			<rect x="859.79" y="916.12" transform="matrix(-1 -6.407131e-14 6.407131e-14 -1 1833.025 1932.8291)" className="st0" width="113.44" height="100.59"/>
		<line className="st0" x1="972.63" y1="993.39" x2="859.19" y2="993.39"/>
		<line className="st0" x1="972.03" y1="965.83" x2="859.79" y2="965.83"/>
		<line className="st0" x1="972.63" y1="937.72" x2="859.19" y2="937.72"/>
	</g>
	<line className="st0" x1="915.91" y1="1018.02" x2="915.91" y2="916.28"/>
	<rect x="915.54" y="888.62" className="st13" width="57.69" height="27.5"/>
</g>
<rect x="1017.86" y="102.33" transform="matrix(-1.836970e-16 1 -1 -1.836970e-16 1148.4871 -922.5036)" className="st14" width="35.27" height="21.33"/>
<rect x="744.48" y="3.26" className="st1" width="376.15" height="75.41"/>
<line className="st1" x1="1121.22" y1="59.5" x2="743.39" y2="59.5"/>
<line className="st1" x1="1122.31" y1="38.85" x2="743.39" y2="38.85"/>
<line className="st1" x1="1121.22" y1="17.78" x2="743.39" y2="17.78"/>
<line className="st1" x1="937.59" y1="79.19" x2="937.59" y2="2.75"/>
<line className="st1" x1="794.7" y1="188.91" x2="937.59" y2="188.91"/>
<line className="st1" x1="794.7" y1="280.84" x2="973.08" y2="280.84"/>
<rect x="8.19" y="766.91" className="st12" width="56.96" height="100.15"/>
<rect x="65.15" y="766.91" className="st12" width="56.96" height="100.15"/>
<polygon className="st6" points="220.19,860.99 220.19,919.65 679.45,919.65 679.45,944.54 736.93,944.54 736.93,1018.02 
	813.37,1018.02 813.37,920.84 716.19,919.65 716.19,878.77 303.15,879.95 303.15,860.99 "/>
<text transform="matrix(1 0 0 1 500.6304 188.9065)" className="st15 st16">1</text>
<text transform="matrix(1 0 0 1 139.3185 481.041)" className="st15 st16">1</text>
<text transform="matrix(1 0 0 1 447.7415 455.2632)" className="st15 st16">1</text>
<text transform="matrix(1 0 0 1 556.2196 455.2632)" className="st15 st16">1</text>
<text transform="matrix(1 0 0 1 676.2195 455.2632)" className="st15 st16">1</text>
<text transform="matrix(1 0 0 1 794.7046 455.263)" className="st15 st16">1</text>
<text transform="matrix(1 0 0 1 797.6677 633.9296)" className="st15 st16">1</text>
<text transform="matrix(1 0 0 1 1027.8899 458.7293)" className="st15 st16">1</text>
<text transform="matrix(1 0 0 1 1024.8284 622.5963)" className="st15 st16">1</text>
<text transform="matrix(1 0 0 1 1206.4082 628.8185)" className="st15 st16">1</text>
<text transform="matrix(1 0 0 1 1031.4951 119.3409)" className="st15 st16">1</text>
<text transform="matrix(1 0 0 1 1466.8528 174.9068)" className="st15 st16">1</text>
<text transform="matrix(1 0 0 1 1791.5769 423.7957)" className="st15 st16">1</text>
<text transform="matrix(1 0 0 1 1783.5769 535.3583)" className="st15 st16">1</text>
<text transform="matrix(1 0 0 1 1783.7375 666.025)" className="st15 st16">1</text>
<text transform="matrix(1 0 0 1 1618.4082 910.4692)" className="st15 st16">1</text>
<text transform="matrix(1 0 0 1 1456.1858 910.4692)" className="st15 st16">1</text>
<text transform="matrix(1 0 0 1 1304.1858 910.4692)" className="st15 st16">1</text>
<text transform="matrix(1 0 0 1 1160.6306 910.469)" className="st15 st16">1</text>
<text transform="matrix(1 0 0 1 935.7415 910.469)" className="st15 st16">1</text>
<text transform="matrix(1 0 0 1 775.0698 973.5809)" className="st15 st16">1</text>
<text transform="matrix(1 0 0 1 635.5144 840.2476)" className="st15 st16">1</text>
<text transform="matrix(1 0 0 1 662.8003 983.3586)" className="st15 st16">1</text>
<text transform="matrix(1 0 0 1 540.3345 983.3582)" className="st15 st16">1</text>
<text transform="matrix(1 0 0 1 405.2234 983.3582)" className="st15 st16">1</text>
<text transform="matrix(1 0 0 1 42.4854 909.5454)" className="st15 st16">1</text>
<text transform="matrix(1 0 0 1 1206.5681 455.2638)" className="st15 st16">1</text>
<text transform="matrix(1 0 0 1 1440.6306 455.2638)" className="st15 st16">1</text>
<text transform="matrix(1 0 0 1 1438.8528 628.0045)" className="st15 st16">1</text>
<text transform="matrix(1 0 0 1 676.3796 633.9297)" className="st15 st16">1</text>
<text transform="matrix(1 0 0 1 561.5193 636.5963)" className="st15 st16">1</text>
<text transform="matrix(1 0 0 1 447.7416 633.9293)" className="st15 st16">1</text>
</svg>
