<?xml version="1.0" encoding="utf-8"?>
<!-- Generator: Adobe Illustrator 25.2.3, SVG Export Plug-In . SVG Version: 6.00 Build 0)  -->
<svg version="1.1" id="Layer_1" xmlns="http://www.w3.org/2000/svg" xmlns:xlink="http://www.w3.org/1999/xlink" x="0px" y="0px"
	 viewBox="0 0 2054.47 940" style="enable-background:new 0 0 2054.47 940;" xml:space="preserve">
<style type="text/css">
	.st0{fill:#FFFFFF;stroke:#000000;stroke-width:3;stroke-miterlimit:10;}
	.st1{fill:none;stroke:#000000;stroke-width:3;stroke-miterlimit:10;}
	.st2{fill:#E4DEEB;stroke:#000000;stroke-width:3;stroke-miterlimit:10;}
	.st3{fill:#D2EDF3;stroke:#000000;stroke-width:3;stroke-miterlimit:10;}
	.st4{fill:#DDD9C4;stroke:#000000;stroke-width:3;stroke-miterlimit:10;}
	.st5{fill:#FDE8D8;stroke:#000000;stroke-width:3;stroke-miterlimit:10;}
	.st6{fill:#EDEBE1;stroke:#000000;stroke-width:3;stroke-miterlimit:10;}
	.st7{fill:#DBEFF3;stroke:#000000;stroke-width:3;stroke-miterlimit:10;}
	.st8{fill:#A8D48C;stroke:#000000;stroke-width:3;stroke-miterlimit:10;}
	.st9{fill:#C5D9F0;stroke:#000000;stroke-width:3;stroke-miterlimit:10;}
	.st10{fill:#FCF9CE;stroke:#000000;stroke-width:3;stroke-miterlimit:10;}
	.st11{fill:#ECF0DE;stroke:#000000;stroke-width:3;stroke-miterlimit:10;}
	.st12{fill:#DCE5F0;stroke:#000000;stroke-width:3;stroke-miterlimit:10;}
	.st13{fill:#D8E4BC;stroke:#000000;stroke-width:3;stroke-miterlimit:10;}
	.st14{fill:#D9D9D8;stroke:#000000;stroke-width:3;stroke-miterlimit:10;}
	.st15{fill:#F1DCDA;stroke:#000000;stroke-width:3;stroke-miterlimit:10;}
	.st16{font-family:'Montserrat-Medium';}
	.st17{font-size:20px;}
</style>
<rect x="89.58" y="107.84" className="st0" width="75.11" height="48.53"/>
<rect x="-4.01" y="9.83" transform="matrix(6.123234e-17 -1 1 6.123234e-17 -9.8195 126.5875)" className="st0" width="124.78" height="116.75"/>
<line className="st0" x1="27.8" y1="129.93" x2="27.8" y2="5.15"/>
<line className="st0" x1="-0.25" y1="66.09" x2="117.02" y2="66.09"/>
<line className="st0" x1="58.38" y1="129.27" x2="58.38" y2="5.81"/>
<line className="st0" x1="89.58" y1="129.93" x2="89.58" y2="5.15"/>
<rect x="1038.85" y="7.41" transform="matrix(6.123234e-17 -1 1 6.123234e-17 1033.9175 1157.6329)" className="st1" width="113.85" height="108.9"/>
<line className="st1" x1="1067.25" y1="118.18" x2="1067.25" y2="4.33"/>
<line className="st1" x1="1041.08" y1="65.71" x2="1150.47" y2="65.71"/>
<line className="st1" x1="1095.78" y1="117.58" x2="1095.78" y2="4.93"/>
<line className="st1" x1="1124.87" y1="118.18" x2="1124.87" y2="4.33"/>
<rect x="0.01" y="5.81" className="st1" width="2054.46" height="934.07"/>
<rect x="1.24" y="5.81" className="st1" width="2053.22" height="934.07"/>
<polygon className="st2" points="181.28,5.15 181.28,66.09 244.69,66.09 244.69,118.74 347.8,118.74 347.8,213.56 577.72,211.19 
	577.72,5.15 "/>
<rect x="577.72" y="5.15" className="st3" width="133.93" height="205.38"/>
<rect x="711.65" y="5.15" className="st4" width="148.74" height="205.38"/>
<rect x="860.39" y="5.15" className="st4" width="140.44" height="205.38"/>
<rect x="1193.58" y="5.15" className="st5" width="108.89" height="205.38"/>
<rect x="682.91" y="713.68" className="st6" width="177.48" height="226.2"/>
<rect x="527.8" y="713.68" className="st7" width="155.11" height="226.2"/>
<rect x="350.47" y="445.68" className="st8" width="226.2" height="190.69"/>
<rect x="577.72" y="445.68" className="st9" width="102.96" height="190.69"/>
<rect x="576.66" y="279.04" className="st2" width="104.03" height="166.65"/>
<rect x="680.69" y="279.04" className="st10" width="96.44" height="166.65"/>
<rect x="777.13" y="279.04" className="st11" width="107.56" height="166.65"/>
<rect x="884.69" y="279.04" className="st7" width="110.67" height="166.65"/>
<rect x="884.69" y="445.68" className="st7" width="110.67" height="190.69"/>
<rect x="995.35" y="279.04" className="st7" width="127.56" height="166.65"/>
<rect x="995.35" y="445.68" className="st5" width="127.56" height="190.69"/>
<rect x="680.69" y="445.68" className="st11" width="96.44" height="190.69"/>
<rect x="777.13" y="445.68" className="st12" width="107.56" height="190.69"/>
<rect x="350.47" y="279.04" className="st5" width="226.2" height="166.65"/>
<rect x="1657.58" y="713.68" className="st7" width="121.33" height="226.2"/>
<rect x="1525.13" y="713.68" className="st5" width="132.44" height="226.2"/>
<rect x="1067.25" y="713.68" className="st2" width="457.89" height="226.2"/>
<rect x="1457.45" y="-149.17" transform="matrix(-1.836970e-16 1 -1 -1.836970e-16 1586.2676 -1451.6383)" className="st11" width="123.01" height="432.97"/>
<rect x="1394.28" y="37.01" transform="matrix(-1.836970e-16 1 -1 -1.836970e-16 1604.8043 -1265.4598)" className="st7" width="81.71" height="265.33"/>
<rect x="1582.72" y="113.89" transform="matrix(-1.836970e-16 1 -1 -1.836970e-16 1793.2488 -1453.9043)" className="st11" width="81.71" height="111.56"/>
<rect x="1922.59" y="-3.06" transform="matrix(-1.836970e-16 1 -1 -1.836970e-16 2051.4048 -1918.2583)" className="st13" width="124.49" height="139.27"/>
<rect x="1711.61" y="96.56" transform="matrix(-1.836970e-16 1 -1 -1.836970e-16 1922.1377 -1582.7932)" className="st13" width="81.71" height="146.22"/>
<rect x="1830.78" y="123.36" transform="matrix(-1.836970e-16 1 -1 -1.836970e-16 2051.1543 -1701.9636)" className="st13" width="91.56" height="102.48"/>
<rect x="1763.82" y="-22.56" transform="matrix(-1.836970e-16 1 -1 -1.836970e-16 1892.6337 -1758.0044)" className="st13" width="123.01" height="179.76"/>
<rect x="1883.89" y="257.8" transform="matrix(-1.836970e-16 1 -1 -1.836970e-16 2312.2654 -1567.5192)" className="st12" width="112" height="229.15"/>
<rect x="1886.56" y="468.47" transform="matrix(-1.836970e-16 1 -1 -1.836970e-16 2522.9319 -1356.8525)" className="st14" width="106.67" height="229.15"/>
<rect x="1294.35" y="178.26" transform="matrix(-1.836970e-16 1 -1 -1.836970e-16 1930.7274 -1015.3146)" className="st13" width="357.33" height="558.89"/>
<rect x="1961.37" y="846.79" transform="matrix(-1.836970e-16 1 -1 -1.836970e-16 2901.2522 -1144.9982)" className="st1" width="123.51" height="62.68"/>
<rect x="1897.07" y="845.17" transform="matrix(-1.836970e-16 1 -1 -1.836970e-16 2836.9561 -1080.7019)" className="st1" width="123.51" height="65.91"/>
<rect x="1957.13" y="636.37" transform="matrix(-1 -1.224647e-16 1.224647e-16 -1 4011.5977 1315.4128)" className="st14" width="97.33" height="42.67"/>
<rect x="1889.23" y="364.47" transform="matrix(-1.836970e-16 1 -1 -1.836970e-16 2418.9321 -1460.8524)" className="st10" width="101.33" height="229.15"/>
<polygon className="st7" points="1000.84,5.15 1000.84,210.53 1193.58,210.53 1193.58,128.37 1065.13,128.82 1064.69,118.18 
	1041.32,118.78 1041.08,63.93 1016.69,63.93 1016.69,5.81 "/>
<polygon className="st15" points="1825.32,220.37 1825.32,316.37 2054.47,316.37 2054.47,128.82 1927.8,128.82 1927.8,220.37 "/>
<polygon className="st11" points="1778.91,713.68 1778.91,939.88 1925.87,939.88 1925.87,753.48 1848.24,754.35 1849.13,713.68 "/>
<polygon className="st15" points="117.02,939.88 117.02,844.37 219.8,844.37 219.8,753.71 271.8,753.71 271.8,713.68 527.8,713.68 
	527.8,939.88 "/>
<g>
	<rect x="0.01" y="841.75" className="st1" width="116.39" height="98.03"/>
	<line className="st1" x1="0.62" y1="865.09" x2="117.02" y2="865.09"/>
	<line className="st1" x1="60.18" y1="841.54" x2="60.18" y2="940"/>
	<line className="st1" x1="1.24" y1="890.77" x2="116.4" y2="890.77"/>
	<line className="st1" x1="0.62" y1="916.96" x2="117.02" y2="916.96"/>
</g>
<polygon className="st11" points="0.01,139.48 164.69,139.48 164.69,156.37 272.24,156.37 272.24,416.82 0.01,416.82 "/>
<polygon className="st12" points="0.01,416.82 272.24,416.82 272.24,683.93 218.47,683.93 218.47,713.68 140.24,713.68 139.8,726.6 
	118.91,726.6 118.91,739.93 0.01,739.93 "/>
<rect x="858.98" y="820.37" className="st0" width="51.41" height="119.51"/>
<rect x="0.01" y="739.93" className="st1" width="59.75" height="59.75"/>
<rect x="910.39" y="820.37" className="st0" width="51.41" height="119.51"/>
<rect x="963.12" y="797.71" className="st0" width="104.13" height="142.17"/>
<polygon className="st1" points="59.76,799.68 140.24,801.71 139.8,726.6 118.91,726.6 118.91,739.93 59.76,739.93 "/>
<rect x="140.24" y="713.68" className="st0" width="27.11" height="43.13"/>
<text transform="matrix(1 0 0 1 426.021 80.8175)" className="st16 st17">1</text>
<text transform="matrix(1 0 0 1 644.6876 80.8175)" className="st16 st17">1</text>
<text transform="matrix(1 0 0 1 786.021 80.8175)" className="st16 st17">1</text>
<text transform="matrix(1 0 0 1 922.4653 80.8175)" className="st16 st17">1</text>
<text transform="matrix(1 0 0 1 1059.1318 179.2993)" className="st16 st17">1</text>
<text transform="matrix(1 0 0 1 1242.4656 179.2994)" className="st16 st17">1</text>
<text transform="matrix(1 0 0 1 1443.1458 179.2997)" className="st16 st17">1</text>
<text transform="matrix(1 0 0 1 1443.3059 80.8175)" className="st16 st17">1</text>
<text transform="matrix(1 0 0 1 1623.5767 179.2994)" className="st16 st17">1</text>
<text transform="matrix(1 0 0 1 1747.7986 179.2999)" className="st16 st17">1</text>
<text transform="matrix(1 0 0 1 1876.5591 179.3001)" className="st16 st17">1</text>
<text transform="matrix(1 0 0 1 1821.1392 79.5742)" className="st16 st17">1</text>
<text transform="matrix(1 0 0 1 1378.4514 437.5763)" className="st16 st17">1</text>
<text transform="matrix(1 0 0 1 1950.2856 479.0396)" className="st16 st17">1</text>
<text transform="matrix(1 0 0 1 1950.6055 583.04)" className="st16 st17">1</text>
<text transform="matrix(1 0 0 1 2005.7991 667.4844)" className="st16 st17">1</text>
<text transform="matrix(1 0 0 1 1852.3918 878.1267)" className="st16 st17">1</text>
<text transform="matrix(1 0 0 1 1713.7251 878.1267)" className="st16 st17">1</text>
<text transform="matrix(1 0 0 1 1581.2805 878.1274)" className="st16 st17">1</text>
<text transform="matrix(1 0 0 1 1292.3916 878.1274)" className="st16 st17">1</text>
<text transform="matrix(1 0 0 1 1055.0582 569.0401)" className="st16 st17">1</text>
<text transform="matrix(1 0 0 1 936.0951 569.0401)" className="st16 st17">1</text>
<text transform="matrix(1 0 0 1 826.7617 569.0397)" className="st16 st17">1</text>
<text transform="matrix(1 0 0 1 724.063 569.0406)" className="st16 st17">1</text>
<text transform="matrix(1 0 0 1 724.223 405.0775)" className="st16 st17">1</text>
<text transform="matrix(1 0 0 1 830.9097 405.0775)" className="st16 st17">1</text>
<text transform="matrix(1 0 0 1 936.2551 405.0775)" className="st16 st17">1</text>
<text transform="matrix(1 0 0 1 1059.1321 405.0775)" className="st16 st17">1</text>
<text transform="matrix(1 0 0 1 629.2063 405.0776)" className="st16 st17">1</text>
<text transform="matrix(1 0 0 1 629.2063 569.0395)" className="st16 st17">1</text>
<text transform="matrix(1 0 0 1 439.4906 569.0395)" className="st16 st17">1</text>
<text transform="matrix(1 0 0 1 127.1318 578.3732)" className="st16 st17">1</text>
<text transform="matrix(1 0 0 1 132.4315 321.7061)" className="st16 st17">1</text>
<text transform="matrix(1 0 0 1 379.5023 868.7938)" className="st16 st17">1</text>
<text transform="matrix(1 0 0 1 596.9722 868.7938)" className="st16 st17">1</text>
<text transform="matrix(1 0 0 1 771.6505 868.7938)" className="st16 st17">1</text>
<text transform="matrix(1 0 0 1 439.6505 405.0776)" className="st16 st17">1</text>
<text transform="matrix(1 0 0 1 1950.4456 372.3734)" className="st16 st17">1</text>
<text transform="matrix(1 0 0 1 1955.585 255.0397)" className="st16 st17">1</text>
<text transform="matrix(1 0 0 1 1989.3628 80.817)" className="st16 st17">1</text>
</svg>
