<?xml version="1.0" encoding="utf-8"?>
<!-- Generator: Adobe Illustrator 25.2.3, SVG Export Plug-In . SVG Version: 6.00 Build 0)  -->
<svg version="1.1" id="Layer_1" xmlns="http://www.w3.org/2000/svg" xmlns:xlink="http://www.w3.org/1999/xlink" x="0px" y="0px"
	 viewBox="0 0 9475.94 1070.22" style="enable-background:new 0 0 9475.94 1070.22;" xml:space="preserve">
<style type="text/css">
	.st0{fill:none;stroke:#000000;stroke-width:3;stroke-miterlimit:10;}
	.st1{fill:#E6B8B7;stroke:#000000;stroke-width:3;stroke-miterlimit:10;}
	.st2{fill:#EFCEE2;stroke:#000000;stroke-width:3;stroke-miterlimit:10;}
	.st3{fill:#ECF0DE;stroke:#000000;stroke-width:3;stroke-miterlimit:10;}
	.st4{fill:#F1DCDA;stroke:#000000;stroke-width:3;stroke-miterlimit:10;}
	.st5{fill:#FCF9CE;stroke:#000000;stroke-width:3;stroke-miterlimit:10;}
	.st6{fill:#DCE5F0;stroke:#000000;stroke-width:3;stroke-miterlimit:10;}
	.st7{fill:#D8E4BC;stroke:#000000;stroke-width:3;stroke-miterlimit:10;}
	.st8{fill:#E4DEEB;stroke:#000000;stroke-width:3;stroke-miterlimit:10;}
	.st9{fill:#EDEBE1;stroke:#000000;stroke-width:3;stroke-miterlimit:10;}
	.st10{fill:#FFF2EB;stroke:#000000;stroke-width:3;stroke-miterlimit:10;}
	.st11{fill:#FDE8D8;stroke:#000000;stroke-width:3;stroke-miterlimit:10;}
	.st12{fill:#DBEFF3;stroke:#000000;stroke-width:3;stroke-miterlimit:10;}
	.st13{fill:#C5BD97;stroke:#000000;stroke-width:3;stroke-miterlimit:10;}
	.st14{fill:#FFFFFF;stroke:#000000;stroke-width:3;stroke-miterlimit:10;}
	.st15{font-family:'Montserrat-Regular';}
	.st16{font-size:46.882px;}
	.st17{font-size:23px;}
</style>
<line className="st0" x1="7030.05" y1="612.51" x2="7029.5" y2="612.51"/>
<rect x="6133.34" y="926.26" className="st1" width="186.66" height="143.96"/>
<rect y="0" className="st0" width="9383.11" height="1070.22"/>
<rect className="st2" width="221.33" height="442.67"/>
<rect x="221.33" className="st2" width="221.33" height="442.67"/>
<rect x="442.67" y="0" className="st3" width="1176" height="442.67"/>
<rect x="432" y="605.33" className="st4" width="1186.67" height="464.89"/>
<rect x="210.67" y="605.33" className="st5" width="221.33" height="464.89"/>
<rect x="0" y="837.78" className="st0" width="210.67" height="232.44"/>
<rect y="616" className="st0" width="105.33" height="130.67"/>
<rect x="1618.67" y="605.33" className="st6" width="322.67" height="464.89"/>
<rect x="1941.33" y="605.33" className="st7" width="581.33" height="464.89"/>
<rect x="2738.67" y="605.33" className="st8" width="642.67" height="464.89"/>
<polygon className="st9" points="3381.34,0 3381.34,305.33 3257.34,305.33 3257.34,442.67 2738.67,442.67 2738.67,0 "/>
<rect x="3381.33" y="605.33" className="st3" width="321.33" height="464.89"/>
<rect x="3702.67" y="605.33" className="st10" width="294.67" height="464.89"/>
<rect x="3997.33" y="605.33" className="st11" width="901.33" height="464.89"/>
<rect x="4898.67" y="605.33" className="st8" width="210.67" height="464.89"/>
<polygon className="st0" points="6203.56,605.33 6203.56,700.44 6133.34,700.44 6133.34,1070.22 5109.34,1070.22 5109.34,605.33 "/>
<rect x="1618.67" y="0" className="st8" width="904" height="442.67"/>
<rect x="2522.67" y="0" className="st0" width="216" height="1070.22"/>
<polygon className="st6" points="3708,0 3708,442.67 3257.34,442.67 3257.34,305.33 3381.34,305.33 3381.34,0 "/>
<rect x="3708" className="st11" width="970.67" height="442.67"/>
<rect x="4678.67" className="st10" width="213.33" height="442.67"/>
<rect x="4892" className="st12" width="645.33" height="442.67"/>
<rect x="5537.33" className="st6" width="666.22" height="442.67"/>
<rect x="6529.33" className="st8" width="318.67" height="442.67"/>
<rect x="6848" className="st11" width="1072.89" height="442.67"/>
<polygon className="st3" points="9053.34,304 9053.34,442.67 7920.89,442.67 7920.89,0 8969.78,0 8969.78,304 "/>
<polygon className="st3" points="6203.56,605.33 6203.56,700.44 6133.34,700.44 6133.34,1070.22 5109.34,1070.22 5109.34,605.33 "/>
<polygon className="st1" points="9383.11,0 9383.11,442.67 9049.6,442.67 9049.6,303.11 8961.29,303.11 8961.29,0 "/>
<polygon className="st3" points="9050.67,613.33 9050.67,744.77 8969.78,744.77 8969.78,1070.22 7920.89,1070.22 7920.89,613.33 "/>
<rect x="7637.33" y="613.33" className="st11" width="283.55" height="456.89"/>
<rect x="6848" y="613.33" className="st6" width="789.33" height="456.89"/>
<rect x="6529.33" y="613.33" className="st13" width="318.67" height="456.89"/>
<rect x="6529.33" y="1021.33" className="st0" width="110.67" height="48.89"/>
<rect x="9383.11" y="442.67" className="st0" width="101.33" height="216"/>
<polygon className="st0" points="6529.34,0 6529.34,1070.22 6133.34,1070.22 6133.34,700.44 6203.56,700.44 6203.56,0 "/>
<rect x="9165.04" y="888" className="st0" width="218.07" height="133.33"/>
<line className="st0" x1="9274.07" y1="888" x2="9274.07" y2="1021.33"/>
<line className="st0" x1="9165.04" y1="926.81" x2="9383.11" y2="926.81"/>
<line className="st0" x1="9165.04" y1="976.59" x2="9386.07" y2="976.59"/>
<rect x="2522.67" y="883.56" className="st0" width="215.66" height="133.33"/>
<line className="st0" x1="2641.05" y1="883.56" x2="2641.05" y2="1016.89"/>
<line className="st0" x1="2524.01" y1="922.37" x2="2738.33" y2="922.37"/>
<line className="st0" x1="2524.01" y1="972.15" x2="2738.67" y2="972.15"/>
<rect x="6311.26" y="887.45" className="st14" width="218.07" height="133.33"/>
<line className="st14" x1="6417.33" y1="887.45" x2="6417.33" y2="1020.78"/>
<line className="st14" x1="6311.26" y1="926.26" x2="6529.34" y2="926.26"/>
<line className="st14" x1="6308.3" y1="976.04" x2="6529.34" y2="976.04"/>
<rect x="6417.33" y="1020.78" className="st14" width="112" height="49.44"/>
<text transform="matrix(1 0 0 1 105.3333 270.3143)" className="st15 st16">1</text>
<text transform="matrix(1 0 0 1 331.9999 270.3143)" className="st15 st16">1</text>
<text transform="matrix(1 0 0 1 1025.3334 270.3141)" className="st15 st16">1</text>
<text transform="matrix(1 0 0 1 2052.5645 270.3146)" className="st15 st16">1</text>
<text transform="matrix(1 0 0 1 3000.8892 270.3141)" className="st15 st16">1</text>
<text transform="matrix(1 0 0 1 3542 270.3141)" className="st15 st16">1</text>
<text transform="matrix(1 0 0 1 4193.3315 270.3145)" className="st15 st16">1</text>
<text transform="matrix(1 0 0 1 4758.3428 270.3146)" className="st15 st16">1</text>
<text transform="matrix(1 0 0 1 5230.2222 270.3141)" className="st15 st16">1</text>
<text transform="matrix(1 0 0 1 5870.4458 270.3144)" className="st15 st16">1</text>
<text transform="matrix(1 0 0 1 6669.7998 270.3139)" className="st15 st16">1</text>
<text transform="matrix(1 0 0 1 7384.4443 270.3138)" className="st15 st16">1</text>
<text transform="matrix(1 0 0 1 8416 270.3135)" className="st15 st16">1</text>
<text transform="matrix(1 0 0 1 9201.7783 270.3146)" className="st15 st16">1</text>
<text transform="matrix(1 0 0 1 8416.4209 888.0002)" className="st15 st16">1</text>
<text transform="matrix(1 0 0 1 7752.1201 887.4472)" className="st15 st16">1</text>
<text transform="matrix(1 0 0 1 7210.667 887.447)" className="st15 st16">1</text>
<text transform="matrix(1 0 0 1 6656 888.0003)" className="st15 st16">1</text>
<text transform="matrix(1 0 0 1 6203.5571 1020.7802)" className="st15 st16">1</text>
<text transform="matrix(1 0 0 1 5599.1343 904.0209)" className="st15 st16">1</text>
<text transform="matrix(1 0 0 1 5004.0005 888.0004)" className="st15 st16">1</text>
<text transform="matrix(1 0 0 1 4447.9995 888.0004)" className="st15 st16">1</text>
<text transform="matrix(1 0 0 1 3850 904.0208)" className="st15 st16">1</text>
<text transform="matrix(1 0 0 1 3542 904.0206)" className="st15 st16">1</text>
<text transform="matrix(1 0 0 1 3104 888.001)" className="st15 st16">1</text>
<text transform="matrix(1 0 0 1 2169.8979 871.2036)" className="st15 st16">1</text>
<text transform="matrix(1 0 0 1 1780 888.0009)" className="st15 st16">1</text>
<text transform="matrix(1 0 0 1 988.4446 871.2031)" className="st15 st16">1</text>
<text transform="matrix(1 0 0 1 305.3558 871.2029)" className="st15 st16">1</text>
<text transform="matrix(1 0 0 1 6584.6675 1045.7765)" className="st15 st17">1</text>
</svg>
