<?xml version="1.0" encoding="utf-8"?>
<!-- Generator: Adobe Illustrator 25.2.3, SVG Export Plug-In . SVG Version: 6.00 Build 0)  -->
<svg version="1.1" id="Layer_1" xmlns="http://www.w3.org/2000/svg" xmlns:xlink="http://www.w3.org/1999/xlink" x="0px" y="0px"
	 viewBox="0 0 4242.83 812.22" style="enable-background:new 0 0 4242.83 812.22;" xml:space="preserve">
<style type="text/css">
	.st0{fill:#C5D79A;stroke:#000000;stroke-width:3;stroke-miterlimit:10;}
	.st1{fill:#ECF0DE;stroke:#000000;stroke-width:3;stroke-miterlimit:10;}
	.st2{fill:#CCBFD9;stroke:#000000;stroke-width:3;stroke-miterlimit:10;}
	.st3{fill:#D8E4BC;stroke:#000000;stroke-width:3;stroke-miterlimit:10;}
	.st4{fill:#C5D9F0;stroke:#000000;stroke-width:3;stroke-miterlimit:10;}
	.st5{fill:#DBEFF3;stroke:#000000;stroke-width:3;stroke-miterlimit:10;}
	.st6{fill:#F1DCDA;stroke:#000000;stroke-width:3;stroke-miterlimit:10;}
	.st7{fill:#FDE8D8;stroke:#000000;stroke-width:3;stroke-miterlimit:10;}
	.st8{fill:#FFF2EB;stroke:#000000;stroke-width:3;stroke-miterlimit:10;}
	.st9{stroke:#000000;stroke-width:3;stroke-miterlimit:10;}
	.st10{font-family:'Roboto-Regular';}
	.st11{font-size:16.2903px;}
	.st12{font-size:17.9571px;}
	.st13{fill:none;stroke:#000000;stroke-width:3;stroke-miterlimit:10;}
	.st14{fill:none;stroke:#000000;stroke-width:2;stroke-miterlimit:10;}
	.st15{fill:none;stroke:#000000;stroke-width:3;stroke-miterlimit:10;stroke-dasharray:4,4,4,4,4,4;}
	.st16{fill:#FFFFFF;stroke:#000000;stroke-width:3;stroke-miterlimit:10;}
	.st17{font-family:'Montserrat-Regular';}
	.st18{font-size:16px;}
</style>
<polygon className="st0" points="1362.47,404.26 1362.47,450.37 1317.51,450.37 1317.51,638.82 1010.54,638.82 1010.54,380.75 
	1052.03,380.59 1052.03,404.26 1211.58,403.27 "/>
<polygon className="st1" points="4242.66,70.51 4242.45,278.51 4242.11,603.02 4242.08,603.02 4242.08,628.35 4132.23,628.35 
	3926.66,628.76 2884.88,628.76 2884.88,626.93 2884.86,603.43 2884.78,512.73 2884.59,302.51 2884.43,118.89 2884.38,67.84 
	2884.89,67.84 3437.33,68.93 "/>
<polygon className="st2" points="1208,312 1208.44,403.12 1048.89,404.11 1048.89,380.44 1007.4,380.6 816.66,381.33 817.36,334.23 
	276.44,333.88 274.89,68 1257.22,68 1257.22,147 1359.22,147.33 1359.33,310.67 "/>
<polygon className="st3" points="274.9,406.07 0,408.14 0,68.14 274.9,67.99 "/>
<path className="st4" d="M436.44,470.71"/>
<polyline className="st4" points="436.44,334.49 276.44,333.88 275.56,404.11 0,407.11 0,639.99 297.78,639.11 436.44,639.11 "/>
<polygon className="st5" points="1634.96,68.44 1634.96,310.81 1359.33,310.67 1359.22,147.33 1257.22,147 1257.22,68 "/>
<polygon className="st1" points="1634.96,450.22 1634.96,639.11 1423.53,638.82 1421.77,450.22 "/>
<rect x="1634.96" y="404.14" className="st6" width="605.63" height="234.52"/>
<polygon className="st0" points="1633.19,67.84 2240.59,67.84 2240.59,310.21 2236.49,310.21 1633.19,310.21 "/>
<polyline className="st4" points="2451.56,68.72 2739.56,68.72 2739.56,309.33 2451.56,309.33 2451.56,287.39 "/>
<polygon className="st7" points="4242.83,68.41 4242.83,283.52 3559.27,283.52 3557.5,495.08 3329.05,495.08 3329.05,238.19 
	3230.39,239.97 3231.27,309.3 2884.55,307.52 2884.6,67.16 2995.72,67.26 "/>
<polygon className="st7" points="3926.66,475.11 3926.66,638.25 2884.89,638.25 2884.88,636.42 2884.78,612.92 2884.38,522.22 
	2969.33,522.22 2969.33,403.12 3048.89,403.79 3048.96,403.79 3114.33,404.34 3155.55,404.69 3232,405.33 3232,567.55 3558.22,568 
	3558.22,543.55 3633.77,543.11 3633.77,336.44 3712.44,336.44 3712.44,476.44 "/>
<polygon className="st8" points="4132.23,453.33 4132.23,637.84 3926.66,638.25 3926.66,453.33 "/>
<rect x="3712.44" y="336.44" className="st8" width="105.33" height="92.89"/>
<rect x="3940.44" y="336.44" className="st8" width="191.79" height="46.44"/>
<polyline className="st5" points="436.44,334.62 817.36,334.36 816.44,638.8 436.44,639.24 "/>
<rect x="1314.37" y="450.22" className="st5" width="108.28" height="188.6"/>
<polygon className="st1" points="2240.59,404.5 2556,405.95 2556,473.77 2611.11,473.77 2611.11,637.84 2240.59,637.22 "/>
<text transform="matrix(1 0 0 1 2297.6802 260.7223)" className="st9 st10 st11">Otaq 3</text>
<text transform="matrix(1 0 0 1 2409.2546 273.1649)" className="st9 st10 st11">Seyf</text>
<text transform="matrix(0.9171 0 0 1 2249.9023 143.2579)" className="st9 st10 st12">Abbasov Şahin</text>
<path className="st13" d="M410.67,639.99"/>
<path className="st14" d="M297.89,812.22"/>
<path className="st13" d="M544,729.77"/>
<rect x="816.44" y="543.55" className="st13" width="104.89" height="95.11"/>
<line className="st13" x1="816.44" y1="567.11" x2="921.33" y2="567.11"/>
<line className="st13" x1="870.67" y1="543.55" x2="870.67" y2="639.08"/>
<line className="st13" x1="817.56" y1="589.77" x2="921.33" y2="589.77"/>
<line className="st13" x1="817" y1="612.88" x2="921.89" y2="612.88"/>
<polyline className="st13" points="409.11,639.11 409.11,812.22 299.56,812.22 299.56,639.11 "/>
<rect x="816.44" y="451.55" className="st13" width="54.22" height="22.22"/>
<line className="st13" x1="921.33" y1="543.55" x2="921.33" y2="472.88"/>
<polyline className="st13" points="544,728 921.89,728 921.33,638.67 1007.4,638.67 "/>
<path className="st15" d="M1281.33,407.11"/>
<line className="st13" x1="1425.33" y1="544.66" x2="1634.96" y2="544.66"/>
<line className="st15" x1="2610.67" y1="439.33" x2="2611.11" y2="637.84"/>
<line className="st15" x1="3230.22" y1="499.55" x2="3102.22" y2="499.55"/>
<rect x="3098.67" y="404.33" className="st8" width="133.33" height="99.36"/>
<rect x="1421.33" y="67.99" className="st16" width="37" height="27.11"/>
<rect x="1593.78" y="67.99" className="st16" width="39.67" height="23.56"/>
<rect x="1603.28" y="235.57" transform="matrix(1.206268e-07 1 -1 1.206268e-07 1869.0514 -1384.6177)" className="st16" width="47.11" height="13.3"/>
<polygon className="st4" points="2451.55,69.6 2451.55,288.27 2347.11,288.27 2347.11,310.21 2240.89,310.21 2240.89,67.84 "/>
<polygon className="st13" points="2240.59,404.5 2737.48,404.33 2737.48,637.22 2240.59,637.22 "/>
<line className="st15" x1="2648" y1="428.53" x2="2648" y2="473.68"/>
<line className="st13" x1="2294.89" y1="407.88" x2="2294.89" y2="546.07"/>
<line className="st15" x1="2683.11" y1="473.77" x2="2556" y2="473.77"/>
<line className="st15" x1="2648" y1="428.53" x2="2553.78" y2="428.53"/>
<line className="st13" x1="2294.89" y1="546.07" x2="2242.67" y2="546.07"/>
<rect x="2682.5" y="451.11" className="st13" width="55.56" height="22.67"/>
<line className="st13" x1="1421.77" y1="639.11" x2="1421.77" y2="638.82"/>
<rect x="2789.75" y="544.77" className="st13" width="94.64" height="93.48"/>
<line className="st13" x1="2789.75" y1="567.92" x2="2884.39" y2="567.92"/>
<line className="st13" x1="2838.67" y1="544.77" x2="2838.67" y2="638.66"/>
<rect x="4133.4" y="336.44" className="st16" width="108.68" height="301.4"/>
<line className="st13" x1="2790.75" y1="590.2" x2="2884.39" y2="590.2"/>
<line className="st13" x1="2790.25" y1="612.91" x2="2884.89" y2="612.91"/>
<rect x="4132.23" y="544.36" className="st13" width="109.85" height="93.48"/>
<line className="st13" x1="4132.24" y1="567.51" x2="4242.08" y2="567.51"/>
<line className="st13" x1="4184" y1="544.36" x2="4184" y2="638.25"/>
<line className="st13" x1="4133.4" y1="589.79" x2="4242.08" y2="589.79"/>
<line className="st13" x1="4242.66" y1="612.51" x2="4242.11" y2="612.51"/>
<polyline className="st13" points="4242.08,612.51 4184,612.51 4133.4,612.51 4132.81,612.51 "/>
<rect x="3048.89" y="403.78" className="st8" width="106.67" height="47.32"/>
<path className="st15" d="M1325.61,448.9"/>
<line className="st13" x1="436.44" y1="334.49" x2="436.44" y2="639.11"/>
<polyline className="st16" points="2840.15,638.63 3926.97,638.22 4132.32,637.81 4242.05,637.81 4242.05,612.48 4242.08,612.48 
	4242.05,644.92 4242.05,735.08 2838.67,735.08 2838.67,638.63 "/>
<polyline className="st13" points="2737.48,637.22 2737.48,727.04 1010.54,727.04 1010.54,637.71 1010.54,379.64 "/>
<rect x="2739.56" className="st13" width="145.34" height="638.25"/>
<text transform="matrix(1 0 0 1 112.0239 236.0506)" className="st17 st18">1</text>
<text transform="matrix(1 0 0 1 801.5013 238.0686)" className="st17 st18">1</text>
<text transform="matrix(1 0 0 1 638.717 486.936)" className="st17 st18">1</text>
<text transform="matrix(1 0 0 1 1172.1682 543.55)" className="st17 st18">1</text>
<text transform="matrix(1 0 0 1 1368.5116 553.337)" className="st17 st18">1</text>
<text transform="matrix(1 0 0 1 1530.1479 508.2167)" className="st17 st18">1</text>
<text transform="matrix(1 0 0 1 1482.2054 218.6613)" className="st17 st18">1</text>
<text transform="matrix(1 0 0 1 1942.8345 189.4008)" className="st17 st18">1</text>
<text transform="matrix(1 0 0 1 2344.4438 184.49)" className="st17 st18">1</text>
<text transform="matrix(1 0 0 1 2586.2048 184.49)" className="st17 st18">1</text>
<text transform="matrix(1 0 0 1 3470.2051 189.0257)" className="st17 st18">1</text>
<text transform="matrix(1 0 0 1 3432.167 533.8235)" className="st17 st18">1</text>
<text transform="matrix(1 0 0 1 3098.6667 589.7891)" className="st17 st18">1</text>
<text transform="matrix(1 0 0 1 3098.6665 429.3279)" className="st17 st18">1</text>
<text transform="matrix(1 0 0 1 3193.5017 473.7725)" className="st17 st18">1</text>
<text transform="matrix(1 0 0 1 3765.1108 379.6368)" className="st17 st18">1</text>
<text transform="matrix(1 0 0 1 4036.3398 368.4367)" className="st17 st18">1</text>
<text transform="matrix(1 0 0 1 4023.8955 553.3371)" className="st17 st18">1</text>
<text transform="matrix(1 0 0 1 2425.8516 546.0688)" className="st17 st18">1</text>
<text transform="matrix(1 0 0 1 1946.7705 521.4018)" className="st17 st18">1</text>
<text transform="matrix(1 0 0 1 2268.7778 487.3405)" className="st17 st18">1</text>
<text transform="matrix(1 0 0 1 1530.1482 591.3148)" className="st17 st18">1</text>
<text transform="matrix(1 0 0 1 250.2056 533.8234)" className="st17 st18">1</text>
</svg>
