<?xml version="1.0" encoding="utf-8"?>
<!-- Generator: Adobe Illustrator 25.2.3, SVG Export Plug-In . SVG Version: 6.00 Build 0)  -->
<svg version="1.1" id="Layer_1" xmlns="http://www.w3.org/2000/svg" xmlns:xlink="http://www.w3.org/1999/xlink" x="0px" y="0px"
	 viewBox="0 0 9364.64 1006.56" style="enable-background:new 0 0 9364.64 1006.56;" xml:space="preserve">
<style type="text/css">
	.st0{fill:#EFCEE2;stroke:#000000;stroke-width:3;stroke-miterlimit:10;}
	.st1{fill:#DCE5F0;stroke:#000000;stroke-width:3;stroke-miterlimit:10;}
	.st2{fill:#F1DCDA;stroke:#000000;stroke-width:3;stroke-miterlimit:10;}
	.st3{fill:#ECF0DE;stroke:#000000;stroke-width:3;stroke-miterlimit:10;}
	.st4{fill:#FCD5B4;stroke:#000000;stroke-width:3;stroke-miterlimit:10;}
	.st5{fill:#E6B8B7;stroke:#000000;stroke-width:3;stroke-miterlimit:10;}
	.st6{fill:none;stroke:#000000;stroke-width:3;stroke-miterlimit:10;}
	.st7{fill:#EDEBE1;stroke:#000000;stroke-width:3;stroke-miterlimit:10;}
	.st8{fill:#E4DEEB;stroke:#000000;stroke-width:3;stroke-miterlimit:10;}
	.st9{fill:#C5D79A;stroke:#000000;stroke-width:3;stroke-miterlimit:10;}
	.st10{fill:#FDE8D8;stroke:#000000;stroke-width:3;stroke-miterlimit:10;}
	.st11{fill:#D8E4BC;stroke:#000000;stroke-width:3;stroke-miterlimit:10;}
	.st12{fill:#DBEFF3;stroke:#000000;stroke-width:3;stroke-miterlimit:10;}
	.st13{fill:#B7DEE8;stroke:#000000;stroke-width:3;stroke-miterlimit:10;}
	.st14{fill:#FFFFFF;stroke:#000000;stroke-width:3;stroke-miterlimit:10;}
	.st15{fill:#C5D9F0;stroke:#000000;stroke-width:3;stroke-miterlimit:10;}
	.st16{font-family:'Montserrat-Regular';}
	.st17{font-size:45px;}
</style>
<rect x="10.31" y="3.43" className="st0" width="465.33" height="405.33"/>
<rect x="475.64" y="3.43" className="st1" width="313.33" height="405.33"/>
<rect x="788.97" y="3.43" className="st2" width="790.67" height="405.33"/>
<rect x="1579.64" y="3.43" className="st3" width="840" height="405.33"/>
<rect x="1579.64" y="572.1" className="st4" width="840" height="442.96"/>
<rect x="788.97" y="572.1" className="st1" width="790.67" height="442.96"/>
<rect x="475.64" y="572.1" className="st5" width="313.33" height="442.96"/>
<rect x="226.31" y="708.1" className="st3" width="249.33" height="306.96"/>
<rect x="226.31" y="884.1" className="st6" width="249.33" height="130.96"/>
<rect x="226.31" y="794.77" className="st6" width="117.33" height="89.33"/>
<rect x="2419.64" y="828.99" className="st6" width="209.33" height="186.07"/>
<line className="st6" x1="2419.64" y1="876.99" x2="2628.97" y2="876.99"/>
<line className="st6" x1="2419.64" y1="923.21" x2="2628.97" y2="923.21"/>
<line className="st6" x1="2419.64" y1="967.65" x2="2628.97" y2="967.65"/>
<line className="st6" x1="2522.31" y1="828.99" x2="2522.31" y2="1013.48"/>
<rect x="2420.02" y="3.43" className="st6" width="209.33" height="1011.63"/>
<rect x="2629.36" y="3.43" className="st7" width="195.17" height="405.33"/>
<rect x="2824.53" y="3.43" className="st1" width="845.78" height="405.33"/>
<rect x="2628.97" y="572.1" className="st8" width="1041.33" height="442.96"/>
<rect x="3670.31" y="572.1" className="st9" width="1242.67" height="442.96"/>
<polygon className="st3" points="6184.98,572.1 6184.98,660.95 6112.98,660.95 6112.98,1015.06 4912.98,1015.06 4912.98,572.1 "/>
<rect x="3670.31" y="3.43" className="st10" width="940" height="405.33"/>
<rect x="4610.31" y="3.43" className="st3" width="302.67" height="405.33"/>
<rect x="4912.97" y="3.43" className="st1" width="314.67" height="405.33"/>
<rect x="6499.2" y="3.43" className="st2" width="287.11" height="409.55"/>
<rect x="6786.31" y="3.43" className="st11" width="349.33" height="409.55"/>
<rect x="7135.64" y="3.43" className="st12" width="390.22" height="409.55"/>
<rect x="7525.86" y="3.43" className="st12" width="337.78" height="409.55"/>
<rect x="7863.64" y="3.43" className="st2" width="1035.56" height="409.55"/>
<rect x="8899.2" y="3.43" className="st13" width="390.78" height="409.55"/>
<rect x="8216.53" y="574.77" className="st3" width="682.67" height="440.3"/>
<rect x="7868.08" y="574.77" className="st5" width="348.44" height="440.3"/>
<rect x="7528.53" y="574.77" className="st9" width="340.44" height="440.3"/>
<rect x="7133.57" y="574.77" className="st4" width="394.95" height="440.3"/>
<rect x="6786.31" y="574.77" className="st4" width="349.33" height="440.3"/>
<rect x="6499.2" y="574.62" className="st8" width="287.11" height="440.3"/>
<rect x="5227.64" y="3.43" className="st5" width="572" height="405.33"/>
<rect x="5799.64" y="3.43" className="st1" width="385.33" height="405.33"/>
<rect x="2735.81" y="278.38" className="st14" width="89.27" height="89.27"/>
<rect x="2732.97" y="3.43" className="st14" width="91.56" height="45.78"/>
<rect x="10.31" y="839.43" className="st6" width="216" height="175.63"/>
<line className="st6" x1="10.31" y1="884.17" x2="226.31" y2="884.17"/>
<line className="st6" x1="10.31" y1="927.25" x2="226.31" y2="927.25"/>
<line className="st6" x1="10.31" y1="971.47" x2="226.31" y2="971.47"/>
<line className="st6" x1="62.48" y1="482.88" x2="62.48" y2="660.88"/>
<rect x="2732.97" y="572.1" className="st14" width="91.56" height="91.56"/>
<rect x="2731.83" y="971.65" className="st14" width="91.56" height="43.41"/>
<rect x="2628.97" y="572.1" className="st6" width="289.33" height="442.96"/>
<rect x="3670.31" y="3.43" className="st10" width="269.33" height="405.33"/>
<polygon className="st6" points="6499.2,3.44 6499.2,1014.91 6112.98,1014.91 6112.98,659.8 6184.98,659.8 6184.98,3.44 "/>
<rect x="6289.86" y="836.1" className="st6" width="209.33" height="178.96"/>
<line className="st6" x1="6289.86" y1="881.68" x2="6499.2" y2="881.68"/>
<line className="st6" x1="6289.86" y1="925.58" x2="6499.2" y2="925.58"/>
<line className="st6" x1="6289.86" y1="967.79" x2="6499.2" y2="967.79"/>
<line className="st6" x1="6392.53" y1="836.1" x2="6392.53" y2="1015.06"/>
<rect x="9080.64" y="833.43" className="st6" width="209.33" height="181.63"/>
<line className="st6" x1="9080.64" y1="879.7" x2="9289.97" y2="879.7"/>
<line className="st6" x1="9080.64" y1="924.25" x2="9289.97" y2="924.25"/>
<line className="st6" x1="9080.64" y1="967.08" x2="9289.97" y2="967.08"/>
<line className="st6" x1="9183.3" y1="833.43" x2="9183.3" y2="1015.06"/>
<rect x="8899.2" y="574.77" className="st6" width="79.11" height="174.67"/>
<rect x="8899.2" y="750.6" className="st6" width="79.11" height="126.26"/>
<rect x="8899.2" y="876.86" className="st6" width="79.11" height="87.39"/>
<rect x="6112.98" y="661.43" className="st8" width="72" height="133.33"/>
<rect x="6112.98" y="794.91" className="st8" width="72" height="86.77"/>
<rect x="6112.98" y="889.43" className="st15" width="176.89" height="125.63"/>
<rect x="10.31" y="3.43" className="st6" width="9279.66" height="1011.63"/>
<rect x="9289.97" y="412.99" className="st6" width="74.67" height="202.67"/>
<text transform="matrix(1 0 0 1 242.9729 248.981)" className="st16 st17">1</text>
<text transform="matrix(1 0 0 1 606.2223 248.981)" className="st16 st17">1</text>
<text transform="matrix(1 0 0 1 1184.3064 248.981)" className="st16 st17">1</text>
<text transform="matrix(1 0 0 1 1981.6398 248.981)" className="st16 st17">1</text>
<text transform="matrix(1 0 0 1 2700.9519 192.2677)" className="st16 st17">1</text>
<text transform="matrix(1 0 0 1 2762.2854 828.988)" className="st16 st17">1</text>
<text transform="matrix(1 0 0 1 3247.4172 828.9881)" className="st16 st17">1</text>
<text transform="matrix(1 0 0 1 3258.4868 217.4812)" className="st16 st17">1</text>
<text transform="matrix(1 0 0 1 4172.9521 783.6314)" className="st16 st17">1</text>
<text transform="matrix(1 0 0 1 5548.9766 783.6314)" className="st16 st17">1</text>
<text transform="matrix(1 0 0 1 4719.6431 217.4812)" className="st16 st17">1</text>
<text transform="matrix(1 0 0 1 5070.3062 217.4817)" className="st16 st17">1</text>
<text transform="matrix(1 0 0 1 5496.8896 217.4817)" className="st16 st17">1</text>
<text transform="matrix(1 0 0 1 5979.5557 217.4817)" className="st16 st17">1</text>
<text transform="matrix(1 0 0 1 6201.4189 952.2469)" className="st16 st17">1</text>
<text transform="matrix(1 0 0 1 6134.7524 861.5804)" className="st16 st17">1</text>
<text transform="matrix(1 0 0 1 6139.7061 756.7164)" className="st16 st17">1</text>
<text transform="matrix(1 0 0 1 6642.751 828.988)" className="st16 st17">1</text>
<text transform="matrix(1 0 0 1 6643.1553 270.3145)" className="st16 st17">1</text>
<text transform="matrix(1 0 0 1 6945.0591 270.3145)" className="st16 st17">1</text>
<text transform="matrix(1 0 0 1 7307.5552 270.3145)" className="st16 st17">1</text>
<text transform="matrix(1 0 0 1 7675.5552 270.3145)" className="st16 st17">1</text>
<text transform="matrix(1 0 0 1 8331.1504 270.3145)" className="st16 st17">1</text>
<text transform="matrix(1 0 0 1 9080.6367 270.3145)" className="st16 st17">1</text>
<text transform="matrix(1 0 0 1 6923.7256 815.1309)" className="st16 st17">1</text>
<text transform="matrix(1 0 0 1 7307.9595 815.1312)" className="st16 st17">1</text>
<text transform="matrix(1 0 0 1 7675.959 815.1312)" className="st16 st17">1</text>
<text transform="matrix(1 0 0 1 8030.2222 815.1312)" className="st16 st17">1</text>
<text transform="matrix(1 0 0 1 8510.2227 815.1312)" className="st16 st17">1</text>
<text transform="matrix(1 0 0 1 3804.9729 217.4815)" className="st16 st17">1</text>
<text transform="matrix(1 0 0 1 4302.2227 217.4815)" className="st16 st17">1</text>
<text transform="matrix(1 0 0 1 1992.7094 793.5804)" className="st16 st17">1</text>
<text transform="matrix(1 0 0 1 1184.3062 815.1312)" className="st16 st17">1</text>
<text transform="matrix(1 0 0 1 606.6267 815.1312)" className="st16 st17">1</text>
<text transform="matrix(1 0 0 1 395.96 815.1309)" className="st16 st17">1</text>
<text transform="matrix(1 0 0 1 343.6395 971.6546)" className="st16 st17">1</text>
<text transform="matrix(1 0 0 1 272.484 861.5801)" className="st16 st17">1</text>
</svg>
