<?xml version="1.0" encoding="utf-8"?>
<!-- Generator: Adobe Illustrator 25.2.3, SVG Export Plug-In . SVG Version: 6.00 Build 0)  -->
<svg version="1.1" id="Layer_1" xmlns="http://www.w3.org/2000/svg" xmlns:xlink="http://www.w3.org/1999/xlink" x="0px" y="0px"
	 viewBox="0 0 3403.83 6394.38" style="enable-background:new 0 0 3403.83 6394.38;" xml:space="preserve">
<style type="text/css">
	.st0{fill:#FFCC66;stroke:#000000;stroke-miterlimit:10;}
	.st1{fill:#FFFFFF;stroke:#000000;stroke-miterlimit:10;}
	.st2{fill:#F1DCDA;stroke:#000000;stroke-miterlimit:10;}
	.st3{fill:#FDE8D8;stroke:#000000;stroke-miterlimit:10;}
	.st4{fill:#E4DEEB;}
	.st5{fill:#DBEFF3;stroke:#000000;stroke-miterlimit:10;}
	.st6{fill:#ECF0DE;stroke:#000000;stroke-miterlimit:10;}
	.st7{fill:#9CBB59;stroke:#000000;stroke-miterlimit:10;}
	.st8{fill:#E4DEEB;stroke:#000000;stroke-miterlimit:10;}
	.st9{fill:#FBCCCC;stroke:#000000;stroke-miterlimit:10;}
	.st10{fill:#D1E8C6;stroke:#000000;stroke-miterlimit:10;}
	.st11{fill:none;stroke:#000000;stroke-miterlimit:10;}
	.st12{fill:#EDEBE1;stroke:#000000;stroke-miterlimit:10;}
	.st13{fill:#DCE5F0;stroke:#000000;stroke-miterlimit:10;}
	.st14{fill:#B7DEE8;stroke:#000000;stroke-miterlimit:10;}
	.st15{fill:#FDCC99;stroke:#000000;stroke-miterlimit:10;}
	.st16{fill:#F3F3F3;stroke:#000000;stroke-miterlimit:10;}
	.st17{fill:#FCD5B4;stroke:#000000;stroke-miterlimit:10;}
	.st18{fill:#DDD9C4;stroke:#000000;stroke-miterlimit:10;}
	.st19{fill:#D9D9D8;stroke:#000000;stroke-miterlimit:10;}
	.st20{fill:#FCF9CE;stroke:#000000;stroke-miterlimit:10;}
	.st21{fill:none;stroke:#000000;stroke-width:0.5;stroke-miterlimit:10;}
	.st22{fill:#F6EB14;stroke:#000000;stroke-miterlimit:10;}
	.st23{font-family:'Montserrat-Regular';}
	.st24{font-size:45px;}
	.st25{font-size:25.1232px;}
	.st26{font-size:25px;}
</style>
<rect x="1605.71" y="4391.57" className="st0" width="552.57" height="1486.92"/>
<rect x="1545.31" y="1101.11" className="st1" width="77.93" height="289.98"/>
<rect x="1905.36" y="5645.72" className="st2" width="251.62" height="211.02"/>
<rect x="2752.74" y="3414.64" className="st3" width="565.46" height="2442.1"/>
<rect x="2158.28" y="5682.77" className="st4" width="440.61" height="173.96"/>
<rect x="2158.28" y="2390.04" className="st5" width="579.55" height="3466.69"/>
<rect x="2158.28" y="1101.11" className="st6" width="579.55" height="1288.94"/>
<rect x="2752.74" y="1101.11" className="st7" width="565.46" height="2290.83"/>
<rect x="431.3" y="26.68" className="st6" width="1151.71" height="803.79"/>
<rect x="431.3" y="26.68" className="st8" width="173.12" height="173.27"/>
<rect x="1582.76" y="26.68" className="st9" width="567.88" height="803.79"/>
<rect x="833.22" y="752.51" transform="matrix(-1.836970e-16 1 -1 -1.836970e-16 1771.8168 8.5129)" className="st10" width="96.86" height="275.32"/>
<rect x="451.7" y="711.89" transform="matrix(-1.836970e-16 1 -1 -1.836970e-16 1280.8472 280.5944)" className="st10" width="96.86" height="137.66"/>
<rect x="2683.37" y="830.56" transform="matrix(-1.836970e-16 1 -1 -1.836970e-16 3621.9612 -1841.6315)" className="st10" width="96.86" height="119.21"/>
<rect x="3185.24" y="836.05" transform="matrix(-1.836970e-16 1 -1 -1.836970e-16 4151.0259 -2340.3809)" className="st5" width="120.92" height="138.55"/>
<rect x="3146.58" y="1053.63" transform="matrix(-1.836970e-16 1 -1 -1.836970e-16 4368.6079 -2045.4711)" className="st6" width="120.92" height="215.87"/>
<rect x="2551.97" y="1079.56" transform="matrix(-1.836970e-16 1 -1 -1.836970e-16 3817.3977 -1450.8619)" className="st2" width="164.32" height="207.42"/>
<rect x="2464.98" y="1342.15" transform="matrix(-1.836970e-16 1 -1 -1.836970e-16 4079.9897 -1188.27)" className="st2" width="338.31" height="207.42"/>
<rect x="3225.97" y="2172.34" transform="matrix(-1.836970e-16 1 -1 -1.836970e-16 5490.5366 -1074.9756)" className="st1" width="113.58" height="70.88"/>
<rect x="2885.65" y="799.05" transform="matrix(-1.836970e-16 1 -1 -1.836970e-16 3830.4871 -2043.9091)" className="st10" width="103.1" height="188.49"/>
<rect x="431.3" y="841.74" className="st11" width="2883.68" height="248.09"/>
<rect x="2161.5" y="26.98" className="st12" width="576.33" height="803.48"/>
<rect x="431.3" y="197.34" className="st5" width="173.12" height="479.67"/>
<rect x="431.3" y="677.01" className="st3" width="94.97" height="55.28"/>
<rect x="3124.88" y="2913.48" className="st13" width="193.32" height="478.47"/>
<rect x="1051.53" y="1101.11" className="st8" width="111.16" height="124.05"/>
<rect x="1452.67" y="1101.11" className="st11" width="92.63" height="124.05"/>
<rect x="1162.69" y="1101.11" className="st8" width="265.01" height="124.05"/>
<polygon className="st11" points="1605.71,4390.84 1605.71,4872.67 999.04,4872.67 999.04,5856.74 431.3,5856.74 431.3,1101.12 
	1545.31,1101.12 1545.31,4390.84 "/>
<rect x="999.04" y="4872.67" className="st11" width="606.67" height="984.06"/>
<rect x="999.04" y="5635.65" className="st10" width="136.3" height="221.08"/>
<rect x="-8.5" y="5381.52" className="st10" width="439.8" height="475.22"/>
<rect x="2172.78" y="5856.74" className="st14" width="852.22" height="546.15"/>
<rect x="1320.57" y="5856.74" className="st15" width="852.22" height="546.15"/>
<rect x="999.04" y="5856.74" className="st11" width="321.53" height="546.15"/>
<rect x="1604.43" y="4059.02" className="st16" width="555.13" height="332.56"/>
<rect x="2158.28" y="3325.89" className="st10" width="305.73" height="164.32"/>
<rect x="3014.42" y="5856.74" className="st17" width="302.87" height="546.15"/>
<polygon className="st10" points="3318.18,2698.43 3318.18,2834.96 3279.52,2834.96 3279.52,2889.11 3127.5,2889.11 3127.5,2698.43 "/>
<polyline className="st11" points="3279.52,2889.11 3279.52,2834.96 3318.18,2834.96 "/>
<polyline className="st11" points="3279.52,2889.11 3279.52,2834.96 3318.18,2834.96 "/>
<polygon className="st5" points="1961.74,26.68 1961.74,593.01 1866.69,593.01 1866.69,830.46 2150.63,830.46 2150.63,26.68 "/>
<polygon className="st3" points="1545.31,883.64 1545.31,951.27 1286.72,951.27 1286.72,869.44 1314.83,869.44 1314.83,883.64 "/>
<rect x="2161.5" y="303.67" className="st18" width="122.44" height="96.66"/>
<rect x="2283.94" y="303.67" className="st18" width="88.6" height="96.66"/>
<rect x="2372.54" y="303.67" className="st1" width="77.13" height="96.66"/>
<rect x="2449.67" y="303.67" className="st18" width="159.69" height="96.66"/>
<rect x="2609.36" y="303.67" className="st18" width="128.48" height="96.66"/>
<rect x="2454.71" y="745.88" className="st18" width="91.02" height="84.58"/>
<rect x="2545.73" y="745.88" className="st18" width="141.36" height="84.58"/>
<rect x="2685.48" y="730.98" className="st18" width="52.36" height="99.48"/>
<rect x="2747.91" y="29.85" className="st3" width="567.06" height="803.48"/>
<polygon className="st2" points="2747.92,26.98 2747.92,26.98 2748.31,211.84 2764.02,211.84 2764.02,232.38 2747.91,232.38 
	2749.52,830.46 3000.43,830.46 3000.43,510.88 2969.02,510.88 2969.62,355.92 2874.17,355.02 2874.17,231.77 2857.56,231.77 
	2857.86,212.74 2924.62,211.84 2924.62,158.07 2898.34,157.47 2898.94,105.51 2874.17,105.21 2874.17,26.68 "/>
<polygon className="st3" points="3027.82,296.01 3027.82,272.25 3022.58,272.25 3022.58,223.92 3030.24,223.92 3030.24,202.98 
	3000.43,202.98 3000.43,224.32 2968.62,225.13 2968.62,202.98 2940.02,202.98 2940.02,180.02 2969.02,180.02 2968.62,157.47 
	2952.51,157.47 2952.51,142.16 2907.8,142.16 2907.8,118 2954.52,118 2954.12,104.71 2969.02,104.71 2968.41,90.71 2988.55,90.71 
	2988.75,105.51 3008.89,105.92 3008.89,156.66 3000.43,156.66 3000.43,181.23 3028.63,181.23 3028.22,156.66 3022.58,156.66 
	3022.58,105.51 3030.24,105.51 3030.24,81.75 3050.78,81.75 3050.78,104.71 3063.66,104.71 3063.66,119.21 3092.66,119.21 
	3092.66,137.33 3062.46,137.73 3062.86,159.08 3075.75,159.48 3074.94,182.44 3109.18,182.44 3109.18,204.99 3074.54,205.8 
	3074.54,238.42 3109.18,239.23 3109.18,259.77 3072.93,259.77 3073.31,273.45 3061.65,273.46 3061.65,296.01 "/>
<polygon className="st3" points="3121.26,296.01 2989.16,296.01 2989.16,272.25 3000.43,272.25 3000.43,239.23 2954.12,239.23 
	2954.12,247.68 2924.31,247.68 2924.31,264.6 2954.12,264.6 2953.71,273.46 2969.82,273.86 2969.42,304.47 2924.31,304.47 
	2924.31,281.51 2898.54,281.51 2898.54,336.69 2907.8,336.69 2907.8,348.37 2952.75,348.37 2953.31,327.43 2989.56,327.83 
	2989.56,341.52 3121.26,342.33 "/>
<rect x="3173.21" y="335.08" className="st3" width="138.55" height="323.81"/>
<rect x="3136.97" y="658.89" className="st3" width="138.55" height="171.57"/>
<polygon className="st3" points="3289.19,136.9 3289.19,162.73 3314.96,162.73 3314.96,289.14 3189.75,289.14 3189.75,76.5 
	3314.96,76.5 3314.96,136.9 "/>
<polyline className="st11" points="3314.96,162.73 3289.19,162.73 3289.19,136.9 3314.96,136.9 "/>
<polyline className="st11" points="3314.96,162.73 3289.19,162.73 3289.19,136.9 3314.96,136.9 "/>
<line className="st11" x1="3259.4" y1="76.52" x2="3261.01" y2="76.52"/>
<polygon className="st11" points="2874.17,26.68 2874.17,81.75 3007.08,81.75 3007.08,59.6 3314.96,57.92 3314.98,26.98 "/>
<rect x="2988.75" y="356.02" className="st3" width="132.5" height="107.94"/>
<rect x="3063.66" y="393.88" className="st19" width="57.59" height="33.03"/>
<polyline className="st3" points="3173.21,658.89 3136.97,658.89 3136.97,567.06 3109.18,567.06 3109.18,604.92 3073.33,604.12 
	3073.33,622.64 3109.18,622.64 3109.18,635.53 3073.33,635.53 3073.33,651.94 3039.7,651.94 3039.7,635.03 3008.59,635.03 
	3008.59,619.92 3040,619.92 3040,606.33 3022.48,606.33 3022.48,495.17 3040.91,495.17 3040.91,478.86 3074.74,478.86 
	3074.74,495.78 3107.67,495.78 3107.67,540.48 3136.97,540.48 3136.97,463.96 3121.26,463.96 "/>
<rect x="3109.18" y="426.91" className="st19" width="12.08" height="37.05"/>
<polygon className="st3" points="3063.66,76.52 3063.66,59.34 3173.21,59.34 3173.21,296.01 3121.26,296.01 3121.26,76.52 "/>
<line className="st11" x1="3255.98" y1="76.5" x2="3255.98" y2="289.14"/>
<rect x="3286.67" y="257.75" className="st11" width="12.89" height="31.39"/>
<rect x="3271.99" y="410.39" className="st19" width="16.61" height="23.51"/>
<rect x="3271.99" y="526.64" className="st19" width="39.77" height="25.92"/>
<rect x="3300.38" y="694.59" className="st11" width="11.38" height="30.35"/>
<rect x="3261.16" y="789.18" transform="matrix(-1.836970e-16 1 -1 -1.836970e-16 4064.689 -2469.0139)" className="st11" width="11.38" height="17.32"/>
<rect x="3139.94" y="791.24" transform="matrix(-1.836970e-16 1 -1 -1.836970e-16 3945.5259 -2345.7224)" className="st11" width="11.38" height="17.32"/>
<rect x="3303.6" y="772.46" className="st11" width="11.38" height="50.75"/>
<polyline className="st3" points="3136.97,739.04 3108.37,739.04 3108.37,701.98 3039.1,701.98 3039.1,797.84 3109.18,797.84 
	3109.18,758.77 3136.97,758.77 3136.97,739.84 "/>
<line className="st11" x1="3173.21" y1="281.11" x2="3173.21" y2="356.02"/>
<rect x="2898.54" y="355.58" className="st5" width="70.48" height="28.63"/>
<rect x="2898.54" y="384.21" className="st5" width="70.48" height="125.46"/>
<rect x="2872.36" y="509.67" className="st5" width="128.07" height="117.4"/>
<rect x="2872.36" y="625.66" className="st20" width="128.07" height="72.29"/>
<rect x="2872.36" y="697.96" className="st5" width="128.07" height="72.29"/>
<rect x="2158.28" y="3152.71" className="st1" width="305.73" height="173.18"/>
<rect x="3317.28" y="5856.74" className="st10" width="95.05" height="276.22"/>
<polygon className="st11" points="2409.6,5729.49 2504.24,5729.49 2598.89,5729.49 2598.89,5856.74 2504.24,5856.74 2409.6,5856.74 "/>
<polyline className="st11" points="2158.28,5729.49 2273.47,5729.49 2273.47,5856.74 "/>
<line className="st11" x1="2366.1" y1="5856.74" x2="2366.1" y2="5796.35"/>
<line className="st11" x1="2457.12" y1="5729.49" x2="2457.12" y2="5682.77"/>
<line className="st11" x1="2549.75" y1="5729.49" x2="2549.75" y2="5682.77"/>
<line className="st11" x1="2503.44" y1="5856.74" x2="2503.44" y2="5726.27"/>
<line className="st11" x1="2334.89" y1="5682.77" x2="2472.63" y2="5682.77"/>
<line className="st11" x1="2156.97" y1="5682.77" x2="2294.71" y2="5682.77"/>
<line className="st11" x1="2601.51" y1="5682.77" x2="2517.63" y2="5682.77"/>
<line className="st11" x1="2598.89" y1="5729.49" x2="2598.89" y2="5682.77"/>
<polygon className="st11" points="2337.1,5812.46 2305.29,5812.46 2273.47,5812.46 2273.47,5755.67 2305.29,5755.67 2337.1,5755.67 "/>
<line className="st11" x1="2305.29" y1="5755.67" x2="2305.29" y2="5812.46"/>
<line className="st11" x1="2273.47" y1="5769.75" x2="2334.89" y2="5769.75"/>
<line className="st11" x1="2273.47" y1="5784.06" x2="2337.1" y2="5784.06"/>
<line className="st11" x1="2271.86" y1="5796.35" x2="2338.71" y2="5796.35"/>
<rect x="3175.62" y="5726.27" className="st2" width="70.88" height="130.47"/>
<rect x="3246.51" y="5726.27" className="st2" width="70.78" height="130.47"/>
<line className="st11" x1="3246.51" y1="5769.75" x2="3291.62" y2="5769.75"/>
<line className="st11" x1="3246.51" y1="5810.04" x2="3291.62" y2="5810.04"/>
<line className="st11" x1="3193.35" y1="5782.65" x2="3211.07" y2="5782.65"/>
<line className="st11" x1="3211.07" y1="5782.65" x2="3211.07" y2="5856.74"/>
<rect x="2092.23" y="5726.27" className="st20" width="64.74" height="127.24"/>
<line className="st11" x1="1905.36" y1="5726.27" x2="2092.23" y2="5726.27"/>
<line className="st11" x1="1998.79" y1="5726.27" x2="1998.79" y2="5856.74"/>
<polyline className="st11" points="2124.6,5673.11 2092.23,5673.11 2092.23,5706.13 2124.6,5706.13 2124.6,5726.27 "/>
<rect x="3002.85" y="5535.37" className="st11" width="122.84" height="147.41"/>
<line className="st11" x1="3002.85" y1="5563.16" x2="3125.68" y2="5563.16"/>
<rect x="3014.53" y="5512.21" className="st21" width="12.08" height="20.54"/>
<rect x="3026.61" y="5512.21" className="st21" width="12.08" height="20.54"/>
<rect x="3038.69" y="5512.21" className="st21" width="12.08" height="20.54"/>
<rect x="3050.77" y="5512.21" className="st21" width="16.11" height="20.54"/>
<rect x="3066.88" y="5512.21" className="st21" width="14.7" height="20.54"/>
<rect x="3081.89" y="5512.21" className="st21" width="14.7" height="20.54"/>
<rect x="3096.59" y="5512.21" className="st21" width="30.37" height="20.54"/>
<rect x="726.11" y="5856.74" className="st10" width="272.93" height="174.01"/>
<rect x="503.79" y="5900.26" className="st10" width="72.49" height="130.49"/>
<rect x="431.3" y="6040.41" className="st10" width="108.74" height="205.4"/>
<polyline className="st1" points="1554.97,1101.11 1554.97,1308.32 1545.31,1308.32 1609.94,1308.32 "/>
<line className="st1" x1="1545.3" y1="1348.19" x2="1609.94" y2="1348.19"/>
<polyline className="st11" points="1571.18,1308.32 1571.18,1364 1581.24,1364 "/>
<line className="st11" x1="1581.24" y1="1348.19" x2="1581.24" y2="1390.48"/>
<line className="st11" x1="1600.17" y1="1376.29" x2="1551.14" y2="1376.29"/>
<line className="st11" x1="1571.63" y1="1391.09" x2="1571.63" y2="1374.02"/>
<line className="st11" x1="1608.53" y1="1354.84" x2="1608.53" y2="1337.77"/>
<rect x="1223.91" y="884.43" className="st11" width="63.63" height="67.86"/>
<line className="st11" x1="1223.91" y1="897.92" x2="1287.54" y2="898.12"/>
<line className="st11" x1="1252.5" y1="870.61" x2="1289.15" y2="870.61"/>
<line className="st11" x1="1223.91" y1="938.8" x2="1287.54" y2="939"/>
<line className="st11" x1="1239.64" y1="896.01" x2="1239.64" y2="940.41"/>
<line className="st11" x1="1254.75" y1="896.16" x2="1254.75" y2="940.56"/>
<line className="st11" x1="1264.79" y1="896.01" x2="1264.79" y2="940.41"/>
<line className="st11" x1="1254.75" y1="868.02" x2="1254.75" y2="882.41"/>
<line className="st11" x1="1264.79" y1="868.02" x2="1264.79" y2="882.41"/>
<line className="st11" x1="1274.45" y1="868.02" x2="1274.45" y2="882.41"/>
<line className="st11" x1="1274.45" y1="897.92" x2="1274.45" y2="940.41"/>
<line className="st11" x1="1545.31" y1="843.55" x2="1545.31" y2="899.83"/>
<line className="st11" x1="3044.53" y1="3364.05" x2="3044.53" y2="3393.75"/>
<line className="st11" x1="3056.21" y1="3364.05" x2="3056.21" y2="3393.75"/>
<line className="st11" x1="3067.89" y1="3364.05" x2="3067.89" y2="3393.75"/>
<line className="st11" x1="3122.86" y1="3366.82" x2="3041.96" y2="3366.82"/>
<rect x="1545.3" y="4119.36" width="59.14" height="22.5"/>
<line className="st11" x1="3079.47" y1="3364.05" x2="3079.47" y2="3393.75"/>
<line className="st11" x1="3112.59" y1="3364.05" x2="3112.59" y2="3393.75"/>
<line className="st11" x1="3096.99" y1="3364.05" x2="3096.99" y2="3393.75"/>
<rect x="1609.27" y="4747.59" width="209.09" height="21.75"/>
<rect x="1902.13" y="4747.59" width="242.45" height="21.75"/>
<rect x="1320.57" y="5856.74" className="st22" width="288.7" height="43.52"/>
<rect x="3260.15" y="2855.44" transform="matrix(-1.836970e-16 1 -1 -1.836970e-16 6173.6206 -424.0854)" className="st7" width="77.41" height="38.66"/>
<text transform="matrix(1 0 0 1 500.1264 136.9033)" className="st23 st24">1</text>
<text transform="matrix(1 0 0 1 511.1957 496.9845)" className="st23 st24">1</text>
<text transform="matrix(1 0 0 1 1019.31 478.3178)" className="st23 st24">1</text>
<text transform="matrix(1 0 0 1 881.6517 907.0922)" className="st23 st24">1</text>
<text transform="matrix(1 0 0 1 500.1265 794.2127)" className="st23 st24">1</text>
<text transform="matrix(1 0 0 1 1084.2986 1183.2681)" className="st23 st24">1</text>
<text transform="matrix(1 0 0 1 1270.8274 1183.2681)" className="st23 st24">1</text>
<text transform="matrix(1 0 0 1 468.2985 724.768)" className="st23 st24">1</text>
<text transform="matrix(1 0 0 1 1416.011 938.5923)" className="st23 st24">1</text>
<text transform="matrix(1 0 0 1 1741.6954 465.4844)" className="st23 st24">1</text>
<text transform="matrix(1 0 0 1 2209.6318 369.8983)" className="st23 st24">1</text>
<text transform="matrix(1 0 0 1 2308.2983 369.8986)" className="st23 st24">1</text>
<text transform="matrix(1 0 0 1 2529.5159 369.8981)" className="st23 st24">1</text>
<text transform="matrix(1 0 0 1 2664.3291 380.6153)" className="st23 st24">1</text>
<text transform="matrix(1 0 0 1 2791.4033 393.881)" className="st23 st24">1</text>
<text transform="matrix(1 0 0 1 2933.7788 439.2143)" className="st23 st24">1</text>
<text transform="matrix(1 0 0 1 2924.4456 584.5476)" className="st23 st24">1</text>
<text transform="matrix(1 0 0 1 2933.7786 680.5477)" className="st23 st24">1</text>
<text transform="matrix(1 0 0 1 2936.3965 914.9348)" className="st23 st24">1</text>
<text transform="matrix(1 0 0 1 3245.7036 914.9348)" className="st23 st24">1</text>
<text transform="matrix(1 0 0 1 2721.6956 914.9344)" className="st23 st24">1</text>
<text transform="matrix(1 0 0 1 3000.4333 1425.601)" className="st23 st24">1</text>
<text transform="matrix(1 0 0 1 3199.1743 1174.1882)" className="st23 st24">1</text>
<text transform="matrix(1 0 0 1 2634.1296 1222.0297)" className="st23 st24">1</text>
<text transform="matrix(1 0 0 1 2626.9653 1436.9808)" className="st23 st24">1</text>
<text transform="matrix(1 0 0 1 2392.2986 2046.7585)" className="st23 st24">1</text>
<text transform="matrix(1 0 0 1 2403.3682 2804.0918)" className="st23 st24">1</text>
<text transform="matrix(1 0 0 1 3222.8428 2804.0913)" className="st23 st24">1</text>
<text transform="matrix(1 0 0 1 3214.595 3266.3135)" className="st23 st24">1</text>
<text transform="matrix(1 0 0 1 3298.853 2897.8704)" className="st23 st24">1</text>
<text transform="matrix(1 0 0 1 2308.2981 3274.7505)" className="st23 st24">1</text>
<text transform="matrix(1 0 0 1 2924.8501 756.268)" className="st23 st24">1</text>
<text transform="matrix(1 0 0 1 3063.6648 768.4013)" className="st23 st24">1</text>
<text transform="matrix(1 0 0 1 3064.0693 568.3716)" className="st23 st24">1</text>
<text transform="matrix(1 0 0 1 3022.7361 422.1461)" className="st23 st24">1</text>
<text transform="matrix(1 0 0 1 3039.0972 216.8128)" className="st23 st24">1</text>
<text transform="matrix(1 0 0 1 3214.5947 201.8201)" className="st23 st24">1</text>
<text transform="matrix(1 0 0 1 3214.9995 509.6713)" className="st23 st24">1</text>
<text transform="matrix(1 0 0 1 3197.6663 770.2492)" className="st23 st24">1</text>
<text transform="matrix(1 0 0 1 3085.2542 415.564)" className="st23 st25">1</text>
<text transform="matrix(1 0 0 1 2969.019 149.8164)" className="st23 st25">1</text>
<text transform="matrix(1 0 0 1 2021.6954 463.9591)" className="st23 st24">1</text>
<text transform="matrix(1 0 0 1 2424.3621 162.7296)" className="st23 st24">1</text>
<text transform="matrix(1 0 0 1 2372.5447 648.2679)" className="st23 st24">1</text>
<text transform="matrix(1 0 0 1 2481.6321 799.9014)" className="st23 st24">1</text>
<text transform="matrix(1 0 0 1 2597.6953 805.5905)" className="st23 st24">1</text>
<text transform="matrix(1 0 0 1 2700.2988 805.5906)" className="st23 st24">1</text>
<text transform="matrix(1 0 0 1 2308.2983 3414.6357)" className="st23 st24">1</text>
<text transform="matrix(1 0 0 1 3022.8992 4318.2109)" className="st23 st24">1</text>
<text transform="matrix(1 0 0 1 2448.0601 4318.2109)" className="st23 st24">1</text>
<text transform="matrix(1 0 0 1 1881.9969 4225.2944)" className="st23 st24">1</text>
<text transform="matrix(1 0 0 1 1881.9973 5255.2031)" className="st23 st24">1</text>
<text transform="matrix(1 0 0 1 3067.8899 5619.1265)" className="st23 st24">1</text>
<text transform="matrix(1 0 0 1 2549.7542 5819.6958)" className="st23 st24">1</text>
<text transform="matrix(1 0 0 1 1939.8938 5810.0415)" className="st23 st24">1</text>
<text transform="matrix(1 0 0 1 2031.1652 5812.458)" className="st23 st24">1</text>
<text transform="matrix(1 0 0 1 2108.4172 5810.042)" className="st23 st24">1</text>
<text transform="matrix(1 0 0 1 1713.8165 6290.9341)" className="st23 st24">1</text>
<text transform="matrix(1 0 0 1 2597.6951 6147.6475)" className="st23 st24">1</text>
<text transform="matrix(1 0 0 1 3165.8513 6166.314)" className="st23 st24">1</text>
<text transform="matrix(1 0 0 1 3364.8091 6016.981)" className="st23 st24">1</text>
<text transform="matrix(1 0 0 1 3214.9993 5782.6548)" className="st23 st24">1</text>
<text transform="matrix(1 0 0 1 3291.6167 5812.458)" className="st23 st24">1</text>
<text transform="matrix(1 0 0 1 2448.0601 5819.6953)" className="st23 st24">1</text>
<text transform="matrix(1 0 0 1 2205.3933 5812.4575)" className="st23 st24">1</text>
<text transform="matrix(1 0 0 1 2358.2822 5755.6704)" className="st23 st24">1</text>
<text transform="matrix(1 0 0 1 1998.7941 5699.6885)" className="st23 st24">1</text>
<text transform="matrix(1 0 0 1 1054.9651 5751.229)" className="st23 st24">1</text>
<text transform="matrix(1 0 0 1 841.6318 5943.7422)" className="st23 st24">1</text>
<text transform="matrix(1 0 0 1 530.7696 5994.123)" className="st23 st24">1</text>
<text transform="matrix(1 0 0 1 468.2984 6195.647)" className="st23 st24">1</text>
<text transform="matrix(1 0 0 1 190.9651 5635.6514)" className="st23 st24">1</text>
<text transform="matrix(1 0 0 1 1464.9182 5900.2568)" className="st23 st26">1</text>
</svg>
