<?xml version="1.0" encoding="utf-8"?>
<!-- Generator: Adobe Illustrator 25.2.3, SVG Export Plug-In . SVG Version: 6.00 Build 0)  -->
<svg version="1.1" id="Layer_1" xmlns="http://www.w3.org/2000/svg" xmlns:xlink="http://www.w3.org/1999/xlink" x="0px" y="0px"
	 viewBox="0 0 820.8 386.8" style="enable-background:new 0 0 820.8 386.8;" xml:space="preserve">
<style type="text/css">
	.st0{fill:#FBF8CE;stroke:#000000;stroke-width:0.25;stroke-miterlimit:10;}
	.st1{fill:#DAEEF2;stroke:#000000;stroke-width:0.25;stroke-miterlimit:10;}
	.st2{fill:#D7E3BB;stroke:#000000;stroke-width:0.25;stroke-miterlimit:10;}
	.st3{fill:#FBE6D7;stroke:#000000;stroke-width:0.25;stroke-miterlimit:10;}
	.st4{fill:#E3DDEA;stroke:#000000;stroke-width:0.25;stroke-miterlimit:10;}
	.st5{fill:none;stroke:#000000;stroke-miterlimit:10;}
	.st6{font-family:'MyriadPro-Regular';}
	.st7{font-size:12px;}
</style>
<path className="st0" d="M801.1,115.9c0,0,29.3,29.8,13.3,64l-104.9,3.1l-4-93.8L650,90.6l-0.6-26.5h-76.5l0.7-50.9
	c0,0,18.8-15.3,43-2.8l35.1-1.6c0,0,25.8-17.8,55.1-1.3c0.4,0,44-15.6,88.9,1.3c0.4,0.4,46.2,48.9,12.9,105.8
	C809.5,115.1,801.1,115.9,801.1,115.9z"/>
<path className="st1" d="M649.4,64.1H521.1L466.3,69l-34.1,7.7l-32.9,8L365.5,95l-29.9,7.2l-28.1,7.4l-38.2,10.4l-23.7,5.9l-28.7,6.5
	l-24.3,6.7l-26.4,6.4l-19.6,5.9l-21.6,5l-19,4.8l-15.7,4.4l-29.6,14.5l-30.8-20.4H5.6l-1.4,44.4c-6.7,28.7-4,51.8,2.9,70l29.5-34.9
	l16.3,22.4l13.6,8l-27.1,48.6c10.4,8.5,18.9,12.2,18.9,12.1l26.3-58.9l23.1,4.4l36.1,6.8l52.3,11.5l51.6,11.1l58.5,12.1l106.9,14.6
	l9-58.3l-34.4-4.3l-8,45.3l-50.7-7.7l3.5-44.9l8.7,1.5l2.4-35.6l3.3-45.2l-14.4-51.4l15.3-4.3l19.1-5.5l25.9-6.2l16.9-4l19.1-5.9
	l24.5-6.1l27.2-5.8l43.6-3.4l47.6-0.4l30.7-0.9l35.3-0.8l1.1,20.4l11.2-0.9V90.6L649.4,64.1z M309.5,244.2v19.1l-7.3,36.7
	l-57.6-14.4l-47.6-10.9l-23.3-8c0,0-45.8-10.3-66.2-14.8c-7-1.6-13-6.3-16-12.8c-18.8-39.8,33.3-52.6,33.3-52.6l78-21.1l27.8-7.1
	l32.2-7.7l38-9.3l10.2,34.8l-1.3,22.4l-2.1-0.2l6,23.4L309.5,244.2z"/>
<path className="st0" d="M173.8,227.9l9.9,4.9l-9.9,33.8c0,0-45.8-10.3-66.2-14.8c-7-1.6-13-6.3-16-12.8c-18.8-39.8,33.3-52.6,33.3-52.6
	l78-21.1l7.8,33.1l6-1.2c-11,2.5-42.9,9.5-42.9,9.5V227.9z"/>
<polygon className="st2" points="306.3,317.4 282.6,386.8 224.5,374.5 247.8,305.3 "/>
<polygon className="st1" points="247.8,305.3 224.5,374.5 168.1,362.5 196.2,294.2 "/>
<polygon className="st3" points="196.2,294.2 168.1,362.5 167.6,362.4 167,362.2 166.5,362.1 166.2,362 117.3,349.5 116.8,349.4 
	143.9,282.6 "/>
<polygon className="st1" points="143.9,282.6 116.8,349.4 116.7,349.4 82.7,339.7 107.8,275.8 "/>
<path className="st4" d="M107.8,275.8l-25.1,63.9c-0.5-0.1-0.9-0.3-1.4-0.4c-0.6-0.2-1.2-0.4-1.8-0.6c-0.1,0-0.2,0-0.2-0.1
	c-10.4-3.4-20.9-8.5-20.9-8.5l26.3-58.9L107.8,275.8z"/>
<path className="st3" d="M52.9,261.6l-26.1,44c0,0-7.7-8.3-13.7-18.4c0-0.1-0.1-0.1-0.1-0.2c-2.2-4-4.2-8.3-6-12.8l29.5-34.9L52.9,261.6
	z"/>
<path className="st0" d="M66.6,269.6l-27.1,48.6c0,0-0.1-0.1-0.1-0.1c-0.1-0.1-0.2-0.1-0.3-0.2c-1.6-1.5-8.3-7.6-12.2-12.3l26.1-44
	L66.6,269.6z"/>
<path className="st5" d="M39.4,318.1L39.4,318.1C39.4,318.2,39.4,318.1,39.4,318.1C39.4,318.1,39.4,318.1,39.4,318.1z"/>
<path className="st4" d="M90.3,165.6l-29.6,14.5l-30.8-20.4c0.1-0.2,0.2-0.4,0.4-0.6c0-0.1,0.1-0.1,0.1-0.2c1.4-2,5.6-8.1,12-15.8
	c0.1-0.1,0.2-0.2,0.3-0.3c10-11.7,20.7-21.7,22.9-23.8c0.1-0.1,0.2-0.2,0.3-0.2c0.1-0.1,0.1-0.1,0.1-0.1c0,0,0,0,0,0L90.3,165.6z"/>
<polygon className="st1" points="106,161.1 90.3,165.6 66,118.8 92.6,112.5 "/>
<polygon className="st2" points="124.9,156.4 106,161.1 92.6,112.5 92.6,112.5 113.3,107.7 "/>
<polygon className="st4" points="146.6,151.4 124.9,156.4 113.3,107.7 134.8,102.7 "/>
<polygon className="st1" points="166.1,145.4 146.6,151.4 134.8,102.7 155.1,97.9 "/>
<polygon className="st2" points="192.5,139.1 166.1,145.4 155.1,97.9 181.3,91.8 "/>
<polygon className="st1" points="216.8,132.4 192.5,139.1 181.3,91.8 207.9,85.6 "/>
<polygon className="st3" points="245.5,125.9 216.8,132.4 207.9,85.6 235.4,79.2 "/>
<path className="st4" d="M269.2,119.9l-23.7,5.9l-10.1-46.7c0,0,0,0,0.1-0.1c0.5-0.6,2.6-3,5.5-5.8c0.1,0,0.1-0.1,0.2-0.2
	c3.2-2.8,7.5-6.1,13-9c0,0,0,0,0.1,0L269.2,119.9z"/>
<path className="st1" d="M307.5,109.6l-38.2,10.4l-14.9-55.9c0.3-0.2,0.6-0.3,1-0.5c0.6-0.3,1.3-0.6,1.9-0.9c0.3-0.1,0.6-0.3,0.9-0.4
	c10-4.2,19.3-4.9,25.8-4.6c0.2,0,0.4,0,0.6,0c2.7,0.2,5.4,0.5,8.2,1.1c0.1,0,0.2,0,0.2,0L307.5,109.6z"/>
<path className="st2" d="M335.6,102.2l-28.1,7.4L293,58.9h0l8.4,2.2l1.3-0.3c0.2-0.1,0.5-0.1,0.8-0.2c1.1-0.2,2.5-0.6,4.2-1
	c0.5-0.1,1.1-0.3,1.7-0.4l0.8-0.2c0.2,0,0.3-0.1,0.5-0.1l0.4-0.1c0.3-0.1,0.6-0.2,1-0.2L314,58l2.2-0.5l5.7-1.4L335.6,102.2z"/>
<polygon className="st1" points="365.5,95 335.6,102.2 321.9,56 352.4,48.2 "/>
<polygon className="st3" points="399.3,84.7 365.5,95 352.4,48.2 385.5,39.8 "/>
<polygon className="st1" points="432.2,76.7 399.3,84.7 385.5,39.8 418.8,31.3 "/>
<polygon className="st3" points="466.3,69 432.2,76.7 418.8,31.3 455.6,20.8 "/>
<path className="st1" d="M522.9,13.2C522.9,13.2,522.9,13.2,522.9,13.2l-1.8,50.9L466.3,69l-10.7-48.1c0,0,0,0,0.1-0.1c0,0,0,0,0.1-0.1
	C458.2,18.7,485.7-2.4,522.9,13.2z"/>
<path className="st4" d="M573.6,13.2l-0.7,50.9h-51.8l1.8-50.9C523.8,13.9,573.6,13.2,573.6,13.2z"/>
<polygon className="st4" points="605.6,129.5 573.5,130.6 571.8,89.7 602.4,88.8 "/>
<polygon className="st3" points="639.8,128.4 605.6,129.5 602.4,88.8 637.7,87.9 638.7,108.4 638.4,108.4 "/>
<polygon className="st1" points="362.6,179.4 347,182.8 332.6,131.4 347.9,127.1 "/>
<polygon className="st2" points="382.1,177 362.6,179.4 347.9,127.1 367,121.6 "/>
<polygon className="st1" points="403.8,176.1 382.1,177 367,121.6 392.9,115.4 "/>
<polygon className="st1" points="421.4,149.1 421.4,175.6 414.2,175.8 403.8,176.1 392.9,115.4 409.8,111.4 "/>
<polygon className="st2" points="444.6,144.4 443.7,174.8 421.4,175.6 421.4,149.1 409.8,111.4 428.9,105.4 "/>
<polygon className="st1" points="467.5,139 444.6,144.4 428.9,105.4 453.4,99.4 "/>
<polygon className="st4" points="489.5,133.7 467.5,139 453.4,99.4 480.6,93.6 "/>
<polygon className="st1" points="524.2,90.2 523.3,129.7 489.5,133.7 480.6,93.6 "/>
<polygon className="st4" points="443.7,174.8 442.1,227.9 343.7,227.9 347,182.8 362.6,179.4 382.1,177 414.2,175.8 421.4,175.6 "/>
<polygon className="st1" points="442.1,227.9 440.6,274.6 422.2,273.6 387.8,269.3 387.8,269.3 341.3,263.5 343.7,227.9 "/>
<polygon className="st0" points="311.1,175.9 309.8,198.3 307.7,198.1 272.9,194.2 270.9,185 262.9,150.5 300.9,141.1 "/>
<polygon className="st2" points="270.8,185 237.7,192.4 230.7,158.1 262.9,150.5 "/>
<path className="st3" d="M237.8,192.8l-17.4,3.6l-3.5,0.7c0,0,0,0,0,0c0,0-0.1,0-0.2,0l-6,1.2l-7.8-33.1l27.8-7.1l7,34.2L237.8,192.8z"
	/>
<path className="st4" d="M220.3,196.2v0.1c0,2-0.1,4.1-0.2,6c-0.4,6.9-1.7,13.5-3,19.1v0l0,0c-2.5,10.2-5.6,17.2-5.8,17.7l0,0l-2.4-0.6
	l-0.7-0.2l-24.4-5.6l-9.9-4.9v-21.3c0,0,31.9-7,42.9-9.5c0.1,0,0.1,0,0.2,0c0,0,0,0,0,0C219,196.6,220.3,196.2,220.3,196.2z"/>
<polygon className="st3" points="208.1,238.5 197.1,274.6 173.8,266.6 183.8,232.8 "/>
<polygon className="st2" points="309.5,263.3 302.2,299.9 244.6,285.5 254.1,249.7 "/>
<path className="st3" d="M313.8,221.5l-93.6-19.1c0.1-2,0.2-4,0.2-6l17.4-3.6l33-7.8l2.1,9.2l34.8,3.9L313.8,221.5z"/>
<path className="st1" d="M313.8,221.5l-4.2,22.7l-92.4-22.7v0c1.4-5.6,2.6-12.2,3-19.1L313.8,221.5z"/>
<path className="st0" d="M309.5,244.2v19.1l-55.4-13.6l-3.8-0.9l-39-9.6l0,0c0.2-0.4,3.3-7.5,5.8-17.7l0,0L309.5,244.2z"/>
<polygon className="st1" points="254.1,249.7 244.6,285.5 197.1,274.6 208.1,238.5 208.9,238.6 250.3,248.8 "/>
<polygon className="st2" points="387.8,269.3 379.8,314.6 329.1,306.9 332.6,262 341.3,263.5 "/>
<text transform="matrix(1 0 0 1 58.3345 158.1344)" className="st6 st7">1</text>
<text transform="matrix(1 0 0 1 85.9743 143.7245)" className="st6 st7">1</text>
<text transform="matrix(1 0 0 1 105.9746 141.1242)" className="st6 st7">1</text>
<text transform="matrix(1 0 0 1 126.419 138.9645)" className="st6 st7">1</text>
<text transform="matrix(1 0 0 1 146.5644 134.4144)" className="st6 st7">1</text>
<text transform="matrix(1 0 0 1 171.4533 127.0542)" className="st6 st7">1</text>
<text transform="matrix(1 0 0 1 197.0745 121.5744)" className="st6 st7">1</text>
<text transform="matrix(1 0 0 1 224.4846 115.3544)" className="st6 st7">1</text>
<text transform="matrix(1 0 0 1 252.3246 109.5743)" className="st6 st7">1</text>
<text transform="matrix(1 0 0 1 280.9047 99.3544)" className="st6 st7">1</text>
<text transform="matrix(1 0 0 1 311.1242 91.5544)" className="st6 st7">1</text>
<text transform="matrix(1 0 0 1 343.7145 82.7745)" className="st6 st7">1</text>
<text transform="matrix(1 0 0 1 375.8595 75.1844)" className="st6 st7">1</text>
<text transform="matrix(1 0 0 1 407.1595 64.0946)" className="st6 st7">1</text>
<text transform="matrix(1 0 0 1 442.0646 55.9742)" className="st6 st7">1</text>
<text transform="matrix(1 0 0 1 484.7313 39.7644)" className="st6 st7">1</text>
<text transform="matrix(1 0 0 1 542.0646 44.2089)" className="st6 st7">1</text>
<text transform="matrix(1 0 0 1 738.9535 50.8755)" className="st6 st7">1</text>
<text transform="matrix(1 0 0 1 600.7313 79.1644)" className="st6 st7">1</text>
<text transform="matrix(1 0 0 1 618.9535 111.3546)" className="st6 st7">1</text>
<text transform="matrix(1 0 0 1 586.509 111.9444)" className="st6 st7">1</text>
<text transform="matrix(1 0 0 1 502.4146 116.2694)" className="st6 st7">1</text>
<text transform="matrix(1 0 0 1 467.4649 121.8692)" className="st6 st7">1</text>
<text transform="matrix(1 0 0 1 445.9166 125.8744)" className="st6 st7">1</text>
<text transform="matrix(1 0 0 1 427.2299 141.1247)" className="st6 st7">1</text>
<text transform="matrix(1 0 0 1 407.1597 148.0903)" className="st6 st7">1</text>
<text transform="matrix(1 0 0 1 385.3794 150.4643)" className="st6 st7">1</text>
<text transform="matrix(1 0 0 1 362.5643 154.9043)" className="st6 st7">1</text>
<text transform="matrix(1 0 0 1 343.7142 158.1343)" className="st6 st7">1</text>
<text transform="matrix(1 0 0 1 389.2317 207.8027)" className="st6 st7">1</text>
<text transform="matrix(1 0 0 1 391.6846 249.6943)" className="st6 st7">1</text>
<text transform="matrix(1 0 0 1 355.6099 292.0902)" className="st6 st7">1</text>
<text transform="matrix(1 0 0 1 277.0794 282.6147)" className="st6 st7">1</text>
<text transform="matrix(1 0 0 1 224.0068 266.6147)" className="st6 st7">1</text>
<text transform="matrix(1 0 0 1 186.229 256.8369)" className="st6 st7">1</text>
<text transform="matrix(1 0 0 1 132.4512 227.9445)" className="st6 st7">1</text>
<text transform="matrix(1 0 0 1 192.4944 223.2744)" className="st6 st7">1</text>
<text transform="matrix(1 0 0 1 207.9046 339.7345)" className="st6 st7">1</text>
<text transform="matrix(1 0 0 1 265.3696 352.6234)" className="st6 st7">1</text>
<text transform="matrix(1 0 0 1 155.1343 325.9567)" className="st6 st7">1</text>
<text transform="matrix(1 0 0 1 107.7543 314.614)" className="st6 st7">1</text>
<text transform="matrix(1 0 0 1 78.421 310.1695)" className="st6 st7">1</text>
<text transform="matrix(1 0 0 1 41.8544 294.1649)" className="st6 st7">1</text>
<text transform="matrix(1 0 0 1 24.9653 272.3742)" className="st6 st7">1</text>
<text transform="matrix(1 0 0 1 260.4146 247.948)" className="st6 st7">1</text>
<text transform="matrix(1 0 0 1 261.6627 227.9445)" className="st6 st7">1</text>
<text transform="matrix(1 0 0 1 262.9106 203.2596)" className="st6 st7">1</text>
<text transform="matrix(1 0 0 1 284.7566 174.7646)" className="st6 st7">1</text>
<text transform="matrix(1 0 0 1 247.7546 175.5643)" className="st6 st7">1</text>
<text transform="matrix(1 0 0 1 220.1545 182.7547)" className="st6 st7">1</text>
</svg>
