<?xml version="1.0" encoding="utf-8"?>
<!-- Generator: Adobe Illustrator 25.2.3, SVG Export Plug-In . SVG Version: 6.00 Build 0)  -->
<svg version="1.1" id="Layer_1" xmlns="http://www.w3.org/2000/svg" xmlns:xlink="http://www.w3.org/1999/xlink" x="0px" y="0px"
	 viewBox="0 0 667.7 532.1" style="enable-background:new 0 0 667.7 532.1;" xml:space="preserve">
<style type="text/css">
	.st0{fill:#FBF8CE;stroke:#000000;stroke-width:0.25;stroke-miterlimit:10;}
	.st1{fill:#E3DDEA;stroke:#000000;stroke-width:0.25;stroke-miterlimit:10;}
	.st2{fill:#DAEEF2;stroke:#000000;stroke-width:0.25;stroke-miterlimit:10;}
	.st3{fill:#D7E3BB;stroke:#000000;stroke-width:0.25;stroke-miterlimit:10;}
	.st4{fill:#FBE6D7;stroke:#000000;stroke-width:0.25;stroke-miterlimit:10;}
	.st5{font-family:'MyriadPro-Regular';}
	.st6{font-size:12px;}
</style>
<polygon className="st0" points="667.7,116.1 605.5,132.7 573.5,13.6 636.9,0 "/>
<polygon className="st1" points="605.5,132.7 532.6,150.5 501.8,30.2 573.5,13.6 "/>
<path className="st2" d="M426.5,394.8l53.9,14.1l-39.7,123.2l-55.2-12l23.2-62.7L323,437.9l-92.9-24l-30.5,66L90.5,456.3
	c0,0-111.2-54.7-87.1-189c0.9,0,19.6-96.9,99.6-129.8l24.4,59.1l92.9-27.1l102.7-28l85.8-20l24-4.9L419.3,50
	c29.6-6.8,82.5-19.7,82.5-19.7l30.8,120.3l-82.4,20.7l4.1,59.3l-84.6,17.2l-6.8-55.5l-1.1,0.3l-0.4,0.1l-0.5,0.1l-0.6,0.1l-1,0.2
	l-0.7,0.2l-1.3,0.3l-1.5,0.4l-1.5,0.4c-0.5,0.1-1.1,0.3-1.6,0.4c-1.1,0.3-2.3,0.6-3.5,0.9c-1.2,0.3-2.5,0.6-3.9,0.9l-1.6,0.4
	c-0.2,0-0.3,0.1-0.5,0.1c-0.6,0.2-1.3,0.3-1.9,0.5l-0.9,0.2c-0.6,0.2-1.2,0.3-1.7,0.4c-2.1,0.5-4.2,1-6.3,1.5
	c-0.3,0.1-0.5,0.1-0.8,0.2c-0.3,0.1-0.5,0.1-0.8,0.2c-2.3,0.6-4.6,1.1-6.8,1.7c-0.3,0.1-0.6,0.1-0.9,0.2l-1.5,0.4l-0.7,0.2l-0.8,0.2
	l-1.4,0.3c-0.3,0.1-0.7,0.2-1,0.2l-1,0.2c-0.1,0-0.2,0.1-0.4,0.1l-0.6,0.1l-1,0.2l-0.7,0.2c-0.2,0.1-0.4,0.1-0.6,0.1l-0.6,0.2
	c-0.1,0-0.2,0.1-0.3,0.1l-0.5,0.1c-0.6,0.1-1.2,0.3-1.7,0.4l-0.8,0.2c-0.1,0-0.2,0.1-0.3,0.1l-0.4,0.1c-0.1,0-0.2,0-0.3,0.1
	l-0.5,0.1c-0.9,0.2-1.7,0.4-2.3,0.6c-0.1,0-0.1,0-0.2,0c0,0-0.1,0-0.1,0c-0.1,0-0.1,0-0.2,0c-0.1,0-0.2,0-0.2,0.1
	c-0.1,0-0.1,0-0.2,0c0,0,0,0-0.1,0c0,0,0,0,0,0c-0.1,0-0.2,0-0.2,0.1c-0.1,0-0.3,0.1-0.4,0.1c0,0-0.1,0-0.1,0c0,0-0.1,0-0.1,0
	c0,0-0.1,0-0.1,0l-0.4,0.1c-0.1,0-0.2,0.1-0.3,0.1l-0.3,0.1l-0.1,0c-65.4,14-116.9,33.7-137.5,42.1c-7,2.9-13.4,7.2-18.5,12.8
	c-28.5,31.3-13.7,53.4,0.2,65.2c-38.6-29.8,1.6-67.1,1.6-67.1s-39.1-9.2-39.7-9.5c-46.2,49.8,3.3,89.8,3.3,89.8l34.9-13.2
	c0.1,0.1,0.2,0.1,0.2,0.2c6.9,5.8,15.3,9.6,24.2,11.2l95.1,17l53.6,12l58.2,12.9l12.9-46.3l52.3,12.5L426.5,394.8z"/>
<path className="st3" d="M261.8,303.2l18.2,4.2l-13.7,47.8l-95.1-17c-8.9-1.6-17.3-5.4-24.2-11.2c-0.1-0.1-0.1-0.1-0.2-0.2
	c-13.9-11.7-28.7-33.9-0.2-65.2c5.1-5.6,11.5-9.9,18.5-12.8c20.5-8.5,72.1-28.2,137.5-42.1l4,53.7l-44.7,9.1V303.2z"/>
<polygon className="st0" points="220.3,169.5 127.4,196.6 103,137.5 191.7,108.2 192.1,108.1 193.7,107.5 193.9,107.4 194.5,107.3 "/>
<polygon className="st1" points="323,141.5 220.3,169.5 194.5,107.3 306.5,77.9 "/>
<path className="st4" d="M408.7,121.6l-85.8,20l-16.5-63.5c0,0,0.1-0.1,0.4-0.3c2.1-1.6,12.2-8.9,26.8-15.5c0.2-0.1,0.4-0.2,0.6-0.3
	c17-7.3,40.3-13.3,65.6-8L408.7,121.6z"/>
<path className="st0" d="M432.7,116.6l-24,4.9l-8.9-67.5c0.5,0.2,8.3-1.4,19.5-4L432.7,116.6z"/>
<polygon className="st0" points="496.5,359.1 480.4,408.9 480.4,408.9 426.5,394.8 443.3,346.4 "/>
<polygon className="st4" points="335.2,320.4 319.9,367.3 266.3,355.3 280,307.5 326,318.2 326.9,318.4 "/>
<polygon className="st1" points="391,333.8 378.1,380.1 319.9,367.3 335.2,320.4 "/>
<path className="st1" d="M369.8,247.7l-37.9,7.7l-14.5,2.9l-11,2.2l-4-53.7l0.1,0l0.3-0.1c0.1,0,0.2,0,0.3-0.1l0.4-0.1c0,0,0,0,0,0
	c3.7-0.9,16.2-3.9,28.8-7c2.1-0.5,4.2-1,6.3-1.5c0.9-0.2,1.8-0.4,2.6-0.6c0.7-0.2,1.3-0.3,1.9-0.5c0.2,0,0.3-0.1,0.5-0.1l1.6-0.4
	c1.3-0.3,2.6-0.6,3.9-0.9c1.2-0.3,2.4-0.6,3.5-0.9c0.6-0.1,1.1-0.3,1.6-0.4l1.5-0.4l1.5-0.4l1.3-0.3l0.7-0.2l1-0.2l0.6-0.1l0.5-0.1
	l0.4-0.1l1.1-0.3L369.8,247.7z"/>
<polygon className="st2" points="330.4,255.7 325.4,318.7 324.5,318.5 278.6,307.5 260.3,303.1 260.3,269.9 305,260.8 316,258.6 "/>
<polygon className="st4" points="323,437.9 296.9,501 199.6,479.9 230.1,413.9 "/>
<polygon className="st1" points="408.7,457.4 385.5,520.2 296.9,501 323,437.9 "/>
<path className="st4" d="M146.7,326.9l-34.9,13.2c0,0-49.5-40-3.3-89.8c0.6,0.3,39.7,9.5,39.7,9.5S108.1,297.1,146.7,326.9z"/>
<text transform="matrix(1 0 0 1 159.6588 157.7839)" className="st5 st6">1</text>
<text transform="matrix(1 0 0 1 254.2404 128.886)" className="st5 st6">1</text>
<text transform="matrix(1 0 0 1 361.4213 101.4875)" className="st5 st6">1</text>
<text transform="matrix(1 0 0 1 412.3811 90.9601)" className="st5 st6">1</text>
<text transform="matrix(1 0 0 1 550.1149 77.9298)" className="st5 st6">1</text>
<text transform="matrix(1 0 0 1 617.0779 66.3702)" className="st5 st6">1</text>
<text transform="matrix(1 0 0 1 457.6705 380.1502)" className="st5 st6">1</text>
<text transform="matrix(1 0 0 1 352.8012 355.2597)" className="st5 st6">1</text>
<text transform="matrix(1 0 0 1 295.3746 340.15)" className="st5 st6">1</text>
<text transform="matrix(1 0 0 1 199.6267 295.2597)" className="st5 st6">1</text>
<text transform="matrix(1 0 0 1 291.4786 291.7051)" className="st5 st6">1</text>
<text transform="matrix(1 0 0 1 330.4452 232.8886)" className="st5 st6">1</text>
<text transform="matrix(1 0 0 1 111.186 299.259)" className="st5 st6">1</text>
<text transform="matrix(1 0 0 1 255.4885 461.0368)" className="st5 st6">1</text>
<text transform="matrix(1 0 0 1 346.9442 483.1175)" className="st5 st6">1</text>
<text transform="matrix(1 0 0 1 115.0379 385.9323)" className="st5 st6">1</text>
</svg>
