<?xml version="1.0" encoding="UTF-8"?>
<svg id="Layer_1" xmlns="http://www.w3.org/1999/svg" viewBox="0 0 1042.86 491.13" version="1.1">
<defs>
<style>.cls-1{letter-spacing:-.02em;}.cls-2{letter-spacing:0em;}.cls-3{font-size:19.29px;}.cls-3,.cls-4,.cls-5,.cls-6,.cls-7,.cls-8,.cls-9,.cls-10,.cls-11,.cls-12,.cls-13,.cls-14,.cls-15,.cls-16,.cls-17,.cls-18,.cls-19,.cls-20,.cls-21,.cls-22,.cls-23,.cls-24,.cls-25,.cls-26,.cls-27,.cls-28,.cls-29,.cls-30,.cls-31,.cls-32,.cls-33,.cls-34,.cls-35,.cls-36,.cls-37{fill:#4d4d4d;}.cls-3,.cls-4,.cls-5,.cls-6,.cls-7,.cls-8,.cls-9,.cls-10,.cls-11,.cls-13,.cls-14,.cls-15,.cls-16,.cls-17,.cls-18,.cls-19,.cls-20,.cls-21,.cls-22,.cls-23,.cls-24,.cls-25,.cls-26,.cls-27,.cls-28,.cls-29,.cls-30,.cls-31,.cls-32,.cls-33,.cls-34,.cls-35,.cls-36,.cls-37{font-family:Raleway-Regular, Raleway;isolation:isolate;}.cls-4{font-size:18.3px;}.cls-38{letter-spacing:-.03em;}.cls-39{letter-spacing:-.03em;}.cls-5{font-size:33.77px;}.cls-40{letter-spacing:0em;}.cls-41{letter-spacing:0em;}.cls-42{letter-spacing:-.01em;}.cls-43{letter-spacing:0em;}.cls-6{font-size:12.62px;}.cls-44{letter-spacing:-.01em;}.cls-45{letter-spacing:0em;}.cls-7{font-size:18.3px;}.cls-46{letter-spacing:0em;}.cls-8{font-size:11.94px;}.cls-47{letter-spacing:0em;}.cls-9{font-size:15.84px;}.cls-48{letter-spacing:0em;}.cls-49{letter-spacing:-.03em;}.cls-10{font-size:11.8px;}.cls-50{letter-spacing:0em;}.cls-51{letter-spacing:0em;}.cls-52{letter-spacing:-.01em;}.cls-53{letter-spacing:0em;}.cls-54{letter-spacing:0em;}.cls-55{letter-spacing:0em;}.cls-11{font-size:19.24px;}.cls-56{letter-spacing:-.03em;}.cls-57{letter-spacing:-.02em;}.cls-13{font-size:20.34px;}.cls-58{letter-spacing:-.03em;}.cls-59{letter-spacing:-.03em;}.cls-60{letter-spacing:-.02em;}.cls-61{letter-spacing:0em;}.cls-62{letter-spacing:-.03em;}.cls-63{letter-spacing:-.02em;}.cls-64{letter-spacing:0em;}.cls-65{letter-spacing:-.03em;}.cls-66{letter-spacing:-.02em;}.cls-67{letter-spacing:0em;}.cls-68{letter-spacing:0em;}.cls-69{letter-spacing:0em;}.cls-70{letter-spacing:-.01em;}.cls-71{letter-spacing:0em;}.cls-14{font-size:23.1px;}.cls-72{letter-spacing:0em;}.cls-15{font-size:14.94px;}.cls-16{font-size:14.21px;}.cls-17{font-size:13.56px;}.cls-73{letter-spacing:0em;}.cls-18{font-size:20.34px;}.cls-74{letter-spacing:-.06em;}.cls-19{font-size:20.34px;}.cls-20{font-size:12.53px;}.cls-75{letter-spacing:0em;}.cls-21{font-size:12.77px;}.cls-76{letter-spacing:0em;}.cls-77{letter-spacing:0em;}.cls-78{letter-spacing:-.02em;}.cls-22{font-size:19.02px;}.cls-23{font-size:18.05px;}.cls-24{font-size:15.39px;}.cls-79{letter-spacing:0em;}.cls-80{letter-spacing:-.03em;}.cls-25{font-size:14.76px;}.cls-81{letter-spacing:-.01em;}.cls-82{letter-spacing:0em;}.cls-83{letter-spacing:0em;}.cls-84{fill:none;}.cls-84,.cls-85{stroke:#4d4d4d;stroke-miterlimit:10;}.cls-26{font-size:11.44px;}.cls-86{letter-spacing:0em;}.cls-87{letter-spacing:-.11em;}.cls-27{font-size:13.33px;}.cls-28{font-size:10.96px;}.cls-88{letter-spacing:0em;}.cls-89{letter-spacing:0em;}.cls-29{font-size:11.33px;}.cls-90{letter-spacing:0em;}.cls-91{letter-spacing:-.02em;}.cls-92{letter-spacing:-.03em;}.cls-93{letter-spacing:0em;}.cls-30{font-size:15.61px;}.cls-94{letter-spacing:-.03em;}.cls-95{letter-spacing:-.03em;}.cls-96{letter-spacing:-.02em;}.cls-97{letter-spacing:-.01em;}.cls-98{letter-spacing:-.01em;}.cls-31{font-size:13.29px;}.cls-99{letter-spacing:0em;}.cls-100{letter-spacing:0em;}.cls-101{letter-spacing:0em;}.cls-102{letter-spacing:0em;}.cls-103{letter-spacing:0em;}.cls-104{letter-spacing:-.01em;}.cls-105{letter-spacing:0em;}.cls-106{letter-spacing:-.03em;}.cls-107{letter-spacing:-.01em;}.cls-85{fill:#fff;}.cls-108{letter-spacing:0em;}.cls-109{letter-spacing:0em;}.cls-32{font-size:22.89px;}.cls-33{font-size:9.62px;}.cls-34{font-size:14.78px;}.cls-35{font-size:10.19px;}.cls-110{letter-spacing:0em;}.cls-36{font-size:15.73px;}.cls-111{letter-spacing:0em;}.cls-112{letter-spacing:0em;}.cls-37{font-size:13.05px;}.cls-113{letter-spacing:0em;}.cls-114{letter-spacing:-.08em;}.cls-115{letter-spacing:0em;}</style></defs><polygon className="cls-85" points="343.33 235.03 350.33 262.03 339.63 320.83 221.33 291.03 221.33 263.03 343.33 235.03"/><path className="cls-85" d="M562.83,221.53h-43l3-29c-5.7-16-11.3-32-17-48,13.3-3.7,26.7-7.3,40-11,6.2,16.5,12.3,33,18.5,49.5-.5,12.8-1,25.7-1.5,38.5Z"/><path className="cls-85" d="M785.83,111.53l1.7,51.4-57.2,2.1c-1.2-17.2-2.3-34.3-3.5-51.5,19.7-.7,39.3-1.3,59-2Z"/><path className="cls-85" d="M663.83,15.53c-.7,21.7-1.3,43.3-2,65h66c.2-21.8,.3-43.7,.5-65.5-21.5,.2-43,.3-64.5,.5Z"/><path className="cls-85" d="M577.83,25.53c4.7,20.3,9.3,40.7,14,61l70-6,1.5-65.5c-6.9-3-23.3-9.2-44.5-6.5-20.8,2.6-35.1,12.4-41,17Z"/><path className="cls-85" d="M201.63,119.33l15.2,60.2c-16.7,4-33.3,8-50,12-5.3-20-10.7-40-16-60,16.9-4.1,33.9-8.1,50.8-12.2Z"/><path className="cls-85" d="M480.83,339.53c3.3-14.3,6.7-28.7,10-43-20.3-1.8-40.7-3.7-61-5.5l6,43.5,45,5Z"/><polygon className="cls-85" points="322.83 316.53 311.33 363.03 384.33 381.03 393.33 334.03 322.83 316.53"/><polygon className="cls-85" points="265.33 302.03 322.83 316.53 311.33 363.03 251.33 348.03 265.33 302.03"/><polygon className="cls-85" points="226.83 292.53 265.33 302.03 251.33 348.03 184.33 331.03 226.83 292.53"/><path className="cls-85" d="M221.33,291.03c-.2-4.2-.3-8.3-.5-12.5-37,1.3-74,2.7-111,4-.1,4.5,.3,13,5,22,2.7,5.2,5.9,9,8.5,11.5,20.3,5,40.7,10,61,15,14.2-12.8,28.3-25.7,42.5-38.5-1.8-.5-3.7-1-5.5-1.5Z"/><path className="cls-85" d="M157.83,235.53l63.5,27.5v16l-111.5,3.5c.4-5.2,1.7-11.5,5-18,11.7-23.2,38.8-28.3,43-29Z"/><path className="cls-85" d="M220.83,218.53l12.5,41.5-12,3c-21.2-9.2-42.3-18.3-63.5-27.5,21-5.7,42-11.3,63-17Z"/><polygon className="cls-85" points="255.83 209.53 265.83 252.53 233.33 260.03 220.83 218.53 255.83 209.53"/><polygon className="cls-85" points="291.83 200.53 255.83 209.53 265.83 252.53 301.83 244.53 291.83 200.53"/><polygon className="cls-85" points="291.83 200.53 301.83 244.53 343.33 235.03 332.83 190.53 291.83 200.53"/><path className="cls-85" d="M332.83,190.53c5.8,23.8,11.7,47.7,17.5,71.5l56,7,3-35c-5.2-19.2-10.3-38.3-15.5-57.5-20.3,4.7-40.7,9.3-61,14Z"/><path className="cls-85" d="M505.83,144.53c5.7,16,11.3,32,17,48-1,9.7-2,19.3-3,29h-27l-11,2c-6-22.7-12-45.3-18-68,14-3.7,28-7.3,42-11Z"/><polygon className="cls-85" points="463.83 155.53 423.83 166.53 440.83 231.53 481.83 223.53 463.83 155.53"/><path className="cls-85" d="M666.33,114.03l-1,50-44,5c-3.5-16.8-7-33.7-10.5-50.5l55.5-4.5Z"/><path className="cls-85" d="M545.83,133.53c10.3-2.7,20.7-5.3,31-8l17,50-29.5,7.5c-6.2-16.5-12.3-33-18.5-49.5Z"/><path className="cls-85" d="M610.83,118.53l10.8,50.4c-9.3,2.2-18.5,4.4-27.8,6.6-5.7-16.7-11.3-33.3-17-50,11.3-2.3,22.7-4.7,34-7Z"/><path className="cls-85" d="M787.53,162.93l-4.2-150.9,45-2c5.6-3.2,17.4-9,33.5-9.5,16.4-.5,28.7,4.6,34.5,7.5,13.6-3.8,32.7-7.6,55.5-7.5,25.4,.1,46.2,5,60.5,9.5,6.8,7.7,26,31.3,29.5,67.5,3.2,33.6-8.9,58.7-14,68-3.8,.5-7.7,1-11.5,1.5,4.9,4.6,20.4,20.3,23.5,45.5,2,16-1.9,28.8-4.5,35.5-45,1.3-90,2.7-135,4l-4-119-70,1v23h-15l1,25-24.8,.9Z"/><path className="cls-85" d="M783.33,12.03c.5,22.8,1,45.7,1.5,68.5h-57l.5-65.5c3.8-2.7,14-9.1,28.5-9.5,12.8-.3,22.4,4.2,26.5,6.5Z"/><path className="cls-85" d="M512.83,41.53c6.3,20,12.7,40,19,60l60-15c-4.7-20.3-9.3-40.7-14-61-21.7,5.3-43.3,10.7-65,16Z"/><path className="cls-85" d="M512.83,41.53c6.3,20,12.7,40,19,60-20.3,5-40.7,10-61,15l-17-61c19.7-4.7,39.3-9.3,59-14Z"/><path className="cls-85" d="M302.33,95.03l13.5,59.5,96-23-15.5-62.5c-11.8-.5-28.9,.1-48.5,5.5-20.2,5.5-35.5,13.9-45.5,20.5Z"/><path className="cls-85" d="M396.33,69.03c5.2,20.8,10.3,41.7,15.5,62.5,19.7-5,39.3-10,59-15-5.7-20.3-11.3-40.7-17-61-19.2,4.5-38.3,9-57.5,13.5Z"/><path className="cls-85" d="M301.83,95.53c4.7,19.7,9.3,39.3,14,59-17,4.3-34,8.7-51,13l-15-60c17.3-4,34.7-8,52-12Z"/><path className="cls-85" d="M249.83,107.53l15,60-48,12-15.2-60.2c16.1-3.9,32.1-7.9,48.2-11.8Z"/><path className="cls-85" d="M166.83,191.53c-13.7,3.3-27.3,6.7-41,10-5.2-20.2-10.3-40.3-15.5-60.5l40.1-9.4c3.9,16.6,8.4,33.6,13.6,50.8,.9,3.1,1.9,6.1,2.8,9.1Z"/><path className="cls-85" d="M23.63,216.13l37.7,25.9,64.5-40.5c-5.2-20.2-10.3-40.3-15.5-60.5-12.7,5.2-31,14.4-49.5,30.5-18.5,16-30.2,32.8-37.2,44.6Z"/><path className="cls-85" d="M.83,284.83l45.5-2.8,15-40-37.7-25.9c-4.9,8-10.3,18.5-14.8,31.4-4.9,14.4-7.1,27.3-8,37.3Z"/><path className="cls-85" d="M73.83,321.53l-35.4,69.8c4.8,5.1,10.6,10.6,17.4,16.2,6.1,5,12.1,9.1,17.5,12.5,12.3-28.7,24.7-57.3,37-86l-36.5-12.5Z"/><path className="cls-85" d="M151.83,344.53c-13.8-3.5-27.7-7-41.5-10.5-12.3,28.7-24.7,57.3-37,86,2.7,1.3,5.3,2.7,8,4l38.5,9.5c10.7-29.7,21.3-59.3,32-89Z"/><path className="cls-85" d="M344.83,391.53c-17.1-4.1-34.2-8.1-51.3-12.2l-31.2,89.7,49,11c11.2-29.5,22.3-59,33.5-88.5Z"/><path className="cls-85" d="M151.83,344.53c-10.7,29.7-21.3,59.3-32,89,17.3,4.4,34.7,8.7,52,13.1l29.5-88.6-49.5-13.5Z"/><path className="cls-85" d="M293.83,379.53l-45-12-32.3,89.6,45.8,11.9c10.5-29.8,21-59.7,31.5-89.5Z"/><path className="cls-85" d="M387.83,401.53c-11.3,29.7-22.7,59.3-34,89-14.2-3.5-28.3-7-42.5-10.5,11.2-29.5,22.3-59,33.5-88.5,14.3,3.3,28.7,6.7,43,10Z"/><path className="cls-85" d="M262.33,469.03l31.2-89.7-31.2,89.7Z"/><path className="cls-85" d="M171.83,446.63c9.8-29.5,19.7-59.1,29.5-88.6,15.8,3.2,31.7,6.3,47.5,9.5-11,29.7-22,59.3-33,89-14.7-3.3-29.3-6.6-44-9.9Z"/><polyline className="cls-85" points="425.33 352.03 421.33 352.03 422.33 333.03 493.33 341.03 483.33 400.03 418.33 390.03 419.33 372.03 424.33 372.03"/><line className="cls-84" x1="438.33" y1="353.03" x2="437.33" y2="376.03"/><path className="cls-85" d="M489.33,372.03c-16.9-2.5-33.7-5.1-50.6-7.6"/><text className="cls-18" transform="translate(343.88 469.62) rotate(-71.46)"><tspan className="cls-49" x="0" y="0">A</tspan><tspan className="cls-73" x="13.06" y="0">ySa </tspan></text><text className="cls-19" transform="translate(297.83 461.72) rotate(-73.34)"><tspan x="0" y="0">SS.555</tspan></text><text className="cls-13" transform="translate(250.73 454.72) rotate(-73.13)"><tspan className="cls-48" x="0" y="0">L</tspan><tspan className="cls-51" x="11.74" y="0">u</tspan><tspan className="cls-112" x="23.82" y="0">c</tspan><tspan className="cls-51" x="34.88" y="0">eria</tspan></text><text className="cls-18" transform="translate(203.29 443.52) rotate(-70.88)"><tspan x="0" y="0">Hit Sa</tspan><tspan className="cls-99" x="54.88" y="0">a</tspan><tspan x="65.88" y="0">t</tspan></text><text className="cls-4" transform="translate(153.95 417.64) rotate(-70.88)"><tspan x="0" y="0">Lad</tspan><tspan className="cls-95" x="32.03" y="0">y</tspan><tspan x="41.45" y="0"> </tspan></text><text className="cls-4" transform="translate(171.11 424.01) rotate(-70.88)"><tspan x="0" y="0">Vibes</tspan></text><g><text className="cls-7" transform="translate(100.81 400.29) rotate(-70.38)"><tspan className="cls-74" x="0" y="0">AV</tspan><tspan className="cls-62" x="22.56" y="0">A</tspan><tspan x="34.37" y="0"> </tspan></text><text className="cls-7" transform="translate(112.31 422.54) rotate(-70.38)"><tspan x="0" y="0">boutique</tspan></text></g><text className="cls-4" transform="translate(151.57 191.03) rotate(-103.24)"><tspan x="0" y="0">Gun</tspan><tspan className="cls-58" x="34.64" y="0">A</tspan><tspan className="cls-92" x="46.39" y="0">y</tspan></text><g><text className="cls-4" transform="translate(186.92 176.46) rotate(-103.61)"><tspan className="cls-115" x="0" y="0">A</tspan><tspan x="12.26" y="0">s</tspan><tspan className="cls-72" x="21.17" y="0">k</tspan><tspan x="30.75" y="0">a</tspan></text><text className="cls-4" transform="translate(204.82 172.64) rotate(-103.61)"><tspan x="0" y="0">butik</tspan></text></g><text className="cls-4" transform="translate(244.59 166.21) rotate(-103.61)"><tspan x="0" y="0">Sonia</tspan></text><text className="cls-25" transform="translate(326.41 237.54) rotate(-102.67)"><tspan x="0" y="0">Kapris</tspan></text><text className="cls-20" transform="translate(286.9 247.45) rotate(-102.67)"><tspan className="cls-61" x="0" y="0">M</tspan><tspan x="10.9" y="0">eriluu</tspan></text><g><text className="cls-28" transform="translate(248.83 255.83) rotate(-104.05)"><tspan className="cls-45" x="0" y="0">H</tspan><tspan x="8.03" y="0">ədiy</tspan><tspan className="cls-107" x="29.6" y="0">y</tspan><tspan x="35.37" y="0">ə </tspan></text><text className="cls-28" transform="translate(257.17 243.84) rotate(-104.05)"><tspan x="0" y="0">Baku</tspan></text></g><g><text className="cls-28" transform="translate(152.99 279.69) rotate(-88.92)"><tspan x="0" y="0">Gümüş</tspan></text><text className="cls-28" transform="translate(164.04 277.2) rotate(-88.92)"><tspan x="0" y="0" xml:space="preserve"> Butiki</tspan></text></g><text className="cls-15" transform="translate(167.3 317.95) rotate(-88.92)"><tspan className="cls-98" x="0" y="0">Z</tspan><tspan x="9.23" y="0">ərli</tspan></text><g><text className="cls-37" transform="translate(454.9 336) rotate(-84.33)"><tspan className="cls-101" x="0" y="0">P</tspan><tspan x="8.05" y="0">anda </tspan></text><text className="cls-37" transform="translate(468.03 336.4) rotate(-84.33)"><tspan x="0" y="0">C</tspan><tspan className="cls-75" x="8.95" y="0">o</tspan><tspan className="cls-56" x="16.61" y="0">ff</tspan><tspan x="23.87" y="0">ee</tspan></text></g><text className="cls-10" transform="translate(233.13 342.08) rotate(-71.22)"><tspan className="cls-113" x="0" y="0">R</tspan><tspan className="cls-50" x="7.65" y="0">isp</tspan><tspan className="cls-93" x="23.25" y="0">e</tspan><tspan x="30.13" y="0">t</tspan><tspan className="cls-52" x="34.09" y="0">t</tspan><tspan x="37.89" y="0">o</tspan></text><g><text className="cls-33" transform="translate(352.03 358.94) rotate(-74.77)"><tspan x="0" y="0">SK</tspan><tspan className="cls-59" x="12.02" y="0">Y</tspan><tspan className="cls-53" x="17.96" y="0"> </tspan></text><text className="cls-33" transform="translate(358.14 373.04) rotate(-74.77)"><tspan className="cls-1" x="0" y="0">E</tspan><tspan x="5.63" y="0">duc</tspan><tspan className="cls-105" x="22.6" y="0">a</tspan><tspan x="27.81" y="0">tion</tspan></text></g><g><text className="cls-21" transform="translate(279.8 347.92) rotate(-74.77)"><tspan x="0" y="0">Dərzi </tspan></text><text className="cls-21" transform="translate(291.52 353.6) rotate(-74.77)"><tspan className="cls-78" x="0" y="0">A</tspan><tspan className="cls-81" x="8.43" y="0">t</tspan><tspan x="12.54" y="0">e</tspan><tspan className="cls-97" x="20.04" y="0">l</tspan><tspan className="cls-60" x="23.38" y="0">y</tspan><tspan x="30.07" y="0">e</tspan></text></g><text className="cls-34" transform="translate(294.68 302.69) rotate(-81.05)"><tspan x="0" y="0">S</tspan><tspan className="cls-82" x="8.97" y="0">a</tspan><tspan x="16.97" y="0">ff</tspan><tspan className="cls-38" x="25.57" y="0">r</tspan><tspan className="cls-89" x="30.38" y="0">on</tspan></text><g><text className="cls-28" transform="translate(215.51 258.27) rotate(-106.6)"><tspan x="0" y="0"> </tspan><tspan className="cls-69" x="2.79" y="0">L</tspan><tspan x="9.11" y="0">usso </tspan></text><text className="cls-28" transform="translate(226.11 255.32) rotate(-106.6)"><tspan x="0" y="0">Galler</tspan><tspan className="cls-80" x="30.05" y="0">y</tspan></text></g><text className="cls-26" transform="translate(293.8 159.18) rotate(-103.61)"><tspan x="0" y="0">la</tspan><tspan className="cls-90" x="9.35" y="0">c</tspan><tspan x="15.58" y="0">osm</tspan><tspan className="cls-64" x="38.48" y="0">e</tspan><tspan className="cls-110" x="45.15" y="0">tic</tspan></text><g><text className="cls-24" transform="translate(354.88 133.31) rotate(-104.41)"><tspan className="cls-103" x="0" y="0">P</tspan><tspan x="9.43" y="0">o</tspan><tspan className="cls-94" x="18.59" y="0">r</tspan><tspan x="23.59" y="0">om</tspan></text><text className="cls-24" transform="translate(371.94 137.81) rotate(-104.41)"><tspan x="0" y="0">Boutique</tspan></text></g><g><text className="cls-27" transform="translate(429.09 105.57) rotate(-104.86)"><tspan x="0" y="0">Mix</tspan></text><text className="cls-27" transform="translate(449.01 118.29) rotate(-104.86)"><tspan x="0" y="0">Boutique</tspan></text></g><text className="cls-32" transform="translate(507.09 97.47) rotate(-106.53)"><tspan className="cls-96" x="0" y="0">Z</tspan><tspan className="cls-86" x="13.99" y="0">e</tspan><tspan className="cls-68" x="27.42" y="0">r</tspan><tspan x="35.3" y="0">a</tspan></text><text className="cls-22" transform="translate(567 88.54) rotate(-105.84)"><tspan x="0" y="0">Arzum</tspan></text><text className="cls-14" transform="translate(633.74 76.48) rotate(-101.95)"><tspan className="cls-114" x="0" y="0">F</tspan><tspan className="cls-70" x="11.64" y="0">a</tspan><tspan className="cls-91" x="23.91" y="0">v</tspan><tspan x="35.81" y="0">o</tspan><tspan className="cls-63" x="49.56" y="0">r</tspan></text><g><text className="cls-23" transform="translate(692.1 59.54) rotate(-89.12)"><tspan className="cls-40" x="0" y="0">İ</tspan><tspan x="4.39" y="0">st </tspan></text><text className="cls-23" transform="translate(709.89 73.21) rotate(-89.12)"><tspan x="0" y="0">B</tspan><tspan className="cls-39" x="12.02" y="0">r</tspan><tspan className="cls-77" x="17.89" y="0">end</tspan></text></g><text className="cls-17" transform="translate(644.96 164.47) rotate(-97.91)"><tspan x="0" y="0">Ga</tspan><tspan className="cls-100" x="17.09" y="0">r</tspan><tspan className="cls-54" x="21.76" y="0">age</tspan></text><text className="cls-8" transform="translate(610.14 168.68) rotate(-107.32)"><tspan x="0" y="0">A</tspan><tspan className="cls-83" x="8.07" y="0">k</tspan><tspan className="cls-46" x="14.31" y="0">a</tspan><tspan className="cls-79" x="20.77" y="0">tsuki</tspan></text><g><text className="cls-6" transform="translate(572.03 168.17) rotate(-108.66)"><tspan className="cls-87" x="0" y="0">T</tspan><tspan x="6.31" y="0">ac </tspan></text><text className="cls-6" transform="translate(586.02 170.2) rotate(-108.66)"><tspan className="cls-109" x="0" y="0">S</tspan><tspan className="cls-47" x="7.59" y="0">tudio</tspan></text></g><g><text className="cls-36" transform="translate(540.11 195.16) rotate(-104.83)"><tspan className="cls-104" x="0" y="0">A</tspan><tspan className="cls-55" x="10.44" y="0">ff</tspan><tspan className="cls-67" x="19.47" y="0">a</tspan></text><text className="cls-36" transform="translate(560.13 209.41) rotate(-104.83)"><tspan x="0" y="0">Boutique</tspan></text></g><g><text className="cls-31" transform="translate(501.53 215.32) rotate(-102.44)"><tspan x="0" y="0">SS Prin</tspan><tspan className="cls-102" x="43.11" y="0">c</tspan><tspan x="50.34" y="0">e </tspan></text><text className="cls-31" transform="translate(513.44 207.57) rotate(-102.44)"><tspan x="0" y="0">Prin</tspan><tspan className="cls-102" x="23.58" y="0">c</tspan><tspan className="cls-43" x="30.81" y="0">ess</tspan></text></g><g><text className="cls-9" transform="translate(453.59 212.98) rotate(-104.03)"><tspan x="0" y="0">Ana</tspan><tspan className="cls-66" x="28.58" y="0">r</tspan></text><text className="cls-9" transform="translate(469.28 210.6) rotate(-104.03)"><tspan x="0" y="0">Butik</tspan></text></g><g><text className="cls-30" transform="translate(379.02 249.84) rotate(-103.86)"><tspan x="0" y="0">Winnie </tspan></text><text className="cls-30" transform="translate(395.91 253.19) rotate(-103.86)"><tspan x="0" y="0">The </tspan><tspan className="cls-108" x="31.76" y="0">P</tspan><tspan x="41.32" y="0">ooh</tspan></text></g><g><text className="cls-11" transform="translate(749.51 60.85) rotate(-89.16)"><tspan x="0" y="0">M</tspan><tspan className="cls-106" x="16.87" y="0">T</tspan></text><text className="cls-11" transform="translate(768.54 72.93) rotate(-89.16)"><tspan x="0" y="0">outl</tspan><tspan className="cls-71" x="34.55" y="0">e</tspan><tspan className="cls-76" x="45.77" y="0">t</tspan></text></g><text className="cls-29" transform="translate(755.5 160.05) rotate(-90.72)"><tspan className="cls-111" x="0" y="0">N</tspan><tspan x="8.69" y="0">a</tspan><tspan className="cls-65" x="14.86" y="0">r</tspan><tspan x="18.54" y="0">cisse</tspan></text><g><text className="cls-5" transform="translate(861.82 56.53) rotate(-.26)"><tspan x="0" y="0">Şe</tspan><tspan className="cls-57" x="40.36" y="0">r</tspan><tspan x="51.4" y="0"> </tspan></text><text className="cls-5" transform="translate(804.87 90.58) rotate(-.26)"><tspan x="0" y="0">A</tspan><tspan className="cls-88" x="22.83" y="0">k</tspan><tspan x="40.49" y="0">ademi</tspan><tspan className="cls-44" x="138.13" y="0">y</tspan><tspan className="cls-41" x="156" y="0">a</tspan></text></g><g><text className="cls-16" transform="translate(60.06 391.81) rotate(-69.21)"><tspan x="0" y="0">CH men</tspan></text><text className="cls-16" transform="translate(71.34 402.08) rotate(-69.21)"><tspan className="cls-2" x="0" y="0">c</tspan><tspan x="7.73" y="0">ollection</tspan></text></g><g><text className="cls-35" transform="translate(17.27 266.65) rotate(-69.9)"><tspan x="0" y="0">Xiomi </tspan></text><text className="cls-35" transform="translate(23.35 279.73) rotate(-69.9)"><tspan x="0" y="0">A</tspan><tspan className="cls-42" x="6.89" y="0">z</tspan><tspan x="11.76" y="0">erbaijan</tspan></text></g><text className="cls-3" transform="translate(47.17 224.93) rotate(-36.93)"><tspan x="0" y="0">Kart Kriss</tspan></text><path className="cls-12" d="M41.33,323.43l-4.1,2.3c-.6,.4-1.1,.9-1.3,1.7l-1.4,4.9-1.3-1.4c-.6-.6-1.3-1-2.1-1.1,.2-.8,0-1.6-.4-2.3-.9-1.6-3-2.2-4.6-1.3s-2.2,3-1.3,4.6c.4,.8,1.1,1.3,1.9,1.6-.2,.7-.2,1.5,.2,2.2l4.5,8.2-.7,2.3-1.4,.8c-2.4,1.3-3.3,4.4-2,6.9,1.3,2.4,4.4,3.3,6.9,2h0l4.1-2.3c.6-.4,1.1-.9,1.3-1.6l5.1-17.7,1.4-.8c2.4-1.3,3.3-4.4,2-6.9s-4.4-3.5-6.8-2.1h0Zm2.3,8.2c-.2,.1-.4,.3-.4,.5l-5.2,18.1c-.1,.2-.2,.4-.4,.5l-4.1,2.3c-1.6,.9-3.5,.3-4.4-1.3s-.3-3.5,1.3-4.4l1.7-.9c.2-.1,.4-.3,.4-.6l5.2-18.1c.1-.2,.2-.4,.4-.6l4.1-2.3c1.6-.9,3.5-.3,4.4,1.3s.3,3.5-1.3,4.4l-1.7,1.1Zm-16.5-3.9c.7-.4,1.7-.1,2.1,.6,.4,.7,.1,1.7-.6,2.1-.7,.4-1.7,.1-2.1-.6s-.2-1.7,.6-2.1Zm1.4,5.9c-.2-.4-.1-1,.4-1.2l1.1-.6c.6-.3,1.4-.2,1.9,.3l2,2.2-1.7,5.9-3.7-6.6Zm20.9,2.2l-3.2,1.8c-.4,.2-.6,.8-.4,1.2s.8,.6,1.2,.4l1.3-.7-1.3,4.5c-.1,.5,.1,1,.6,1.1,.2,.1,.5,0,.7-.1s.4-.3,.4-.5l1.3-4.5,.7,1.3c.2,.4,.8,.6,1.2,.4s.6-.8,.4-1.2l-1.8-3.2c-.1-.6-.6-.7-1.1-.5Z"/><polyline className="cls-85" points="440.83 231.53 434.83 236.53 433.83 245.53"/><path className="cls-84" d="M.73,284.83c-.7,12.7-.3,34.7,9.1,59.7,8.4,22.2,20.4,37.8,28.6,46.8"/><polyline className="cls-84" points="388.33 402.03 524.33 422.03 538.33 347.03 560.33 347.03 564.33 183.03 621.33 169.03 665.33 164.03 666.33 114.03 726.83 113.53 730.33 165.03 812.33 162.03 811.33 137.03 826.33 137.03 826.33 114.03 896.33 113.03 900.33 232.03 1035.33 228.03"/></svg>