<?xml version="1.0" encoding="utf-8"?>
<!-- Generator: Adobe Illustrator 25.2.3, SVG Export Plug-In . SVG Version: 6.00 Build 0)  -->
<svg version="1.1" id="Layer_1" xmlns="http://www.w3.org/2000/svg" xmlns:xlink="http://www.w3.org/1999/xlink" x="0px" y="0px"
	 viewBox="0 0 841.9 396" style="enable-background:new 0 0 841.9 396;" xml:space="preserve">
<style type="text/css">
	.st0{fill:#DAEEF2;stroke:#000000;stroke-width:0.25;stroke-miterlimit:10;}
	.st1{fill:#E3DDEA;stroke:#000000;stroke-width:0.25;stroke-miterlimit:10;}
	.st2{fill:#D7E3BB;stroke:#000000;stroke-width:0.25;stroke-miterlimit:10;}
	.st3{fill:#FBF8CE;stroke:#000000;stroke-width:0.25;stroke-miterlimit:10;}
	.st4{fill:#FBE6D7;stroke:#000000;stroke-width:0.25;stroke-miterlimit:10;}
	.st5{fill:none;stroke:#000000;stroke-miterlimit:10;}
	.st6{font-family:'MyriadPro-Regular';}
	.st7{font-size:12px;}
</style>
<polygon className="st0" points="422.9,154.5 420.9,177.9 397.7,178.2 389.7,180.3 375.5,125.2 408.4,116 "/>
<polygon className="st1" points="635.2,131.6 588.5,133.2 586.3,91.7 634.3,90.2 "/>
<path className="st2" d="M833.6,183.6c0.2,0-108,2.7-108,2.7l-3.1-95.1h-56.9v19.1l-12-0.2l0.9,20.7l-19.5,0.7l-0.9-41.7l-1.7-79.5
	c0.3,0.1,0.2-0.1,0-0.3l0-0.3c1-0.1,35.5-1.3,35.5-1.3s28.5-15.1,54.2-1.3c0.5,0,54.7-14.7,93.3,1.8c0.4,0.5,42,37.8,13.1,108.7
	c0.2,0.7-10.9,0.7-10.9,0.7S850.9,141.8,833.6,183.6z"/>
<path className="st1" d="M633.8,64.7h-47.5V12.4c0,0,25-13.1,46.2-2.7c-0.1,0,0,0.2,0.2,0.4v0.3l0,0L633.8,64.7z"/>
<path className="st1" d="M586.3,12.4v52.2h-51.9l2.8-51.8C537.1,13.8,586.3,12.4,586.3,12.4z"/>
<path className="st3" d="M633.8,64.7h-99.4l-56.7,4.9l-48.2,12l-49.6,12l-47.1,11.8l-76.5,19.9l-41.8,9.5l-37.8,10.2l-40.5,9.1
	l-33.3,7.8l-51.5,32.5l-12.2,32.7c0,0-37.2,2.4-37.2,2.6c-3,37.3,13.9,65.6,31.2,84.3C33.5,314,61.6,258,61.6,258l29.5,11.1
	l32.9,7.8l39.8,10.9l38.4,7.8l36,9.8l40.7,9.1l34.7,8.2l109.3,16l11.5-60h17.8l3.6-130.5l-1.2,30.4l-33.7-0.6l-23.2,0.3l-8,2.1
	l-33.2,6.2l-13.9-53l32.9-8.3l32.9-9.2l32-8.9l25.8-6.2l26.7-5.9l43.2-3.2h0l1.2-0.1v0.1l49-0.1l48-1.8L633.8,64.7z M328.7,216.9
	l-45.2-6.2l-8.3,47l-59.7-14.4l46.1,11.2l56.9,14.8l-7.2,37.8l-59.2-15l-47.6-11.4l11-37.4l-31.1-7.5l-34.6,30.6
	c0,0-46.5-11.3-46.6-11.9c-8.7-10.5-12.2-19.6-12.5-27.2c-0.9-26.9,38.6-37.2,38.6-37.2l0.6-0.2l49.8-13.6l28.2-7.1l29-7.3l32.3-7.8
	l49.4-11.1l12.4,46.1L328.7,216.9z M397.8,238.2l-9.2,34.4l-36.7-4l-4.3-34.7L397.8,238.2z M399.2,274.1l-8.9,48l-52.3-7.6l3.1-47
	L399.2,274.1z"/>
<path className="st4" d="M214.7,134.7l-37.8,10.2l-12.5-48.2c13.2-3.1,26.6-6.3,38.5-9.2L214.7,134.7z"/>
<polygon className="st4" points="537.3,132.6 502.3,135.6 492.8,95 536,91.8 "/>
<polygon className="st2" points="502.3,135.6 479.7,141.7 466.2,100.9 492.8,95 "/>
<polygon className="st4" points="479.7,141.7 455.8,148.1 440.4,107.1 466.2,100.9 "/>
<polygon className="st4" points="455.8,148.1 454.6,178.5 420.9,177.9 422.9,154.5 408.4,116 440.4,107.1 "/>
<polygon className="st2" points="389.7,180.3 356.5,186.5 342.6,133.5 375.5,125.2 "/>
<line className="st5" x1="630.7" y1="8.8" x2="630.7" y2="8.7"/>
<path className="st2" d="M537.3,12.9l-2.8,51.8l-56.7,4.9l-11.6-47.8c0,0,0.1-0.1,0.3-0.3c0.1,0,0.1-0.1,0.2-0.1
	c0.1-0.1,0.2-0.2,0.4-0.3c0.3-0.2,0.7-0.5,1.1-0.8c0.1-0.1,0.2-0.2,0.3-0.2c1.2-0.9,2.9-2,4.9-3.2c0.4-0.2,0.8-0.5,1.3-0.7
	c0.9-0.5,1.8-1,2.9-1.5c0.2-0.1,0.5-0.2,0.7-0.4c1.8-0.9,3.9-1.8,6.1-2.6c0,0,0,0,0.1,0c0.1,0,0.2-0.1,0.3-0.1
	c0.2-0.1,0.4-0.1,0.6-0.2c0.3-0.1,0.7-0.2,1-0.4C498.8,6.6,516.4,4.5,537.3,12.9z"/>
<polygon className="st1" points="477.8,69.6 429.6,81.6 415.2,34.1 434,29.5 438.2,28.5 466.2,21.8 "/>
<polygon className="st4" points="429.6,81.6 380,93.6 367,45.7 381.8,42.2 392.6,39.5 415.2,34.1 "/>
<polygon className="st1" points="380,93.6 332.9,105.3 321.1,56.9 325,55.9 326.2,55.6 326.9,55.5 328.7,55 329.3,54.9 330,54.7 
	332,54.2 332.8,54 335.1,53.5 336.8,53.1 338.5,52.6 340.3,52.2 346.1,50.8 350.3,49.8 354.7,48.7 357.5,48 358.9,47.7 367,45.7 "/>
<path className="st0" d="M332.9,105.3l-76.5,19.9l-10.9-47.9c0,0,0,0,0.1-0.1c0,0,0.1,0,0.1-0.1c2.6-1.8,31.6-22,67.1-21
	c0.7,0,1.3,0,2,0.1c1,0.1,2.1,0.1,3.1,0.2c0.5,0,1,0.1,1.6,0.1c0.5,0.1,1.1,0.1,1.6,0.2L332.9,105.3z"/>
<path className="st2" d="M256.4,125.2l-41.8,9.5L203,87.5l7.3-1.7l3-0.7l2.9-0.7l2.8-0.7c0.9-0.2,1.8-0.4,2.7-0.6l5.1-1.2l4.6-1.1
	l2.1-0.5l11.9-2.9L256.4,125.2z"/>
<path className="st0" d="M176.9,144.9l-40.5,9.1l-13.1-47.6l6.4-1.5l10.7-2.5c1.9-0.4,3.7-0.9,5.6-1.3l5.7-1.4l12.6-3L176.9,144.9z"/>
<path className="st2" d="M136.4,154l-33.3,7.8l-11.8-48.1c0,0.2,13-2.8,31.5-7.1l0.5-0.1L136.4,154z"/>
<path className="st0" d="M103.1,161.8l-51.5,32.5l-31.3-20.5c0-0.1,0.1-0.1,0.1-0.2c1.5-2.3,14.7-22.5,36.5-40c0,0,0.1-0.1,0.2-0.1
	c15.8-11.8,30-18,33.5-19.5c0.5-0.2,0.8-0.3,0.8-0.3L103.1,161.8z"/>
<path className="st4" d="M51.6,194.2l-12.2,32.7c0,0-37.2,2.4-37.2,2.6c0-0.2,0-0.5,0.1-0.7c1.5-16.6,6.9-34.9,18-55c0,0,0-0.1,0-0.1
	L51.6,194.2z"/>
<path className="st4" d="M91.1,269.1l-29.5,68.6c0,0-0.1,0-0.2-0.1c0,0-0.1-0.1-0.2-0.1c-1.9-1.3-11.3-8-19.5-15.3
	c-0.1-0.1-0.3-0.2-0.4-0.3c-2.6-2.4-5.2-5-7.9-7.9c-0.1-0.1-0.1-0.1-0.2-0.2C33.5,314,61.6,258,61.6,258L91.1,269.1z"/>
<polygon className="st0" points="124,276.9 98.9,348.7 66,340.4 65.8,340.3 65.7,340.3 61.6,337.7 61.6,337.7 91.1,269.1 "/>
<polygon className="st0" points="202.2,295.6 175.6,368.1 139.6,359 163.8,287.8 "/>
<polygon className="st4" points="163.8,287.8 139.6,359 98.9,348.7 124,276.9 "/>
<polygon className="st0" points="238.2,305.3 213,377.5 175.6,368.1 202.2,295.6 "/>
<polygon className="st4" points="278.9,314.4 252.2,387.4 213,377.5 238.2,305.3 "/>
<polygon className="st0" points="313.6,322.7 286.4,396 252.2,387.4 278.9,314.4 "/>
<polygon className="st0" points="330.9,188.9 328.7,216.9 283.5,210.7 278,188.9 269.1,153.9 318.5,142.8 "/>
<polygon className="st1" points="278,188.9 244.7,196.6 236.8,161.8 269.1,153.9 "/>
<polygon className="st0" points="244.7,196.6 215.4,203.4 207.8,169 236.8,161.8 "/>
<polygon className="st4" points="215.4,203.4 192.6,208.7 192.5,208.7 189.7,209.3 179.6,176.1 207.8,169 "/>
<polygon className="st1" points="189.7,209.3 179.6,211.7 129.8,189.8 179.6,176.1 "/>
<polygon className="st0" points="283.5,210.7 275.2,257.6 215.5,243.2 184.3,235.7 179.6,234.5 179.6,211.7 192.5,208.7 192.6,208.7 
	215.4,203.4 245.1,196.5 278,188.9 278,188.9 "/>
<polygon className="st4" points="261.6,254.3 252.2,292 204.5,280.6 215.5,243.2 "/>
<polygon className="st0" points="318.5,269.2 311.3,307 252.2,292 261.6,254.3 "/>
<path className="st0" d="M179.6,211.7v13l-89,2.4c-0.9-26.9,38.6-37.2,38.6-37.2L179.6,211.7z"/>
<path className="st0" d="M184.8,235.8l-35.1,30.5c0,0-46.5-11.3-46.6-11.9c-8.7-10.5-12.2-19.6-12.5-27.2l89-2.4v9.8L184.8,235.8z"/>
<line className="st5" x1="90.6" y1="227.1" x2="90.6" y2="227.1"/>
<polygon className="st1" points="397.8,238.2 388.7,272.6 351.9,268.6 347.6,233.9 "/>
<polygon className="st1" points="399.2,274.1 390.3,322.1 338,314.4 341.1,267.4 "/>
<polygon className="st1" points="149.7,266.2 184.8,235.8 215.5,243.2 204.5,280.6 "/>
<text transform="matrix(1 0 0 1 750.5948 63.8205)" className="st6 st7">1</text>
<text transform="matrix(1 0 0 1 606.595 42.8147)" className="st6 st7">1</text>
<text transform="matrix(1 0 0 1 562.7712 42.8145)" className="st6 st7">1</text>
<text transform="matrix(1 0 0 1 501.7048 45.7257)" className="st6 st7">1</text>
<text transform="matrix(1 0 0 1 444.6746 56.021)" className="st6 st7">1</text>
<text transform="matrix(1 0 0 1 399.1898 67.4052)" className="st6 st7">1</text>
<text transform="matrix(1 0 0 1 347.6298 77.3355)" className="st6 st7">1</text>
<text transform="matrix(1 0 0 1 292.9711 90.2057)" className="st6 st7">1</text>
<text transform="matrix(1 0 0 1 229.7099 107.1158)" className="st6 st7">1</text>
<text transform="matrix(1 0 0 1 189.6999 121.338)" className="st6 st7">1</text>
<text transform="matrix(1 0 0 1 150.1252 128.8961)" className="st6 st7">1</text>
<text transform="matrix(1 0 0 1 110.8891 133.1858)" className="st6 st7">1</text>
<text transform="matrix(1 0 0 1 62.2149 161.7754)" className="st6 st7">1</text>
<text transform="matrix(1 0 0 1 26.8601 208.5206)" className="st6 st7">1</text>
<text transform="matrix(1 0 0 1 66.0667 237.854)" className="st6 st7">1</text>
<text transform="matrix(1 0 0 1 135.1171 245.4851)" className="st6 st7">1</text>
<text transform="matrix(1 0 0 1 135.1172 216.8854)" className="st6 st7">1</text>
<text transform="matrix(1 0 0 1 167.5616 196.6253)" className="st6 st7">1</text>
<text transform="matrix(1 0 0 1 193.5516 193.9255)" className="st6 st7">1</text>
<text transform="matrix(1 0 0 1 223.6598 186.5153)" className="st6 st7">1</text>
<text transform="matrix(1 0 0 1 254.3264 179.8503)" className="st6 st7">1</text>
<text transform="matrix(1 0 0 1 301.882 182.5954)" className="st6 st7">1</text>
<text transform="matrix(1 0 0 1 231.5552 224.7454)" className="st6 st7">1</text>
<text transform="matrix(1 0 0 1 184.8364 262.0787)" className="st6 st7">1</text>
<text transform="matrix(1 0 0 1 231.5549 272.5952)" className="st6 st7">1</text>
<text transform="matrix(1 0 0 1 282.8602 287.7751)" className="st6 st7">1</text>
<text transform="matrix(1 0 0 1 366.1449 300.6641)" className="st6 st7">1</text>
<text transform="matrix(1 0 0 1 372.7399 258.1844)" className="st6 st7">1</text>
<text transform="matrix(1 0 0 1 364.1045 161.7754)" className="st6 st7">1</text>
<text transform="matrix(1 0 0 1 397.85 153.9257)" className="st6 st7">1</text>
<text transform="matrix(1 0 0 1 434.7389 144.8855)" className="st6 st7">1</text>
<text transform="matrix(1 0 0 1 455.7797 130.6633)" className="st6 st7">1</text>
<text transform="matrix(1 0 0 1 479.6504 125.3254)" className="st6 st7">1</text>
<text transform="matrix(1 0 0 1 515.035 118.3254)" className="st6 st7">1</text>
<text transform="matrix(1 0 0 1 607.8428 117.5254)" className="st6 st7">1</text>
<text transform="matrix(1 0 0 1 278.8901 355.2205)" className="st6 st7">1</text>
<text transform="matrix(1 0 0 1 242.4457 355.2205)" className="st6 st7">1</text>
<text transform="matrix(1 0 0 1 204.5199 346.3454)" className="st6 st7">1</text>
<text transform="matrix(1 0 0 1 159.7699 338.5454)" className="st6 st7">1</text>
<text transform="matrix(1 0 0 1 125.9921 327.9202)" className="st6 st7">1</text>
<text transform="matrix(1 0 0 1 90.5899 314.4459)" className="st6 st7">1</text>
<text transform="matrix(1 0 0 1 55.4788 300.6638)" className="st6 st7">1</text>
</svg>
