<?xml version="1.0" encoding="utf-8"?>
<!-- Generator: Adobe Illustrator 25.2.3, SVG Export Plug-In . SVG Version: 6.00 Build 0)  -->
<svg version="1.1" id="Layer_1" xmlns="http://www.w3.org/2000/svg" xmlns:xlink="http://www.w3.org/1999/xlink" x="0px" y="0px"
	 viewBox="0 0 1039.5 1303.63" style="enable-background:new 0 0 1039.5 1303.63;" xml:space="preserve">
<style type="text/css">
	.st0{fill:#ECF1DF;stroke:#010101;stroke-miterlimit:10;}
	.st1{fill:#DAEEF4;stroke:#010101;stroke-miterlimit:10;}
	.st2{fill:#E4DFEC;stroke:#010101;stroke-miterlimit:10;}
	.st3{fill:#FBE8D9;stroke:#010101;stroke-miterlimit:10;}
	.st4{fill:#DED9C5;stroke:#010101;stroke-miterlimit:10;}
	.st5{fill:#DCE5F0;stroke:#010101;stroke-miterlimit:10;}
	.st6{fill:#F1DCDA;stroke:#010101;stroke-miterlimit:10;}
	.st7{fill:#ECF1DE;stroke:#010101;stroke-miterlimit:10;}
	.st8{fill:#FDE8D8;stroke:#010101;stroke-miterlimit:10;}
	.st9{fill:#DAEEF4;stroke:#010101;stroke-width:0.25;stroke-miterlimit:10;}
	.st10{fill:none;stroke:#010101;stroke-miterlimit:10;}
	.st11{fill:#C5D9F0;stroke:#010101;stroke-miterlimit:10;}
	.st12{fill:#DDDAC4;stroke:#010101;stroke-miterlimit:10;}
	.st13{fill:#D7E4BF;stroke:#010101;stroke-miterlimit:10;}
	.st14{fill:#F0DBDE;stroke:#010101;stroke-miterlimit:10;}
	.st15{fill:#D3EEF4;stroke:#010101;stroke-miterlimit:10;}
	.st16{fill:#F7F7CB;stroke:#010101;stroke-miterlimit:10;}
	.st17{fill:#F6EC19;stroke:#010101;stroke-miterlimit:10;}
	.st18{fill:#DDA0C8;stroke:#010101;stroke-miterlimit:10;}
	.st19{fill:#FBF8CB;stroke:#010101;stroke-miterlimit:10;}
	.st20{fill:#FFE8D3;stroke:#010101;stroke-miterlimit:10;}
	.st21{fill:#FCF9CF;stroke:#010101;stroke-miterlimit:10;}
	.st22{fill:#D7E9EF;stroke:#010101;stroke-miterlimit:10;}
	.st23{fill:#F8EC28;stroke:#010101;stroke-miterlimit:10;}
	.st24{fill:#F2DCDB;stroke:#010101;stroke-miterlimit:10;}
	.st25{fill:#C6D9F0;stroke:#010101;stroke-miterlimit:10;}
	.st26{fill:#FCF8C9;stroke:#010101;stroke-miterlimit:10;}
	.st27{fill:none;stroke:#010101;stroke-width:0.5;stroke-miterlimit:10;}
	.st28{fill:#EBEFDE;stroke:#010101;stroke-miterlimit:10;}
</style>
<rect x="409.66" y="752.99" className="st0" width="116" height="116.5"/>
<rect x="80.66" y="338.99" className="st1" width="77" height="189"/>
<rect x="187.66" y="404.99" className="st2" width="57" height="131"/>
<rect x="187.66" y="338.99" className="st3" width="57" height="64"/>
<rect x="80.66" y="526.99" className="st4" width="61" height="103"/>
<rect x="80.66" y="631.99" className="st4" width="61" height="139"/>
<rect x="80.66" y="328.99" className="st3" width="23" height="10"/>
<rect x="282.66" y="487.99" className="st0" width="58" height="49"/>
<rect x="343.66" y="487.99" className="st0" width="88" height="49"/>
<rect x="434.66" y="487.99" className="st5" width="150" height="49"/>
<rect x="587.66" y="487.99" className="st5" width="192" height="49"/>
<rect x="782.66" y="504.99" className="st6" width="128" height="32"/>
<rect x="858.36" y="328.29" transform="matrix(-1.836970e-16 1 -1 -1.836970e-16 1264.9546 -550.3709)" className="st7" width="98.61" height="58"/>
<rect x="748.36" y="260.29" transform="matrix(-1.836970e-16 1 -1 -1.836970e-16 1135.9546 -440.3709)" className="st8" width="79.61" height="175"/>
<polygon className="st7" points="478.66,344.99 569.66,344.99 568.66,307.99 697.66,307.99 697.66,344.99 668.66,344.99 668.66,387.99 
	636.66,387.99 638.66,445.99 "/>
<polygon className="st6" points="547.66,421.99 282.66,421.99 282.66,485.99 666.66,485.99 661.66,470.99 "/>
<rect x="668.66" y="344.99" className="st9" width="29" height="11"/>
<rect x="668.66" y="355.99" className="st9" width="29" height="13"/>
<rect x="668.66" y="368.99" className="st9" width="29" height="19"/>
<polygon className="st10" points="700.66,457.99 700.66,417.99 787.66,423.99 787.66,474.99 "/>
<polygon className="st10" points="788.83,477.74 788.83,438.05 935.5,443.25 935.5,481.9 "/>
<polygon className="st10" points="791.66,440.99 932.66,445.99 932.66,478.99 791.66,474.99 "/>
<rect x="853.66" y="368.99" className="st5" width="22" height="19"/>
<polygon className="st5" points="875.66,307.99 875.66,349.99 847.66,349.99 847.66,315.99 809.66,315.99 809.66,307.99 "/>
<polyline className="st10" points="637.66,410.99 697.66,417.99 697.66,456.99 638.66,445.99 637.04,409.32 "/>
<rect x="615.66" y="525.99" className="st0" width="19" height="11"/>
<rect x="665.66" y="525.99" className="st0" width="10" height="11"/>
<rect x="634.66" y="525.99" className="st0" width="31" height="11"/>
<rect x="479.66" y="421.99" className="st5" width="31" height="11"/>
<rect x="453.66" y="421.99" className="st5" width="26" height="9"/>
<rect x="298.66" y="421.99" className="st5" width="28" height="11"/>
<rect x="282.66" y="421.99" className="st5" width="16" height="8"/>
<polygon className="st11" points="213.66,639.99 213.66,754.99 328.66,754.99 329.66,631.99 307.66,631.99 307.66,620.99 244.66,620.99 
	244.66,639.99 "/>
<rect x="276.66" y="620.99" className="st10" width="22" height="13"/>
<rect x="494.66" y="752.99" className="st1" width="31" height="38"/>
<rect x="497.16" y="827.99" className="st12" width="28.5" height="19"/>
<rect x="499" y="846.99" className="st5" width="26.66" height="20"/>
<rect x="436.66" y="856.99" className="st5" width="18" height="10"/>
<rect x="455" y="856.99" className="st5" width="23.66" height="10"/>
<rect x="479" y="856.99" className="st10" width="9.66" height="10"/>
<rect x="409.66" y="752.99" className="st6" width="29" height="57"/>
<rect x="409.66" y="677.99" className="st2" width="116" height="75"/>
<rect x="584.66" y="712.99" className="st13" width="31" height="18"/>
<rect x="615.66" y="712.99" className="st10" width="30" height="39.5"/>
<rect x="645.66" y="712.99" className="st3" width="56" height="18"/>
<rect x="584.66" y="730.99" className="st14" width="31" height="21.5"/>
<rect x="645.66" y="730.99" className="st2" width="56" height="21.5"/>
<rect x="202.66" y="671.99" className="st10" width="11" height="16"/>
<rect x="281.66" y="610.99" className="st15" width="42" height="10"/>
<rect x="315.91" y="700.74" transform="matrix(-1.836970e-16 1 -1 -1.836970e-16 1042.4011 371.5757)" className="st15" width="39" height="12.5"/>
<rect x="199.41" y="764.74" transform="matrix(-1.836970e-16 1 -1 -1.836970e-16 978.9011 565.5757)" className="st6" width="14.5" height="15"/>
<rect x="201.16" y="776.99" transform="matrix(-1.836970e-16 1 -1 -1.836970e-16 991.1511 577.8257)" className="st6" width="11" height="15"/>
<rect x="241.16" y="849.49" transform="matrix(-1.836970e-16 1 -1 -1.836970e-16 1107.1511 605.8257)" className="st16" width="19" height="14"/>
<rect x="214.66" y="827.99" transform="matrix(-1 -1.224647e-16 1.224647e-16 -1 458.3255 1674.9768)" className="st4" width="29" height="19"/>
<rect x="214.66" y="816.99" transform="matrix(-1 -1.224647e-16 1.224647e-16 -1 458.3255 1644.9768)" className="st4" width="29" height="11"/>
<rect x="209.66" y="846.99" transform="matrix(-1 -1.224647e-16 1.224647e-16 -1 435.3255 1703.9768)" className="st17" width="16" height="10"/>
<rect x="225.66" y="846.99" transform="matrix(-1 -1.224647e-16 1.224647e-16 -1 469.3255 1703.9768)" className="st17" width="18" height="10"/>
<rect x="210.66" y="880.99" transform="matrix(-1 -1.224647e-16 1.224647e-16 -1 454.3255 1787.9768)" className="st18" width="33" height="26"/>
<rect x="215.66" y="907.99" transform="matrix(-1 -1.224647e-16 1.224647e-16 -1 459.3255 1823.9768)" className="st15" width="28" height="8"/>
<rect x="262.66" y="930.99" transform="matrix(-1 -1.224647e-16 1.224647e-16 -1 553.3254 1869.9768)" className="st10" width="28" height="8"/>
<rect x="214.66" y="807.99" transform="matrix(-1 -1.224647e-16 1.224647e-16 -1 458.3255 1624.9768)" className="st9" width="29" height="9"/>
<rect x="214.66" y="802.99" transform="matrix(-1 -1.224647e-16 1.224647e-16 -1 458.3255 1610.9768)" className="st19" width="29" height="5"/>
<rect x="192.66" y="814.99" transform="matrix(6.123234e-17 -1 1 6.123234e-17 -611.3257 1029.6511)" className="st10" width="33" height="11"/>
<rect x="214.66" y="788.99" transform="matrix(-1 -1.224647e-16 1.224647e-16 -1 458.3255 1591.9768)" className="st6" width="29" height="14"/>
<rect x="281.41" y="778.24" transform="matrix(-1.836970e-16 1 -1 -1.836970e-16 1106.4011 507.5757)" className="st1" width="36" height="57.5"/>
<rect x="254.91" y="714.74" transform="matrix(-1.836970e-16 1 -1 -1.836970e-16 1043.4011 500.0757)" className="st6" width="33.5" height="114"/>
<rect x="173.16" y="724.49" transform="matrix(-1.836970e-16 1 -1 -1.836970e-16 938.6511 525.3257)" className="st6" width="67" height="15"/>
<rect x="307.66" y="620.99" className="st16" width="22" height="11"/>
<polygon className="st1" points="243.27,788.99 243.66,846.99 257.66,846.99 257.66,865.99 328.66,865.99 327.66,824.99 270.66,824.99 
	270.66,788.99 "/>
<path className="st10" d="M409.66,829.99"/>
<rect x="417.94" y="629.99" className="st17" width="20.73" height="10.5"/>
<rect x="223.94" y="628.99" className="st17" width="20.73" height="10.5"/>
<rect x="468.16" y="621.49" className="st20" width="22" height="21"/>
<rect x="490.16" y="621.49" className="st20" width="19" height="7"/>
<rect x="490.16" y="628.49" className="st20" width="19" height="14"/>
<rect x="509.66" y="621.49" className="st20" width="16" height="7"/>
<rect x="509.66" y="628.49" className="st20" width="16" height="14"/>
<polygon className="st1" points="417.66,629.99 406.66,629.99 406.66,638.99 408.66,638.99 408.66,677.99 525.66,677.99 525.66,641.99 
	467.66,642.99 467.66,621.99 438.66,621.99 438.66,640.99 417.66,640.99 "/>
<rect x="641.66" y="752.99" className="st1" width="60" height="75"/>
<rect x="584.66" y="752.99" className="st10" width="57" height="57"/>
<rect x="584.66" y="809.99" className="st6" width="28" height="17"/>
<rect x="584.66" y="826.99" className="st6" width="28" height="20"/>
<rect x="641.16" y="844.99" className="st21" width="31.75" height="20"/>
<rect x="672.91" y="844.99" className="st22" width="28.75" height="20"/>
<rect x="675.66" y="620.99" className="st0" width="26" height="22"/>
<rect x="581.66" y="628.99" className="st10" width="11" height="10"/>
<rect x="592.66" y="628.99" className="st23" width="21" height="10"/>
<rect x="581.66" y="618.99" className="st10" width="6" height="10"/>
<rect x="606.66" y="618.99" className="st10" width="5" height="10"/>
<line className="st10" x1="587.16" y1="619.99" x2="607.16" y2="619.99"/>
<line className="st10" x1="587.66" y1="623.99" x2="606.16" y2="623.99"/>
<line className="st10" x1="590.66" y1="619.99" x2="590.66" y2="628.99"/>
<line className="st10" x1="590.66" y1="620.49" x2="590.66" y2="629.49"/>
<line className="st10" x1="593.26" y1="620.49" x2="593.26" y2="629.49"/>
<line className="st10" x1="595.86" y1="620.49" x2="595.86" y2="629.49"/>
<line className="st10" x1="598.46" y1="620.49" x2="598.46" y2="629.49"/>
<line className="st10" x1="601.06" y1="619.49" x2="601.06" y2="628.49"/>
<line className="st10" x1="603.66" y1="619.49" x2="603.66" y2="628.49"/>
<rect x="406.66" y="618.99" className="st10" width="6" height="11"/>
<rect x="431.66" y="618.99" className="st10" width="7" height="11"/>
<line className="st10" x1="412.16" y1="619.99" x2="432.16" y2="619.99"/>
<line className="st10" x1="412.66" y1="623.99" x2="431.16" y2="623.99"/>
<line className="st10" x1="415.66" y1="619.99" x2="415.66" y2="628.99"/>
<line className="st10" x1="415.66" y1="620.49" x2="415.66" y2="629.49"/>
<line className="st10" x1="418.26" y1="620.49" x2="418.26" y2="629.49"/>
<line className="st10" x1="420.86" y1="620.49" x2="420.86" y2="629.49"/>
<line className="st10" x1="423.46" y1="620.49" x2="423.46" y2="629.49"/>
<line className="st10" x1="426.06" y1="619.49" x2="426.06" y2="630.49"/>
<line className="st10" x1="428.66" y1="619.49" x2="428.66" y2="630.49"/>
<rect x="213.66" y="618.99" className="st10" width="6" height="10"/>
<rect x="238.66" y="618.99" className="st10" width="6" height="10"/>
<line className="st10" x1="219.16" y1="619.99" x2="239.16" y2="619.99"/>
<line className="st10" x1="219.66" y1="623.99" x2="238.16" y2="623.99"/>
<line className="st10" x1="219.66" y1="628.99" x2="238.16" y2="628.99"/>
<line className="st10" x1="222.66" y1="619.99" x2="222.66" y2="628.99"/>
<line className="st10" x1="222.66" y1="620.49" x2="222.66" y2="629.49"/>
<line className="st10" x1="225.26" y1="620.49" x2="225.26" y2="629.49"/>
<line className="st10" x1="227.86" y1="620.49" x2="227.86" y2="629.49"/>
<line className="st10" x1="230.46" y1="620.49" x2="230.46" y2="629.49"/>
<line className="st10" x1="233.06" y1="619.49" x2="233.06" y2="629.49"/>
<line className="st10" x1="235.66" y1="619.49" x2="235.66" y2="629.49"/>
<line className="st10" x1="676.38" y1="620.99" x2="675.66" y2="620.99"/>
<polygon className="st1" points="701.66,642.99 701.66,712.99 584.66,712.99 584.66,641.08 587.16,641.08 587.16,638.99 613.66,638.99 
	613.66,620.99 675.66,620.99 675.66,642.99 "/>
<line className="st10" x1="701.66" y1="827.99" x2="701.66" y2="844.99"/>
<rect x="581.66" y="846.99" className="st10" width="11" height="10"/>
<rect x="581.66" y="856.99" className="st10" width="5" height="10"/>
<rect x="604.66" y="856.99" className="st10" width="8" height="10"/>
<rect x="592.66" y="846.99" className="st23" width="20" height="10"/>
<line className="st10" x1="586.66" y1="862.64" x2="604.66" y2="862.64"/>
<line className="st10" x1="587.16" y1="866.99" x2="605.16" y2="866.99"/>
<line className="st10" x1="589.57" y1="856.49" x2="589.66" y2="867.49"/>
<line className="st10" x1="591.99" y1="856.49" x2="592.08" y2="867.49"/>
<line className="st10" x1="594.41" y1="856.49" x2="594.5" y2="867.49"/>
<line className="st10" x1="596.83" y1="856.49" x2="596.92" y2="867.49"/>
<line className="st10" x1="599.24" y1="856.49" x2="599.34" y2="867.49"/>
<line className="st10" x1="601.66" y1="856.49" x2="601.76" y2="867.49"/>
<rect x="406.66" y="846.99" className="st21" width="10.82" height="10"/>
<rect x="406.66" y="856.99" className="st10" width="4.92" height="10"/>
<rect x="429.29" y="856.99" className="st10" width="7.37" height="10"/>
<rect x="417.49" y="846.99" className="st10" width="19.68" height="10"/>
<line className="st10" x1="411.58" y1="862.64" x2="429.29" y2="862.64"/>
<line className="st10" x1="411.58" y1="866.99" x2="429.29" y2="866.99"/>
<line className="st10" x1="414.44" y1="856.49" x2="414.53" y2="867.49"/>
<line className="st10" x1="416.82" y1="856.49" x2="416.91" y2="867.49"/>
<line className="st10" x1="419.2" y1="856.49" x2="419.29" y2="867.49"/>
<line className="st10" x1="421.58" y1="856.49" x2="421.67" y2="867.49"/>
<line className="st10" x1="423.96" y1="856.49" x2="424.05" y2="867.49"/>
<line className="st10" x1="426.34" y1="856.49" x2="426.43" y2="867.49"/>
<line className="st10" x1="641.16" y1="864.99" x2="612.66" y2="864.99"/>
<rect x="80.66" y="338.99" className="st3" width="21" height="46"/>
<rect x="134.66" y="338.99" className="st3" width="23" height="10"/>
<rect x="210.66" y="628.99" className="st10" width="13" height="11"/>
<rect x="266.66" y="620.99" className="st16" width="8" height="7"/>
<rect x="235.66" y="788.99" className="st21" width="8" height="7"/>
<rect x="311.66" y="827.99" className="st10" width="16" height="7"/>
<rect x="215.66" y="963.99" className="st2" width="113" height="170"/>
<rect x="215.66" y="1137.49" className="st2" width="113" height="53"/>
<rect x="372.66" y="1169.99" className="st15" width="12" height="39"/>
<rect x="215.66" y="1192.99" className="st24" width="21" height="10"/>
<rect x="236.66" y="1197.99" className="st25" width="24" height="12"/>
<rect x="260.66" y="1197.99" className="st25" width="17" height="12"/>
<rect x="277.66" y="1197.99" className="st25" width="16" height="12"/>
<rect x="293.66" y="1197.99" className="st25" width="14" height="12"/>
<rect x="215.66" y="1202.99" className="st24" width="21" height="7"/>
<polygon className="st0" points="314.66,1192.99 314.66,1209.99 307.66,1209.99 307.66,1197.99 236.66,1197.99 236.66,1192.99 "/>
<rect x="226.66" y="944.99" className="st10" width="34" height="19"/>
<rect x="260.66" y="944.99" className="st10" width="20" height="13"/>
<rect x="280.66" y="944.99" className="st26" width="21" height="13"/>
<rect x="301.66" y="954.99" className="st10" width="27" height="9"/>
<polygon className="st24" points="936.66,350.99 936.66,382.99 926.66,382.99 926.66,367.99 919.66,367.99 919.66,350.99 "/>
<rect x="187.66" y="338.99" className="st3" width="25" height="12"/>
<rect x="187.66" y="350.99" className="st3" width="25" height="15"/>
<rect x="187.66" y="375.99" className="st3" width="25" height="27"/>
<rect x="222.66" y="338.99" className="st3" width="22" height="12"/>
<rect x="222.66" y="350.99" className="st3" width="22" height="15"/>
<rect x="222.66" y="365.99" className="st3" width="22" height="10"/>
<rect x="222.66" y="375.99" className="st3" width="22" height="15"/>
<rect x="222.66" y="396.99" className="st3" width="22" height="6"/>
<rect x="222.66" y="390.99" className="st3" width="22" height="6"/>
<line className="st3" x1="234.66" y1="390.99" x2="234.66" y2="402.99"/>
<rect x="211.66" y="856.99" className="st10" width="30" height="10"/>
<line className="st27" x1="217.66" y1="856.93" x2="217.66" y2="863.05"/>
<line className="st27" x1="220" y1="857.36" x2="220" y2="862.99"/>
<line className="st27" x1="222.33" y1="856.49" x2="222.33" y2="862.61"/>
<line className="st27" x1="234.66" y1="862.55" x2="217.66" y2="862.55"/>
<line className="st27" x1="224.66" y1="856.49" x2="224.66" y2="862.61"/>
<line className="st27" x1="227.66" y1="856.49" x2="227.66" y2="862.61"/>
<line className="st27" x1="230" y1="856.49" x2="230" y2="862.61"/>
<line className="st27" x1="232.33" y1="856.49" x2="232.33" y2="862.61"/>
<line className="st27" x1="234.66" y1="856.49" x2="234.66" y2="862.61"/>
<line className="st10" x1="226.16" y1="944.99" x2="215.25" y2="944.99"/>
<line className="st27" x1="226.16" y1="947.74" x2="215.66" y2="947.74"/>
<line className="st10" x1="215.66" y1="963.99" x2="215.66" y2="944.49"/>
<line className="st27" x1="220.66" y1="963.99" x2="220.66" y2="944.49"/>
<line className="st27" x1="226.16" y1="950" x2="215.25" y2="950"/>
<line className="st27" x1="226.16" y1="952.25" x2="215.25" y2="952.25"/>
<line className="st27" x1="226.16" y1="954.15" x2="215.25" y2="954.15"/>
<line className="st27" x1="226.16" y1="956.41" x2="215.25" y2="956.41"/>
<line className="st27" x1="226.16" y1="957.66" x2="215.25" y2="957.66"/>
<line className="st27" x1="226.16" y1="959.92" x2="215.25" y2="959.92"/>
<line className="st27" x1="323.1" y1="954.69" x2="323.1" y2="945.49"/>
<line className="st27" x1="328.66" y1="954.69" x2="328.66" y2="945.49"/>
<line className="st27" x1="309.16" y1="948.99" x2="323.16" y2="948.99"/>
<line className="st27" x1="320.59" y1="955.06" x2="320.59" y2="945.49"/>
<line className="st27" x1="317.7" y1="955.06" x2="317.7" y2="945.49"/>
<line className="st27" x1="315.44" y1="955.06" x2="315.44" y2="945.49"/>
<line className="st27" x1="312.19" y1="955.06" x2="312.19" y2="945.49"/>
<line className="st27" x1="309.19" y1="955.06" x2="309.19" y2="945.49"/>
<line className="st27" x1="280.16" y1="944.99" x2="328.16" y2="944.99"/>
<rect x="260.66" y="957.99" className="st28" width="41" height="6"/>
<polyline className="st10" points="80.66,328.99 88.16,231.49 126.16,123.49 126.16,61.27 160.38,61.27 160.38,124.38 313.16,262.49 
	403.66,307.99 582.16,307.99 "/>
<polyline className="st10" points="140.66,61.49 137.16,121.15 156.18,221.35 163.66,338.99 176.66,338.99 167.19,218.51 147.17,120.32 
	150.17,62.28 "/>
<polyline className="st10" points="312.66,262.49 312.16,338.99 242.9,338.99 "/>
<line className="st10" x1="313.16" y1="308.99" x2="344.16" y2="308.99"/>
<line className="st10" x1="158.16" y1="338.99" x2="190.98" y2="338.99"/>
<polyline className="st10" points="343.66,278.49 343.48,341.27 377.66,356.49 403.66,307.99 "/>
<rect x="80.16" y="308.49" className="st10" width="856.5" height="901.5"/>
</svg>
