<?xml version="1.0" encoding="utf-8"?>
<!-- Generator: Adobe Illustrator 25.2.3, SVG Export Plug-In . SVG Version: 6.00 Build 0)  -->
<svg version="1.1" id="Layer_1" xmlns="http://www.w3.org/2000/svg" xmlns:xlink="http://www.w3.org/1999/xlink" x="0px" y="0px"
	 viewBox="0 0 856.89 1148.28" style="enable-background:new 0 0 856.89 1148.28;" xml:space="preserve">
<style type="text/css">
	.st0{fill:#ECF1DF;stroke:#000000;stroke-miterlimit:10;}
	.st1{fill:#DBEEF4;stroke:#000000;stroke-miterlimit:10;}
	.st2{fill:#E4DFED;stroke:#000000;stroke-miterlimit:10;}
	.st3{fill:#FCE9DA;stroke:#000000;stroke-miterlimit:10;}
	.st4{fill:#DED9C5;stroke:#000000;stroke-miterlimit:10;}
	.st5{fill:#DCE6F1;stroke:#000000;stroke-miterlimit:10;}
	.st6{fill:#F1DCDB;stroke:#000000;stroke-miterlimit:10;}
	.st7{fill:#EBF1DE;stroke:#000000;stroke-miterlimit:10;}
	.st8{fill:#FDE9D9;stroke:#000000;stroke-miterlimit:10;}
	.st9{fill:#DBEEF4;stroke:#000000;stroke-width:0.25;stroke-miterlimit:10;}
	.st10{fill:none;stroke:#000000;stroke-miterlimit:10;}
	.st11{fill:#C5D9F1;stroke:#000000;stroke-miterlimit:10;}
	.st12{fill:#DDDAC4;stroke:#000000;stroke-miterlimit:10;}
	.st13{fill:#D7E4BF;stroke:#000000;stroke-miterlimit:10;}
	.st14{fill:#F0DBDE;stroke:#000000;stroke-miterlimit:10;}
	.st15{fill:#CDFFFF;stroke:#000000;stroke-miterlimit:10;}
	.st16{fill:#FAFFCA;stroke:#000000;stroke-miterlimit:10;}
	.st17{fill:#FFFF06;stroke:#000000;stroke-miterlimit:10;}
	.st18{fill:#FF9AFB;stroke:#000000;stroke-miterlimit:10;}
	.st19{fill:#FDFFC9;stroke:#000000;stroke-miterlimit:10;}
	.st20{fill:#FFE8D3;stroke:#000000;stroke-miterlimit:10;}
	.st21{fill:#FFFFCD;stroke:#000000;stroke-miterlimit:10;}
	.st22{fill:#D7E9EF;stroke:#000000;stroke-miterlimit:10;}
	.st23{fill:#EBF1DF;stroke:#000000;stroke-miterlimit:10;}
	.st24{fill:#FFFC13;stroke:#000000;stroke-miterlimit:10;}
	.st25{fill:#F3DCDC;stroke:#000000;stroke-miterlimit:10;}
	.st26{fill:#C4D9F7;stroke:#000000;stroke-miterlimit:10;}
	.st27{fill:#FFFEC7;stroke:#000000;stroke-miterlimit:10;}
	.st28{fill:#F2DCDB;stroke:#000000;stroke-miterlimit:10;}
	.st29{fill:none;stroke:#000000;stroke-width:0.5;stroke-miterlimit:10;}
	.st30{fill:#EBF0DE;stroke:#000000;stroke-miterlimit:10;}
	.st31{font-family:'MyriadPro-Regular';}
	.st32{font-size:12px;}
	.st33{font-size:7.1958px;}
	.st34{font-size:6px;}
	.st35{fill:#EF3836;}
	.st36{font-size:5px;}
</style>
<rect x="329.5" y="691.5" className="st0" width="116" height="116.5"/>
<rect x="0.5" y="277.5" className="st1" width="77" height="189"/>
<rect x="107.5" y="343.5" className="st2" width="57" height="131"/>
<rect x="107.5" y="277.5" className="st3" width="57" height="64"/>
<rect x="0.5" y="465.5" className="st4" width="61" height="103"/>
<rect x="0.5" y="570.5" className="st4" width="61" height="139"/>
<rect x="0.5" y="267.5" className="st3" width="23" height="10"/>
<rect x="202.5" y="426.5" className="st0" width="58" height="49"/>
<rect x="263.5" y="426.5" className="st0" width="88" height="49"/>
<rect x="354.5" y="426.5" className="st5" width="150" height="49"/>
<rect x="507.5" y="426.5" className="st5" width="192" height="49"/>
<rect x="702.5" y="443.5" className="st6" width="128" height="32"/>
<rect x="778.2" y="266.8" transform="matrix(-1.836970e-16 1 -1 -1.836970e-16 1123.3033 -531.6966)" className="st7" width="98.61" height="58"/>
<rect x="668.2" y="198.8" transform="matrix(-1.836970e-16 1 -1 -1.836970e-16 994.3034 -421.6966)" className="st8" width="79.61" height="175"/>
<polygon className="st7" points="398.5,283.5 489.5,283.5 488.5,246.5 617.5,246.5 617.5,283.5 588.5,283.5 588.5,326.5 556.5,326.5 
	558.5,384.5 "/>
<polygon className="st6" points="467.5,360.5 202.5,360.5 202.5,424.5 586.5,424.5 581.5,409.5 "/>
<rect x="588.5" y="283.5" className="st9" width="29" height="11"/>
<rect x="588.5" y="294.5" className="st9" width="29" height="13"/>
<rect x="588.5" y="307.5" className="st9" width="29" height="19"/>
<polygon className="st10" points="620.5,396.5 620.5,356.5 707.5,362.5 707.5,413.5 "/>
<polygon className="st10" points="708.67,416.26 708.67,376.56 855.33,381.76 855.33,420.42 "/>
<polygon className="st10" points="711.5,379.5 852.5,384.5 852.5,417.5 711.5,413.5 "/>
<rect x="773.5" y="307.5" className="st5" width="22" height="19"/>
<polygon className="st5" points="795.5,246.5 795.5,288.5 767.5,288.5 767.5,254.5 729.5,254.5 729.5,246.5 "/>
<polyline className="st10" points="557.5,349.5 617.5,356.5 617.5,395.5 558.5,384.5 556.87,347.84 "/>
<rect x="535.5" y="464.5" className="st0" width="19" height="11"/>
<rect x="585.5" y="464.5" className="st0" width="10" height="11"/>
<rect x="554.5" y="464.5" className="st0" width="31" height="11"/>
<rect x="399.5" y="360.5" className="st5" width="31" height="11"/>
<rect x="373.5" y="360.5" className="st5" width="26" height="9"/>
<rect x="218.5" y="360.5" className="st5" width="28" height="11"/>
<rect x="202.5" y="360.5" className="st5" width="16" height="8"/>
<polygon className="st11" points="133.5,578.5 133.5,693.5 248.5,693.5 249.5,570.5 227.5,570.5 227.5,559.5 164.5,559.5 164.5,578.5 
	"/>
<rect x="196.5" y="559.5" className="st10" width="22" height="13"/>
<rect x="414.5" y="691.5" className="st1" width="31" height="38"/>
<rect x="417" y="766.5" className="st12" width="28.5" height="19"/>
<rect x="418.84" y="785.5" className="st5" width="26.66" height="20"/>
<rect x="356.5" y="795.5" className="st5" width="18" height="10"/>
<rect x="374.84" y="795.5" className="st5" width="23.66" height="10"/>
<rect x="398.84" y="795.5" className="st10" width="9.66" height="10"/>
<rect x="329.5" y="691.5" className="st6" width="29" height="57"/>
<rect x="329.5" y="616.5" className="st2" width="116" height="75"/>
<rect x="504.5" y="651.5" className="st13" width="31" height="18"/>
<rect x="535.5" y="651.5" className="st10" width="30" height="39.5"/>
<rect x="565.5" y="651.5" className="st3" width="56" height="18"/>
<rect x="504.5" y="669.5" className="st14" width="31" height="21.5"/>
<rect x="565.5" y="669.5" className="st2" width="56" height="21.5"/>
<rect x="122.5" y="610.5" className="st10" width="11" height="16"/>
<rect x="201.5" y="549.5" className="st15" width="42" height="10"/>
<rect x="235.75" y="639.25" transform="matrix(-1.836970e-16 1 -1 -1.836970e-16 900.75 390.25)" className="st15" width="39" height="12.5"/>
<rect x="119.25" y="703.25" transform="matrix(-1.836970e-16 1 -1 -1.836970e-16 837.25 584.25)" className="st6" width="14.5" height="15"/>
<rect x="121" y="715.5" transform="matrix(-1.836970e-16 1 -1 -1.836970e-16 849.5 596.5)" className="st6" width="11" height="15"/>
<rect x="161" y="788" transform="matrix(-1.836970e-16 1 -1 -1.836970e-16 965.5 624.5)" className="st16" width="19" height="14"/>
<rect x="134.5" y="766.5" transform="matrix(-1 -1.224647e-16 1.224647e-16 -1 298 1552)" className="st4" width="29" height="19"/>
<rect x="134.5" y="755.5" transform="matrix(-1 -1.224647e-16 1.224647e-16 -1 298 1522)" className="st4" width="29" height="11"/>
<rect x="129.5" y="785.5" transform="matrix(-1 -1.224647e-16 1.224647e-16 -1 275 1581)" className="st17" width="16" height="10"/>
<rect x="145.5" y="785.5" transform="matrix(-1 -1.224647e-16 1.224647e-16 -1 309 1581)" className="st17" width="18" height="10"/>
<rect x="130.5" y="819.5" transform="matrix(-1 -1.224647e-16 1.224647e-16 -1 294 1665)" className="st18" width="33" height="26"/>
<rect x="135.5" y="845.5" transform="matrix(-1 -1.224647e-16 1.224647e-16 -1 299 1699)" className="st15" width="28" height="8"/>
<rect x="182.5" y="869.5" transform="matrix(-1 -1.224647e-16 1.224647e-16 -1 393 1747)" className="st10" width="28" height="8"/>
<rect x="134.5" y="746.5" transform="matrix(-1 -1.224647e-16 1.224647e-16 -1 298 1502)" className="st9" width="29" height="9"/>
<rect x="134.5" y="741.5" transform="matrix(-1 -1.224647e-16 1.224647e-16 -1 298 1488)" className="st19" width="29" height="5"/>
<rect x="112.5" y="753.5" transform="matrix(6.123234e-17 -1 1 6.123234e-17 -630 888)" className="st10" width="33" height="11"/>
<rect x="134.5" y="727.5" transform="matrix(-1 -1.224647e-16 1.224647e-16 -1 298 1469)" className="st6" width="29" height="14"/>
<rect x="201.25" y="716.75" transform="matrix(-1.836970e-16 1 -1 -1.836970e-16 964.75 526.25)" className="st1" width="36" height="57.5"/>
<rect x="174.75" y="653.25" transform="matrix(-1.836970e-16 1 -1 -1.836970e-16 901.75 518.75)" className="st6" width="33.5" height="114"/>
<rect x="93" y="663" transform="matrix(-1.836970e-16 1 -1 -1.836970e-16 797 544)" className="st6" width="67" height="15"/>
<rect x="227.5" y="559.5" className="st16" width="22" height="11"/>
<polygon className="st1" points="163.11,727.5 163.5,785.5 177.5,785.5 177.5,804.5 248.5,804.5 247.5,763.5 190.5,763.5 190.5,727.5 
	"/>
<path className="st10" d="M329.5,768.5"/>
<rect x="337.77" y="568.5" className="st17" width="20.73" height="10.5"/>
<rect x="143.77" y="567.5" className="st17" width="20.73" height="10.5"/>
<rect x="388" y="560" className="st20" width="22" height="21"/>
<rect x="410" y="560" className="st20" width="19" height="7"/>
<rect x="410" y="567" className="st20" width="19" height="14"/>
<rect x="429.5" y="560" className="st20" width="16" height="7"/>
<rect x="429.5" y="567" className="st20" width="16" height="14"/>
<polygon className="st1" points="337.5,568.5 326.5,568.5 326.5,577.5 328.5,577.5 328.5,616.5 445.5,616.5 445.5,580.5 387.5,581.5 
	387.5,560.5 358.5,560.5 358.5,579.5 337.5,579.5 "/>
<rect x="561.5" y="691.5" className="st1" width="60" height="75"/>
<rect x="504.5" y="691.5" className="st10" width="57" height="57"/>
<rect x="504.5" y="748.5" className="st6" width="28" height="17"/>
<rect x="504.5" y="765.5" className="st6" width="28" height="20"/>
<rect x="561" y="783.5" className="st21" width="31.75" height="20"/>
<rect x="592.75" y="783.5" className="st22" width="28.75" height="20"/>
<rect x="595.5" y="559.5" className="st23" width="26" height="22"/>
<rect x="501.5" y="567.5" className="st10" width="11" height="10"/>
<rect x="512.5" y="567.5" className="st24" width="21" height="10"/>
<rect x="501.5" y="557.5" className="st10" width="6" height="10"/>
<rect x="526.5" y="557.5" className="st10" width="5" height="10"/>
<line className="st10" x1="507" y1="558.5" x2="527" y2="558.5"/>
<line className="st10" x1="507.5" y1="562.5" x2="526" y2="562.5"/>
<line className="st10" x1="510.5" y1="558.5" x2="510.5" y2="567.5"/>
<line className="st10" x1="510.5" y1="559" x2="510.5" y2="568"/>
<line className="st10" x1="513.1" y1="559" x2="513.1" y2="568"/>
<line className="st10" x1="515.7" y1="559" x2="515.7" y2="568"/>
<line className="st10" x1="518.3" y1="559" x2="518.3" y2="568"/>
<line className="st10" x1="520.9" y1="558" x2="520.9" y2="567"/>
<line className="st10" x1="523.5" y1="558" x2="523.5" y2="567"/>
<rect x="326.5" y="557.5" className="st10" width="6" height="11"/>
<rect x="351.5" y="557.5" className="st10" width="7" height="11"/>
<line className="st10" x1="332" y1="558.5" x2="352" y2="558.5"/>
<line className="st10" x1="332.5" y1="562.5" x2="351" y2="562.5"/>
<line className="st10" x1="335.5" y1="558.5" x2="335.5" y2="567.5"/>
<line className="st10" x1="335.5" y1="559" x2="335.5" y2="568"/>
<line className="st10" x1="338.1" y1="559" x2="338.1" y2="568"/>
<line className="st10" x1="340.7" y1="559" x2="340.7" y2="568"/>
<line className="st10" x1="343.3" y1="559" x2="343.3" y2="568"/>
<line className="st10" x1="345.9" y1="558" x2="345.9" y2="569"/>
<line className="st10" x1="348.5" y1="558" x2="348.5" y2="569"/>
<rect x="133.5" y="557.5" className="st10" width="6" height="10"/>
<rect x="158.5" y="557.5" className="st10" width="6" height="10"/>
<line className="st10" x1="139" y1="558.5" x2="159" y2="558.5"/>
<line className="st10" x1="139.5" y1="562.5" x2="158" y2="562.5"/>
<line className="st10" x1="139.5" y1="567.5" x2="158" y2="567.5"/>
<line className="st10" x1="142.5" y1="558.5" x2="142.5" y2="567.5"/>
<line className="st10" x1="142.5" y1="559" x2="142.5" y2="568"/>
<line className="st10" x1="145.1" y1="559" x2="145.1" y2="568"/>
<line className="st10" x1="147.7" y1="559" x2="147.7" y2="568"/>
<line className="st10" x1="150.3" y1="559" x2="150.3" y2="568"/>
<line className="st10" x1="152.9" y1="558" x2="152.9" y2="568"/>
<line className="st10" x1="155.5" y1="558" x2="155.5" y2="568"/>
<line className="st10" x1="596.22" y1="559.5" x2="595.5" y2="559.5"/>
<polygon className="st1" points="621.5,581.5 621.5,651.5 504.5,651.5 504.5,579.59 507,579.59 507,577.5 533.5,577.5 533.5,559.5 
	595.5,559.5 595.5,581.5 "/>
<line className="st10" x1="621.5" y1="766.5" x2="621.5" y2="783.5"/>
<rect x="501.5" y="785.5" className="st10" width="11" height="10"/>
<rect x="501.5" y="795.5" className="st10" width="5" height="10"/>
<rect x="524.5" y="795.5" className="st10" width="8" height="10"/>
<rect x="512.5" y="785.5" className="st24" width="20" height="10"/>
<line className="st10" x1="506.5" y1="801.15" x2="524.5" y2="801.15"/>
<line className="st10" x1="507" y1="805.5" x2="525" y2="805.5"/>
<line className="st10" x1="509.41" y1="795" x2="509.5" y2="806"/>
<line className="st10" x1="511.83" y1="795" x2="511.92" y2="806"/>
<line className="st10" x1="514.24" y1="795" x2="514.34" y2="806"/>
<line className="st10" x1="516.66" y1="795" x2="516.76" y2="806"/>
<line className="st10" x1="519.08" y1="795" x2="519.17" y2="806"/>
<line className="st10" x1="521.5" y1="795" x2="521.59" y2="806"/>
<rect x="326.5" y="785.5" className="st21" width="10.82" height="10"/>
<rect x="326.5" y="795.5" className="st10" width="4.92" height="10"/>
<rect x="349.13" y="795.5" className="st10" width="7.37" height="10"/>
<rect x="337.32" y="785.5" className="st10" width="19.68" height="10"/>
<line className="st10" x1="331.42" y1="801.15" x2="349.13" y2="801.15"/>
<line className="st10" x1="331.42" y1="805.5" x2="349.13" y2="805.5"/>
<line className="st10" x1="334.28" y1="795" x2="334.37" y2="806"/>
<line className="st10" x1="336.66" y1="795" x2="336.75" y2="806"/>
<line className="st10" x1="339.04" y1="795" x2="339.13" y2="806"/>
<line className="st10" x1="341.42" y1="795" x2="341.51" y2="806"/>
<line className="st10" x1="343.8" y1="795" x2="343.89" y2="806"/>
<line className="st10" x1="346.18" y1="795" x2="346.27" y2="806"/>
<line className="st10" x1="561" y1="803.5" x2="532.5" y2="803.5"/>
<rect x="0.5" y="277.5" className="st3" width="21" height="46"/>
<rect x="54.5" y="277.5" className="st3" width="23" height="10"/>
<rect x="130.5" y="567.5" className="st10" width="13" height="11"/>
<rect x="186.5" y="559.5" className="st16" width="8" height="7"/>
<rect x="155.5" y="727.5" className="st21" width="8" height="7"/>
<rect x="231.5" y="766.5" className="st10" width="16" height="7"/>
<rect x="135.5" y="902.5" className="st2" width="113" height="170"/>
<rect x="135.5" y="1076" className="st2" width="113" height="53"/>
<rect x="292.5" y="1108.5" className="st15" width="12" height="39"/>
<rect x="135.5" y="1131.5" className="st25" width="21" height="10"/>
<rect x="156.5" y="1136.5" className="st26" width="24" height="12"/>
<rect x="180.5" y="1136.5" className="st26" width="17" height="12"/>
<rect x="197.5" y="1136.5" className="st26" width="16" height="12"/>
<rect x="213.5" y="1136.5" className="st26" width="14" height="12"/>
<rect x="135.5" y="1141.5" className="st25" width="21" height="7"/>
<polygon className="st0" points="234.5,1131.5 234.5,1148.5 227.5,1148.5 227.5,1136.5 156.5,1136.5 156.5,1131.5 "/>
<rect x="146.5" y="883.5" className="st10" width="34" height="19"/>
<rect x="180.5" y="883.5" className="st10" width="20" height="13"/>
<rect x="200.5" y="883.5" className="st27" width="21" height="13"/>
<rect x="221.5" y="893.5" className="st10" width="27" height="9"/>
<polygon className="st28" points="856.5,289.5 856.5,321.5 846.5,321.5 846.5,306.5 839.5,306.5 839.5,289.5 "/>
<rect x="107.5" y="277.5" className="st3" width="25" height="12"/>
<rect x="107.5" y="289.5" className="st3" width="25" height="15"/>
<rect x="107.5" y="314.5" className="st3" width="25" height="27"/>
<rect x="142.5" y="277.5" className="st3" width="22" height="12"/>
<rect x="142.5" y="289.5" className="st3" width="22" height="15"/>
<rect x="142.5" y="304.5" className="st3" width="22" height="10"/>
<rect x="142.5" y="314.5" className="st3" width="22" height="15"/>
<rect x="142.5" y="335.5" className="st3" width="22" height="6"/>
<rect x="142.5" y="329.5" className="st3" width="22" height="6"/>
<line className="st3" x1="154.5" y1="329.5" x2="154.5" y2="341.5"/>
<rect x="131.5" y="795.5" className="st10" width="30" height="10"/>
<line className="st29" x1="137.5" y1="795.44" x2="137.5" y2="801.56"/>
<line className="st29" x1="139.83" y1="795.88" x2="139.83" y2="801.5"/>
<line className="st29" x1="142.17" y1="795" x2="142.17" y2="801.12"/>
<line className="st29" x1="154.5" y1="801.06" x2="137.5" y2="801.06"/>
<line className="st29" x1="144.5" y1="795" x2="144.5" y2="801.12"/>
<line className="st29" x1="147.5" y1="795" x2="147.5" y2="801.12"/>
<line className="st29" x1="149.83" y1="795" x2="149.83" y2="801.12"/>
<line className="st29" x1="152.17" y1="795" x2="152.17" y2="801.12"/>
<line className="st29" x1="154.5" y1="795" x2="154.5" y2="801.12"/>
<line className="st10" x1="146" y1="883.5" x2="135.09" y2="883.5"/>
<line className="st29" x1="146" y1="886.25" x2="135.5" y2="886.25"/>
<line className="st10" x1="135.5" y1="902.5" x2="135.5" y2="883.01"/>
<line className="st29" x1="140.5" y1="902.5" x2="140.5" y2="883.01"/>
<line className="st29" x1="146" y1="888.51" x2="135.09" y2="888.51"/>
<line className="st29" x1="146" y1="890.76" x2="135.09" y2="890.76"/>
<line className="st29" x1="146" y1="892.66" x2="135.09" y2="892.66"/>
<line className="st29" x1="146" y1="894.92" x2="135.09" y2="894.92"/>
<line className="st29" x1="146" y1="896.17" x2="135.09" y2="896.17"/>
<line className="st29" x1="146" y1="898.43" x2="135.09" y2="898.43"/>
<line className="st29" x1="242.94" y1="893.2" x2="242.94" y2="884"/>
<line className="st29" x1="248.5" y1="893.2" x2="248.5" y2="884"/>
<line className="st29" x1="229" y1="887.5" x2="243" y2="887.5"/>
<line className="st29" x1="240.43" y1="893.57" x2="240.43" y2="884"/>
<line className="st29" x1="237.53" y1="893.57" x2="237.53" y2="884"/>
<line className="st29" x1="235.28" y1="893.57" x2="235.28" y2="884"/>
<line className="st29" x1="232.02" y1="893.57" x2="232.02" y2="884"/>
<line className="st29" x1="229.02" y1="893.57" x2="229.02" y2="884"/>
<line className="st29" x1="200" y1="883.5" x2="248" y2="883.5"/>
<rect x="180.5" y="896.5" className="st30" width="41" height="6"/>
<polyline className="st10" points="0.5,267.5 8,170 46,62 46,-0.22 80.22,-0.22 80.22,62.89 233,201 323.5,246.5 502,246.5 "/>
<polyline className="st10" points="60.5,0 57,59.66 76.02,159.86 83.5,277.5 96.5,277.5 87.03,157.02 67.01,58.83 70.01,0.79 "/>
<polyline className="st10" points="232.5,201 232,277.5 162.74,277.5 "/>
<line className="st10" x1="233" y1="247.5" x2="264" y2="247.5"/>
<line className="st10" x1="78" y1="277.5" x2="110.81" y2="277.5"/>
<polyline className="st10" points="263.5,217 263.31,279.78 297.5,295 323.5,246.5 "/>
<rect y="247" className="st10" width="856.5" height="901.5"/>
<text transform="matrix(1 0 0 1 8.1113 304.2222)" className="st31 st32">1</text>
<text transform="matrix(1 0 0 1 31.1113 380.2222)" className="st31 st32">1</text>
<text transform="matrix(1 0 0 1 61.1113 287.2222)" className="st31 st32">1</text>
<text transform="matrix(1 0 0 1 9.1113 277.2222)" className="st31 st32">1</text>
<text transform="matrix(1 0 0 1 124.1113 383.2222)" className="st31 st32">1</text>
<text transform="matrix(1 0 0 1 326.1113 398.2222)" className="st31 st32">1</text>
<text transform="matrix(1 0 0 1 528.1113 297.2222)" className="st31 st32">1</text>
<text transform="matrix(1 0 0 1 671.1113 286.2222)" className="st31 st32">1</text>
<text transform="matrix(1 0 0 1 822.1113 277.2222)" className="st31 st32">1</text>
<text transform="matrix(1 0 0 1 779.1113 267.2222)" className="st31 st32">1</text>
<text transform="matrix(1 0 0 1 782.1113 321.2222)" className="st31 st32">1</text>
<text transform="matrix(1 0 0 1 597.1113 292.2222)" className="st31 st32">1</text>
<text transform="matrix(1 0 0 1 595.1113 305.2222)" className="st31 st32">1</text>
<text transform="matrix(1 0 0 1 595.1113 321.2222)" className="st31 st32">1</text>
<text transform="matrix(1 0 0 1 751.1113 471.2222)" className="st31 st32">1</text>
<text transform="matrix(1 0 0 1 633.1113 455.2222)" className="st31 st32">1</text>
<text transform="matrix(1 0 0 1 428.1113 455.2222)" className="st31 st32">1</text>
<text transform="matrix(1 0 0 1 394.1113 574.2222)" className="st31 st32">1</text>
<text transform="matrix(1 0 0 1 344.1113 579.2222)" className="st31 st32">1</text>
<text transform="matrix(1 0 0 1 372.1113 599.2222)" className="st31 st32">1</text>
<text transform="matrix(1 0 0 1 417.1113 579.2222)" className="st31 st32">1</text>
<text transform="matrix(1 0 0 1 434.1113 578.2222)" className="st31 st32">1</text>
<text transform="matrix(1 0 0 1 592.1113 684.2222)" className="st31 st32">1</text>
<text transform="matrix(1 0 0 1 518.1113 665.2222)" className="st31 st32">1</text>
<text transform="matrix(1 0 0 1 557.1113 618.2222)" className="st31 st32">1</text>
<text transform="matrix(1 0 0 1 522.3438 575.2012)" className="st31 st33">1</text>
<text transform="matrix(1 0 0 1 385.1113 651.2222)" className="st31 st32">1</text>
<text transform="matrix(1 0 0 1 338.1113 727.2222)" className="st31 st32">1</text>
<text transform="matrix(1 0 0 1 384.1113 754.2222)" className="st31 st32">1</text>
<text transform="matrix(1 0 0 1 429.1113 719.2222)" className="st31 st32">1</text>
<text transform="matrix(1 0 0 1 433.1113 780.2222)" className="st31 st32">1</text>
<text transform="matrix(1 0 0 1 432.1113 803.2222)" className="st31 st32">1</text>
<text transform="matrix(1 0 0 1 399.1113 806.2222)" className="st31 st32">1</text>
<text transform="matrix(1 0 0 1 382.1113 804.2222)" className="st31 st32">1</text>
<text transform="matrix(1 0 0 1 362.1113 804.2222)" className="st31 st32">1</text>
<text transform="matrix(1 0 0 1 342.1113 795.2222)" className="st31 st32">1</text>
<text transform="matrix(1 0 0 1 349.1113 805.2222)" className="st31 st32">1</text>
<text transform="matrix(1 0 0 1 328.1113 795.2222)" className="st31 st32">1</text>
<text transform="matrix(1 0 0 1 604.1113 797.2222)" className="st31 st32">1</text>
<text transform="matrix(1 0 0 1 588.1113 735.2222)" className="st31 st32">1</text>
<text transform="matrix(1 0 0 1 575.1113 797.2222)" className="st31 st32">1</text>
<text transform="matrix(1 0 0 1 517.1113 780.2222)" className="st31 st32">1</text>
<text transform="matrix(1 0 0 1 516.1113 763.2222)" className="st31 st32">1</text>
<text transform="matrix(1 0 0 1 517.1113 687.2222)" className="st31 st32">1</text>
<text transform="matrix(1 0 0 1 518.1113 796.2222)" className="st31 st32">1</text>
<text transform="matrix(1 0 0 1 309.1113 455.2222)" className="st31 st32">1</text>
<text transform="matrix(1 0 0 1 222.1113 455.2222)" className="st31 st32">1</text>
<text transform="matrix(1 0 0 1 208.1113 369.2222)" className="st31 st32">1</text>
<text transform="matrix(1 0 0 1 227.1113 371.2222)" className="st31 st32">1</text>
<text transform="matrix(1 0 0 1 384.1113 369.2222)" className="st31 st32">1</text>
<text transform="matrix(1 0 0 1 410.1113 371.2222)" className="st31 st32">1</text>
<text transform="matrix(1 0 0 1 566.1113 475.2222)" className="st31 st32">1</text>
<text transform="matrix(1 0 0 1 540.1113 475.2222)" className="st31 st32">1</text>
<text transform="matrix(1 0 0 1 588.1113 475.2222)" className="st31 st32">1</text>
<text transform="matrix(1 0 0 1 607.1113 577.2222)" className="st31 st32">1</text>
<text transform="matrix(1 0 0 1 848.1113 302.2222)" className="st31 st32">1</text>
<text transform="matrix(1 0 0 1 31.1113 523.2222)" className="st31 st32">1</text>
<text transform="matrix(1 0 0 1 26.1113 637.2222)" className="st31 st32">1</text>
<text transform="matrix(1 0 0 1 186.1113 631.2222)" className="st31 st32">1</text>
<text transform="matrix(1 0 0 1 124.1113 673.2222)" className="st31 st32">1</text>
<text transform="matrix(1 0 0 1 252.1113 654.2222)" className="st31 st32">1</text>
<text transform="matrix(1 0 0 1 125.1113 715.2222)" className="st31 st32">1</text>
<text transform="matrix(1 0 0 1 122.1113 727.2222)" className="st31 st32">1</text>
<text transform="matrix(1 0 0 1 141.1113 737.2222)" className="st31 st32">1</text>
<text transform="matrix(1 0 0 1 158.1113 733.2222)" className="st31 st34">1</text>
<text transform="matrix(1 0 0 1 146.1113 746.2222)" className="st31 st34">1</text>
<text transform="matrix(1 0 0 1 146.1113 754.2222)" className="st31 st34">1</text>
<text transform="matrix(1 0 0 1 146.1113 763.2222)" className="st31 st34">1</text>
<text transform="matrix(1 0 0 1 147.1113 778.2222)" className="st35 st31 st34">1</text>
<text transform="matrix(1 0 0 1 136.1113 793.2222)" className="st31 st34">1</text>
<text transform="matrix(1 0 0 1 152.1113 793.2222)" className="st31 st34">1</text>
<text transform="matrix(1 0 0 1 169.1113 797.2222)" className="st31 st34">1</text>
<text transform="matrix(1 0 0 1 146.1113 834.2222)" className="st31 st34">1</text>
<text transform="matrix(1 0 0 1 186.1113 997.2222)" className="st31 st34">1</text>
<text transform="matrix(1 0 0 1 191.1113 1105.2222)" className="st31 st34">1</text>
<text transform="matrix(1 0 0 1 298.1113 1131.2222)" className="st31 st34">1</text>
<text transform="matrix(1 0 0 1 229.1113 1141.2222)" className="st31 st34">1</text>
<text transform="matrix(1 0 0 1 220.1113 1145.2222)" className="st31 st34">1</text>
<text transform="matrix(1 0 0 1 205.1113 1145.2222)" className="st31 st34">1</text>
<text transform="matrix(1 0 0 1 188.1113 1145.2222)" className="st31 st34">1</text>
<text transform="matrix(1 0 0 1 168.1113 1145.2222)" className="st31 st34">1</text>
<text transform="matrix(1 0 0 1 145.1113 1147.2222)" className="st31 st34">1</text>
<text transform="matrix(1 0 0 1 145.1113 1139.2222)" className="st31 st34">1</text>
<text transform="matrix(1 0 0 1 213.1113 893.2222)" className="st31 st34">1</text>
<text transform="matrix(1 0 0 1 199.1113 903.2222)" className="st31 st34">1</text>
<text transform="matrix(1 0 0 1 148.1113 852.2222)" className="st31 st34">1</text>
<text transform="matrix(1 0 0 1 183.1113 715.2222)" className="st31 st32">1</text>
<text transform="matrix(1 0 0 1 217.1113 748.2222)" className="st31 st32">1</text>
<text transform="matrix(1 0 0 1 199.1113 788.2222)" className="st31 st32">1</text>
<text transform="matrix(1 0 0 1 236.1113 776.2222)" className="st31 st32">1</text>
<text transform="matrix(1 0 0 1 152.1113 578.2222)" className="st31 st32">1</text>
<text transform="matrix(1 0 0 1 207.1113 570.2222)" className="st31 st32">1</text>
<text transform="matrix(1 0 0 1 236.1113 570.2222)" className="st31 st32">1</text>
<text transform="matrix(1 0 0 1 219.1113 558.2222)" className="st31 st32">1</text>
<text transform="matrix(1 0 0 1 189.1113 565.2222)" className="st31 st36">1</text>
<text transform="matrix(1 0 0 1 114.1113 335.2222)" className="st31 st32">1</text>
<text transform="matrix(1 0 0 1 132.1113 314.2222)" className="st31 st32">1</text>
<text transform="matrix(1 0 0 1 114.1113 300.2222)" className="st31 st32">1</text>
<text transform="matrix(1 0 0 1 122.1113 287.2222)" className="st31 st32">1</text>
<text transform="matrix(1 0 0 1 156.1113 287.2222)" className="st31 st32">1</text>
<text transform="matrix(1 0 0 1 146.1113 302.2222)" className="st31 st32">1</text>
<text transform="matrix(1 0 0 1 154.1113 314.2222)" className="st31 st32">1</text>
<text transform="matrix(1 0 0 1 146.1113 327.2222)" className="st31 st32">1</text>
</svg>
