<?xml version="1.0" encoding="utf-8"?>
<!-- Generator: Adobe Illustrator 25.2.3, SVG Export Plug-In . SVG Version: 6.00 Build 0)  -->
<svg version="1.1" id="Layer_1" xmlns="http://www.w3.org/2000/svg" xmlns:xlink="http://www.w3.org/1999/xlink" x="0px" y="0px"
	 viewBox="0 0 1105.5 679.3" style="enable-background:new 0 0 1105.5 679.3;" xml:space="preserve">
<style type="text/css">
	.st0{fill:none;stroke:#808080;stroke-width:0.51;stroke-miterlimit:10;}
	.st1{fill:none;stroke:#808080;stroke-width:0.709;stroke-miterlimit:10;}
	
		.st2{fill:none;stroke:#C0C0C0;stroke-width:0.51;stroke-linecap:round;stroke-linejoin:round;stroke-miterlimit:10;stroke-dasharray:3,3,3,3,3,3;}
	.st3{fill:none;stroke:#000000;stroke-width:0.51;stroke-linecap:round;stroke-linejoin:round;stroke-miterlimit:10;}
	.st4{fill:#E4DFED;stroke:#000000;stroke-miterlimit:10;stroke-dasharray:3,3,3,3,3,3;}
	.st5{fill:none;stroke:#808080;stroke-width:0.709;stroke-linecap:round;stroke-linejoin:round;stroke-miterlimit:10;}
	.st6{fill:#D7E4BF;stroke:#000000;stroke-miterlimit:10;stroke-dasharray:3,3,3,3,3,3;}
	.st7{fill:#F0DBDE;stroke:#000000;stroke-miterlimit:10;stroke-dasharray:3,3,3,3,3,3;}
	.st8{fill:#FFFFCD;stroke:#000000;stroke-miterlimit:10;stroke-dasharray:3,3,3,3,3,3;}
	.st9{fill:#DBEEF4;stroke:#000000;stroke-miterlimit:10;stroke-dasharray:3,3,3,3,3,3;}
	.st10{fill:#FCE9DA;stroke:#000000;stroke-miterlimit:10;stroke-dasharray:3,3,3,3,3,3;}
	
		.st11{fill:none;stroke:#808080;stroke-width:0.709;stroke-linecap:round;stroke-linejoin:round;stroke-miterlimit:10;stroke-dasharray:3,3,3,3,3,3;}
	.st12{fill:none;stroke:#000000;stroke-width:0.709;stroke-linecap:round;stroke-linejoin:round;stroke-miterlimit:10;}
	.st13{fill:none;stroke:#000000;stroke-miterlimit:10;}
	.st14{font-family:'Roboto-Regular';}
	.st15{font-size:14px;}
</style>
<line className="st0" x1="0" y1="-1" x2="-1.4" y2="-1"/>
<line className="st0" x1="0" y1="-1" x2="0" y2="-2.4"/>
<line className="st0" x1="-1" y1="0" x2="1" y2="-2"/>
<line className="st0" x1="-1" y1="-2" x2="1" y2="0"/>
<line className="st1" x1="0.1" y1="-1" x2="0.1" y2="-1"/>
<line className="st1" x1="0.1" y1="-1" x2="0.1" y2="-1"/>
<line className="st1" x1="0.1" y1="-1" x2="0.1" y2="-1"/>
<line className="st1" x1="0.1" y1="-1" x2="0.1" y2="-1"/>
<line className="st1" x1="0.1" y1="-1" x2="0.1" y2="-1"/>
<line className="st1" x1="0.1" y1="-1" x2="0.1" y2="-1"/>
<line className="st1" x1="0.1" y1="-1" x2="0.1" y2="-1"/>
<line className="st1" x1="0.1" y1="-1" x2="0.1" y2="-1"/>
<line className="st1" x1="0.1" y1="-1" x2="0.1" y2="-1"/>
<line className="st1" x1="0.1" y1="-1" x2="0.1" y2="-1"/>
<line className="st1" x1="0.1" y1="-1" x2="0.1" y2="-1"/>
<line className="st1" x1="0.1" y1="-1" x2="0.1" y2="-1"/>
<line className="st1" x1="0.1" y1="-1" x2="0.1" y2="-1"/>
<line className="st1" x1="0.1" y1="-1" x2="0.1" y2="-1"/>
<line className="st1" x1="0" y1="-1" x2="0" y2="-1"/>
<line className="st1" x1="0" y1="-1" x2="0" y2="-1"/>
<line className="st1" x1="0" y1="-1" x2="0" y2="-1"/>
<line className="st1" x1="0" y1="-1" x2="0" y2="-1"/>
<polyline className="st2" points="627.7,-1 603.4,-1 579.1,-1 "/>
<polyline className="st2" points="149.8,-1 174.1,-1 198.4,-1 "/>
<path className="st3" d="M0-1L0-1 M0-1L0-1 M0-1L0-1 M0-1L0-1 M0-1L0-1 M0-1L0-1 M0-1L0-1 M0-1L0-1"/>
<rect x="627.7" y="193.4" className="st4" width="40.5" height="97.2"/>
<line className="st5" x1="603.4" y1="679.3" x2="603.4" y2="-1"/>
<line className="st5" x1="174.1" y1="-1" x2="174.1" y2="679.3"/>
<rect x="668.2" y="193.4" className="st6" width="396.8" height="97.2"/>
<rect x="668.2" y="96.2" className="st7" width="396.8" height="97.2"/>
<rect x="668.2" y="-1" className="st8" width="315.8" height="97.2"/>
<rect x="984" y="-1" className="st6" width="121.5" height="97.2"/>
<rect x="1065" y="96.2" className="st9" width="40.5" height="291.5"/>
<rect x="627.7" y="484.9" className="st6" width="113.4" height="97.2"/>
<rect x="352.6" y="193.4" className="st9" width="226.5" height="97.2"/>
<rect x="627.7" y="290.6" className="st4" width="437.3" height="97.1"/>
<rect x="627.7" y="387.7" className="st8" width="477.8" height="97.2"/>
<rect x="741.1" y="484.9" className="st7" width="323.9" height="97.2"/>
<rect x="1065" y="484.9" className="st6" width="40.5" height="97.2"/>
<polygon className="st4" points="1105.5,582.1 1105.5,679.3 1032.6,679.3 1032.6,618.6 943.5,618.6 943.5,582.1 "/>
<rect x="198.4" y="646.9" className="st6" width="85.1" height="32.4"/>
<polygon className="st9" points="283.5,608.4 283.5,646.9 198.4,646.9 198.4,582.1 218.7,582.1 218.7,608.4 "/>
<rect x="198.4" y="484.9" className="st7" width="380.7" height="97.2"/>
<rect x="316.6" y="387.7" className="st10" width="91.9" height="97.2"/>
<polygon className="st9" points="316.6,428.2 316.6,484.9 198.4,484.9 198.4,387.7 276.1,387.7 276.1,428.2 "/>
<rect x="276.1" y="387.7" className="st8" width="40.5" height="40.5"/>
<rect x="198.4" y="290.6" className="st4" width="102.3" height="97.1"/>
<rect x="300.7" y="290.6" className="st8" width="107.8" height="97.1"/>
<rect x="198.4" y="193.4" className="st7" width="154.2" height="97.2"/>
<rect x="198.4" y="96.2" className="st6" width="273.1" height="97.2"/>
<polyline className="st11" points="198.4,679.3 174.1,679.3 149.8,679.3 "/>
<rect x="218.7" y="582.1" className="st10" width="64.8" height="26.3"/>
<rect x="408.5" y="582.1" className="st6" width="170.6" height="97.2"/>
<rect x="316.6" y="582.1" className="st8" width="91.9" height="97.2"/>
<rect x="283.5" y="582.1" className="st9" width="33.1" height="97.2"/>
<rect x="408.5" y="387.7" className="st7" width="170.6" height="97.2"/>
<rect x="408.5" y="290.6" className="st6" width="170.6" height="97.1"/>
<rect x="516.1" y="96.2" className="st4" width="63" height="97.2"/>
<rect x="943.5" y="618.6" className="st9" width="89.1" height="60.7"/>
<rect x="842.3" y="582.1" className="st7" width="101.2" height="97.2"/>
<polygon className="st8" points="842.3,582.1 842.3,679.3 777.5,679.3 777.5,618.6 805.9,618.6 805.9,582.1 "/>
<polygon className="st7" points="805.9,582.1 805.9,618.6 777.5,618.6 777.5,679.3 627.7,679.3 627.7,582.1 "/>
<polyline className="st11" points="627.7,679.3 603.4,679.3 579.1,679.3 "/>
<rect x="81" y="-1" className="st9" width="68.8" height="32.4"/>
<rect x="471.5" y="96.2" className="st9" width="44.6" height="97.2"/>
<rect x="435.9" y="-1" className="st10" width="80.2" height="45.9"/>
<polygon className="st9" points="579.1,-1 579.1,96.2 198.4,96.2 198.4,-1 435.9,-1 435.9,44.9 516.1,44.9 516.1,-1 "/>
<rect x="627.7" y="96.2" className="st9" width="40.5" height="97.2"/>
<rect x="627.7" y="-1" className="st6" width="40.5" height="97.2"/>
<polyline className="st11" points="627.7,-1 603.4,-1 579.1,-1 "/>
<polyline className="st11" points="149.8,-1 174.1,-1 198.4,-1 "/>
<polygon className="st9" points="149.8,31.4 149.8,96.2 0,96.2 0,-1 81,-1 81,31.4 "/>
<rect x="40.5" y="96.2" className="st4" width="109.3" height="97.2"/>
<rect y="96.2" className="st7" width="40.5" height="97.2"/>
<rect x="40.5" y="193.4" className="st6" width="109.3" height="194.3"/>
<rect y="193.4" className="st6" width="40.5" height="194.3"/>
<rect y="387.7" className="st9" width="149.8" height="97.2"/>
<rect y="484.9" className="st8" width="149.8" height="97.2"/>
<rect y="582.1" className="st10" width="32.2" height="44"/>
<polygon className="st9" points="149.8,582.1 149.8,679.3 0,679.3 0,626.1 32.2,626.1 32.2,582.1 "/>
<line className="st12" x1="0" y1="-1" x2="0" y2="-1"/>
<rect y="-1" className="st13" width="149.8" height="680.3"/>
<rect x="198.4" y="-1" className="st13" width="380.7" height="680.3"/>
<rect x="627.7" y="-1" className="st13" width="477.8" height="680.3"/>
<text transform="matrix(1 0 0 1 20.25 54.8333)" className="st14 st15">1</text>
<text transform="matrix(1 0 0 1 20.2499 154.3887)" className="st14 st15">1</text>
<text transform="matrix(1 0 0 1 86.8447 154.3887)" className="st14 st15">1</text>
<text transform="matrix(1 0 0 1 115.3999 21.9501)" className="st14 st15">1</text>
<text transform="matrix(1 0 0 1 309.0666 47.5999)" className="st14 st15">1</text>
<text transform="matrix(1 0 0 1 476.0001 27.2776)" className="st14 st15">1</text>
<text transform="matrix(1 0 0 1 826.1 47.8482)" className="st14 st15">1</text>
<text transform="matrix(1 0 0 1 842.2998 148.7595)" className="st14 st15">1</text>
<text transform="matrix(1 0 0 1 834.7004 254.3729)" className="st14 st15">1</text>
<text transform="matrix(1 0 0 1 487.7333 154.3885)" className="st14 st15">1</text>
<text transform="matrix(1 0 0 1 95.1502 302.8334)" className="st14 st15">1</text>
<text transform="matrix(1 0 0 1 310.2288 148.7594)" className="st14 st15">1</text>
<text transform="matrix(1 0 0 1 16.928 302.8334)" className="st14 st15">1</text>
<text transform="matrix(1 0 0 1 74.9001 445.0549)" className="st14 st15">1</text>
<text transform="matrix(1 0 0 1 74.9001 537.5788)" className="st14 st15">1</text>
<text transform="matrix(1 0 0 1 79.8837 629.4294)" className="st14 st15">1</text>
<text transform="matrix(1 0 0 1 13.602 614.4998)" className="st14 st15">1</text>
<text transform="matrix(1 0 0 1 539.2887 154.3886)" className="st14 st15">1</text>
<text transform="matrix(1 0 0 1 261.3998 248.611)" className="st14 st15">1</text>
<text transform="matrix(1 0 0 1 492.7165 248.6112)" className="st14 st15">1</text>
<text transform="matrix(1 0 0 1 492.7167 351.2143)" className="st14 st15">1</text>
<text transform="matrix(1 0 0 1 352.5999 353.9291)" className="st14 st15">1</text>
<text transform="matrix(1 0 0 1 249.5501 343.933)" className="st14 st15">1</text>
<text transform="matrix(1 0 0 1 249.5502 440.3143)" className="st14 st15">1</text>
<text transform="matrix(1 0 0 1 291.2998 414.8328)" className="st14 st15">1</text>
<text transform="matrix(1 0 0 1 357.5832 440.3142)" className="st14 st15">1</text>
<text transform="matrix(1 0 0 1 497.7002 445.0549)" className="st14 st15">1</text>
<text transform="matrix(1 0 0 1 352.5999 545.2031)" className="st14 st15">1</text>
<text transform="matrix(1 0 0 1 353.7621 639.4253)" className="st14 st15">1</text>
<text transform="matrix(1 0 0 1 490.651 639.4253)" className="st14 st15">1</text>
<text transform="matrix(1 0 0 1 296.3501 641.7957)" className="st14 st15">1</text>
<text transform="matrix(1 0 0 1 235.313 638.7997)" className="st14 st15">1</text>
<text transform="matrix(1 0 0 1 251.0999 601.0397)" className="st14 st15">1</text>
<text transform="matrix(1 0 0 1 236.4753 670.373)" className="st14 st15">1</text>
<text transform="matrix(1 0 0 1 693.9568 641.7959)" className="st14 st15">1</text>
<text transform="matrix(1 0 0 1 809.9001 656.0181)" className="st14 st15">1</text>
<text transform="matrix(1 0 0 1 684.4001 547.5741)" className="st14 st15">1</text>
<text transform="matrix(1 0 0 1 803.5112 436.2999)" className="st14 st15">1</text>
<text transform="matrix(1 0 0 1 883.5112 542.374)" className="st14 st15">1</text>
<text transform="matrix(1 0 0 1 1085.2499 542.374)" className="st14 st15">1</text>
<text transform="matrix(1 0 0 1 982.7314 653.0549)" className="st14 st15">1</text>
<text transform="matrix(1 0 0 1 898.5833 648.9503)" className="st14 st15">1</text>
<text transform="matrix(1 0 0 1 1085.25 282.6844)" className="st14 st15">1</text>
<text transform="matrix(1 0 0 1 645.3915 151.1298)" className="st14 st15">1</text>
<text transform="matrix(1 0 0 1 646.5538 54.8332)" className="st14 st15">1</text>
<text transform="matrix(1 0 0 1 1049.1271 57.844)" className="st14 st15">1</text>
<text transform="matrix(1 0 0 1 808.4951 333.6474)" className="st14 st15">1</text>
</svg>
