<?xml version="1.0" encoding="utf-8"?>
<!-- Generator: Adobe Illustrator 25.2.3, SVG Export Plug-In . SVG Version: 6.00 Build 0)  -->
<svg version="1.1" id="Layer_1" xmlns="http://www.w3.org/2000/svg" xmlns:xlink="http://www.w3.org/1999/xlink" x="0px" y="0px"
	 viewBox="0 0 784.26 483.71" style="enable-background:new 0 0 784.26 483.71;" xml:space="preserve">
<style type="text/css">
	.st0{fill:#E3DDEA;stroke:#231F20;stroke-width:0.75;stroke-miterlimit:10;}
	.st1{fill:#D1ECF2;stroke:#231F20;stroke-width:0.75;stroke-miterlimit:10;}
	.st2{fill:#FCE7D7;stroke:#231F20;stroke-width:0.75;stroke-miterlimit:10;}
	.st3{fill:#FFFFFF;stroke:#000000;stroke-width:0.75;stroke-miterlimit:10;}
	.st4{fill:none;stroke:#000000;stroke-width:0.75;stroke-miterlimit:10;}
	.st5{fill:#FCE7D7;stroke:#000000;stroke-width:0.75;stroke-miterlimit:10;}
	.st6{fill:#D1ECF2;stroke:#000000;stroke-width:0.75;stroke-miterlimit:10;}
	.st7{fill:#E3DDEA;stroke:#000000;stroke-width:0.75;stroke-miterlimit:10;}
	.st8{font-family:'MyriadPro-Regular';}
	.st9{font-size:6px;}
</style>
<rect x="466.02" y="258.44" transform="matrix(-1 -1.224647e-16 1.224647e-16 -1 983.04 551.1815)" className="st0" width="51" height="34.29"/>
<polygon className="st1" points="631.8,453.05 656.1,460.01 668.16,417.89 643.74,411.41 "/>
<polygon className="st1" points="605.94,445.67 631.8,453.05 643.74,411.41 618.72,404.69 "/>
<polygon className="st1" points="579.71,438.37 605.94,445.67 618.72,404.69 592.5,397.36 "/>
<polygon className="st1" points="553.49,430.81 579.71,438.37 592.5,397.36 566.28,389.8 "/>
<polygon className="st1" points="527.6,423.37 553.82,430.93 566.61,389.92 540.39,382.36 "/>
<polygon className="st1" points="506.53,417.42 528.04,423.48 540.86,382.48 518.52,376.37 "/>
<polygon className="st1" points="482.53,410.64 506.53,417.42 515.82,384.89 491.81,378.14 "/>
<polygon className="st1" points="457.5,403.54 482.53,410.64 491.78,378.1 466.74,371.02 "/>
<polygon className="st0" points="421.73,349.52 420.75,368.33 384.18,365.75 385.5,346.97 "/>
<polygon className="st0" points="459.54,352.19 458.22,370.97 420.75,368.33 421.73,349.52 421.86,349.53 "/>
<polygon className="st2" points="539.88,196.07 546.24,189.47 581.88,189.47 582.36,310.49 547.56,310.49 539.88,301.67 "/>
<rect x="517.02" y="258.44" className="st2" width="10.58" height="52.05"/>
<rect x="517.02" y="223.22" className="st0" width="10.58" height="35.22"/>
<rect x="517.02" y="176.63" className="st2" width="10.58" height="46.59"/>
<rect x="456.98" y="188.64" className="st3" width="9.04" height="104.1"/>
<rect x="248.87" y="176.63" className="st3" width="10.58" height="126.42"/>
<rect x="382.11" y="53.97" transform="matrix(-1.836970e-16 1 -1 -1.836970e-16 570.9865 -205.4821)" className="st3" width="12.24" height="257.57"/>
<rect x="259.91" y="188.41" transform="matrix(-1.836970e-16 1 -1 -1.836970e-16 457.4675 -71.0397)" className="st1" width="8.68" height="9.61"/>
<polygon className="st3" points="285.42,197.55 285.42,216.33 268.13,216.33 268.13,233.81 259.45,233.81 259.45,197.55 269.06,197.55 
	269.06,188.87 274.17,188.87 274.17,197.55 "/>
<rect x="280.18" y="194.11" transform="matrix(-1.836970e-16 1 -1 -1.836970e-16 487.8304 -91.3059)" className="st0" width="18.78" height="8.31"/>
<rect x="288.75" y="193.85" transform="matrix(-1.836970e-16 1 -1 -1.836970e-16 496.4598 -99.8796)" className="st0" width="18.84" height="8.89"/>
<rect x="297.7" y="193.79" transform="matrix(-1.836970e-16 1 -1 -1.836970e-16 505.4057 -108.8255)" className="st0" width="18.84" height="9"/>
<polygon className="st3" points="328.24,188.87 328.24,292.73 285.5,292.73 285.5,207.71 320.51,207.71 320.51,188.87 "/>
<rect x="336.91" y="189.24" transform="matrix(-1.836970e-16 1 -1 -1.836970e-16 543.6611 -139.1814)" className="st1" width="9.02" height="26"/>
<rect x="313.51" y="200.71" transform="matrix(-1.836970e-16 1 -1 -1.836970e-16 521.2174 -110.9055)" className="st3" width="5.1" height="8.89"/>
<rect x="302.69" y="232.49" transform="matrix(-1.836970e-16 1 -1 -1.836970e-16 595.4258 -95.9367)" className="st0" width="85.98" height="34.52"/>
<rect x="336.53" y="215.28" transform="matrix(-1.836970e-16 1 -1 -1.836970e-16 629.6417 -147.6583)" className="st4" width="104.24" height="51.42"/>
<rect x="330.42" y="198.66" transform="matrix(-1.836970e-16 1 -1 -1.836970e-16 537.1755 -129.7083)" className="st1" width="6.04" height="10.16"/>
<rect x="475.88" y="275.19" transform="matrix(-1.836970e-16 1 -1 -1.836970e-16 768.6157 -200.0661)" className="st1" width="16.92" height="18.18"/>
<rect x="482.85" y="258.05" transform="matrix(-1.836970e-16 1 -1 -1.836970e-16 758.6624 -224.3776)" className="st1" width="17.34" height="18.18"/>
<rect x="466.16" y="242.38" transform="matrix(-1.836970e-16 1 -1 -1.836970e-16 724.8124 -223.7796)" className="st5" width="16.27" height="16.27"/>
<rect x="492.56" y="276.71" transform="matrix(-1.836970e-16 1 -1 -1.836970e-16 785.0331 -216.7159)" className="st1" width="16.63" height="14.89"/>
<rect x="362.94" y="276.11" transform="matrix(-1 -1.224647e-16 1.224647e-16 -1 761.6282 569.1611)" className="st1" width="35.75" height="16.95"/>
<rect x="362.94" y="259.02" transform="matrix(-1 -1.224647e-16 1.224647e-16 -1 761.6282 534.9943)" className="st1" width="35.75" height="16.95"/>
<rect x="362.94" y="242.04" transform="matrix(-1 -1.224647e-16 1.224647e-16 -1 761.6282 501.0376)" className="st1" width="35.75" height="16.95"/>
<rect x="362.94" y="225.34" transform="matrix(-1 -1.224647e-16 1.224647e-16 -1 761.6282 467.6245)" className="st1" width="35.75" height="16.95"/>
<rect x="362.94" y="215.98" transform="matrix(-1 -1.224647e-16 1.224647e-16 -1 755.0698 441.3146)" className="st6" width="29.19" height="9.36"/>
<rect x="362.94" y="207.33" transform="matrix(-1 -1.224647e-16 1.224647e-16 -1 755.0698 423.1745)" className="st6" width="29.19" height="8.52"/>
<rect x="362.94" y="198.18" transform="matrix(-1 -1.224647e-16 1.224647e-16 -1 755.0698 405.5033)" className="st6" width="29.19" height="9.15"/>
<rect x="362.94" y="188.87" transform="matrix(-1 -1.224647e-16 1.224647e-16 -1 755.0698 387.0476)" className="st6" width="29.19" height="9.3"/>
<rect x="414.36" y="188.87" transform="matrix(-1 -1.224647e-16 1.224647e-16 -1 871.3445 394.679)" className="st6" width="42.62" height="16.95"/>
<rect x="414.36" y="205.81" transform="matrix(-1 -1.224647e-16 1.224647e-16 -1 871.3445 429.719)" className="st1" width="42.62" height="18.11"/>
<rect x="414.36" y="223.62" transform="matrix(-1 -1.224647e-16 1.224647e-16 -1 871.3445 465.3372)" className="st1" width="42.62" height="18.11"/>
<rect x="414.36" y="241.95" transform="matrix(-1 -1.224647e-16 1.224647e-16 -1 871.3445 502)" className="st1" width="42.62" height="18.11"/>
<rect x="414.36" y="258.44" transform="matrix(-1 -1.224647e-16 1.224647e-16 -1 871.3445 534.9943)" className="st1" width="42.62" height="18.11"/>
<rect x="414.36" y="276.55" transform="matrix(-1 -1.224647e-16 1.224647e-16 -1 871.3445 569.2868)" className="st1" width="42.62" height="16.19"/>
<rect x="328.36" y="284.21" transform="matrix(-1.836970e-16 1 -1 -1.836970e-16 621.4189 -44.1517)" className="st1" width="8.84" height="8.84"/>
<rect x="349.61" y="193.42" transform="matrix(-1.836970e-16 1 -1 -1.836970e-16 556.3627 -160.7455)" className="st6" width="17.89" height="8.77"/>
<rect x="328.24" y="188.87" className="st2" width="14" height="8.89"/>
<rect x="341.87" y="188.87" className="st2" width="12.3" height="8.89"/>
<rect x="272.41" y="212.12" transform="matrix(-1.836970e-16 1 -1 -1.836970e-16 497.5443 -55.9684)" className="st1" width="8.68" height="17.33"/>
<rect x="272.41" y="220.81" transform="matrix(-1.836970e-16 1 -1 -1.836970e-16 506.2271 -47.2855)" className="st1" width="8.68" height="17.33"/>
<rect x="268.74" y="224.54" transform="matrix(-1.836970e-16 1 -1 -1.836970e-16 509.9614 -34.9269)" className="st6" width="7.41" height="25.95"/>
<rect x="268.38" y="232.31" transform="matrix(-1.836970e-16 1 -1 -1.836970e-16 517.7314 -27.1569)" className="st6" width="8.13" height="25.95"/>
<rect x="297.29" y="218.44" transform="matrix(-1.836970e-16 1 -1 -1.836970e-16 538.8387 -67.0643)" className="st1" width="11.33" height="34.9"/>
<rect x="294.45" y="232.28" transform="matrix(-1.836970e-16 1 -1 -1.836970e-16 552.6787 -53.2243)" className="st1" width="17.01" height="34.9"/>
<rect x="294.45" y="249.25" transform="matrix(-1.836970e-16 1 -1 -1.836970e-16 569.6526 -36.2504)" className="st1" width="17.01" height="34.9"/>
<rect x="294" y="266.71" transform="matrix(-1.836970e-16 1 -1 -1.836970e-16 587.1101 -18.7929)" className="st1" width="17.91" height="34.9"/>
<rect x="259.67" y="258.24" transform="matrix(-1.836970e-16 1 -1 -1.836970e-16 526.3702 -1.2246)" className="st3" width="8.26" height="8.67"/>
<rect x="260.08" y="250.39" transform="matrix(-1.836970e-16 1 -1 -1.836970e-16 518.5197 -9.0752)" className="st3" width="7.44" height="8.67"/>
<rect x="270.22" y="259.76" transform="matrix(-1.836970e-16 1 -1 -1.836970e-16 536.5143 -11.9871)" className="st3" width="8.06" height="5.01"/>
<rect x="267.45" y="262.14" transform="matrix(-1.836970e-16 1 -1 -1.836970e-16 533.8171 -5.9949)" className="st3" width="4.91" height="3.55"/>
<rect x="268.33" y="258.04" transform="matrix(-1.836970e-16 1 -1 -1.836970e-16 529.7166 -10.0954)" className="st3" width="3.16" height="3.55"/>
<rect x="267.25" y="251.88" transform="matrix(-1.836970e-16 1 -1 -1.836970e-16 525.4821 -16.2499)" className="st3" width="7.23" height="5.47"/>
<rect x="271.79" y="252.81" transform="matrix(-1.836970e-16 1 -1 -1.836970e-16 529.7974 -20.7873)" className="st3" width="7.01" height="3.38"/>
<rect x="277.51" y="248.83" transform="matrix(-1.836970e-16 1 -1 -1.836970e-16 534.2402 -28.1557)" className="st3" width="7.38" height="8.43"/>
<rect x="275.45" y="187.59" transform="matrix(-1.836970e-16 1 -1 -1.836970e-16 473.0087 -86.5809)" className="st1" width="8.68" height="11.25"/>
<rect x="266.32" y="283.95" transform="matrix(-1.836970e-16 1 -1 -1.836970e-16 569.3675 24.497)" className="st3" width="12.24" height="25.97"/>
<rect x="260.21" y="265.6" transform="matrix(-1.836970e-16 1 -1 -1.836970e-16 551.0253 6.1547)" className="st6" width="24.44" height="25.97"/>
<rect x="392.38" y="185.86" transform="matrix(-1.836970e-16 1 -1 -1.836970e-16 702.8761 -99.6469)" className="st3" width="17.76" height="231.52"/>
<rect x="274.82" y="255.78" transform="matrix(-1.836970e-16 1 -1 -1.836970e-16 541.1884 -21.2074)" className="st3" width="12.75" height="8.43"/>
<polygon className="st0" points="516.95,188.87 516.95,242.38 499.65,242.38 499.65,224.61 482.43,224.61 482.43,242.38 466.16,242.38 
	466.16,188.87 "/>
<polygon className="st1" points="516.95,242.29 516.95,258.47 482.43,258.47 482.43,224.53 499.65,224.53 499.65,242.29 "/>
<rect x="208.92" y="269.27" className="st1" width="18.81" height="27.66"/>
<rect x="165.66" y="276.09" className="st3" width="17.62" height="17.36"/>
<rect x="144.89" y="275.75" className="st3" width="17.62" height="17.7"/>
<rect x="154.03" y="223.22" className="st3" width="8.81" height="13.53"/>
<rect x="192.25" y="187.44" className="st3" width="17.33" height="9.33"/>
<rect x="217.14" y="171" className="st3" width="6.42" height="9.33"/>
<rect x="200.11" y="214.86" className="st3" width="8.81" height="34.49"/>
<rect x="144" y="178.49" className="st3" width="5.62" height="28.5"/>
<rect x="154.03" y="238.52" className="st3" width="8.81" height="17.61"/>
<rect x="101.78" y="280.54" transform="matrix(0.9927 0.1205 -0.1205 0.9927 35.436 -11.1995)" className="st3" width="17.04" height="13.59"/>
<polygon className="st3" points="331.88,142.31 331.94,149.69 248.13,149.63 248.19,121.49 248.34,121.49 308.3,121.75 323.03,121.81 
	335.84,121.86 339.4,121.88 "/>
<polygon className="st3" points="343.45,125.32 344.46,121.88 335.83,121.86 322.99,121.81 325.2,121.81 325.2,115.49 332.51,115.49 
	333.42,112.17 337.36,112.17 337.36,121.67 346.87,121.67 346.87,115.43 341.42,115.4 339.83,112.17 341.42,115.4 346.87,115.43 
	346.87,112.38 342.66,112.38 341.64,109.44 341.52,109.44 341.52,102.95 308.23,102.95 308.23,121.75 248.13,121.49 248.07,63.75 
	455.4,64.01 455.13,150.09 336.87,149.84 336.87,142.83 "/>
<polygon className="st4" points="322.99,121.81 335.83,121.86 308.23,121.81 248.13,121.71 248.13,121.49 308.23,121.75 308.23,102.95 
	325.2,102.95 325.2,121.81 "/>
<polygon className="st3" points="346.87,112.38 346.87,115.43 341.42,115.4 339.83,112.17 333.42,112.17 332.51,115.49 325.2,115.49 
	325.2,112.38 330.87,112.38 333.36,109.44 341.64,109.44 342.66,112.38 "/>
<polygon className="st4" points="346.87,115.43 346.87,115.64 341.42,115.61 339.83,112.17 341.42,115.4 "/>
<rect x="267.18" y="110.39" className="st4" width="5.28" height="7.44"/>
<rect x="272.46" y="115.37" className="st4" width="9.78" height="6.18"/>
<rect x="272.46" y="115.37" className="st4" width="3.6" height="3.09"/>
<rect x="272.46" y="118.4" className="st4" width="3.6" height="3.09"/>
<rect x="282.24" y="115.37" className="st4" width="5.58" height="6.18"/>
<rect x="272.46" y="102.95" className="st4" width="9.78" height="9.78"/>
<rect x="282.24" y="102.95" className="st4" width="20.28" height="9.78"/>
<rect x="302.52" y="102.95" className="st4" width="5.58" height="9.78"/>
<rect x="346.87" y="102.9" className="st4" width="13.64" height="18.77"/>
<rect x="333.36" y="102.95" className="st3" width="8.16" height="6.49"/>
<polygon className="st4" points="346.87,102.89 346.87,112.38 342.66,112.38 341.64,109.44 341.52,109.44 341.52,102.95 "/>
<polygon className="st4" points="356.4,107.41 351.65,107.45 351.65,102.94 356.4,102.9 "/>
<polygon className="st4" points="353.58,112.72 351.65,112.76 351.65,107.51 353.58,107.47 "/>
<polygon className="st4" points="360.5,112.69 353.58,112.73 353.58,107.48 360.5,107.43 "/>
<polygon className="st4" points="355.62,121.83 351.65,121.89 351.65,115.55 355.62,115.49 "/>
<polygon className="st4" points="355.56,121.78 351.6,121.81 351.6,118.72 355.56,118.69 "/>
<polygon className="st4" points="351.6,125.07 345.9,125.09 345.9,122.22 351.6,122.2 "/>
<polygon className="st4" points="351.65,102.88 351.65,121.88 346.87,121.88 346.87,103.05 "/>
<polygon className="st4" points="360.5,107.39 356.4,107.43 356.4,102.94 360.5,102.9 "/>
<rect x="308.23" y="102.95" className="st4" width="16.97" height="18.86"/>
<path className="st4" d="M325.07,102.95H308.1v-0.1c0-4.69,3.8-8.49,8.49-8.49h0c4.69,0,8.49,3.8,8.49,8.49V102.95z"/>
<rect x="287.82" y="112.73" className="st4" width="12.78" height="8.82"/>
<rect x="300.6" y="112.73" className="st4" width="7.5" height="9.07"/>
<rect x="300.6" y="112.85" className="st4" width="7.5" height="3.01"/>
<rect x="302.69" y="116.26" transform="matrix(-1.836970e-16 1 -1 -1.836970e-16 424.3572 -184.4627)" className="st4" width="3.44" height="7.38"/>
<path className="st4" d="M343.82,121.81l55.42,0.34l0.72-53.66l-54.9,0c0,0-6.42,1.91-0.18,6.98c2.04,1.79,8.53,9.98-0.63,15.23
	c0,0-4.93,3.76,0.51,6.71c0.3,0,21.36,0,21.36,0l0.06,24.48"/>
<path className="st4" d="M264.6,121.37l-0.06-24.06l21.66,0c0,0,4.38-3.3,0.66-6.66c0,0-10.58-7.43,0.66-16.32
	c0.12-0.06,3.5-4.14-1.02-6.18l-38.58,0"/>
<polygon className="st3" points="346.87,115.64 346.87,121.67 337.36,121.67 337.36,112.17 339.83,112.17 341.42,115.61 "/>
<polygon className="st4" points="346.87,115.43 346.87,115.64 341.42,115.61 339.83,112.17 341.42,115.4 "/>
<polygon className="st3" points="333.36,102.95 333.36,109.44 330.87,112.38 325.2,112.38 325.2,102.95 "/>
<polygon className="st4" points="53.22,63.75 678.06,63.81 678.84,117.27 784.26,128.25 766.02,270.69 737.46,270.69 714,483.51 
	128.58,315.45 129.06,299.49 94.2,295.23 99.48,197.01 0,184.89 10.5,76.35 52.02,72.99 "/>
<polyline className="st4" points="87.66,73.97 81.4,81.86 177.12,159.53 615.58,159.53 "/>
<polyline className="st4" points="62.82,104.57 69.21,95.32 131.46,144.71 131.46,223.73 "/>
<line className="st4" x1="331.92" y1="149.69" x2="331.92" y2="176.33"/>
<line className="st4" x1="336.84" y1="149.69" x2="336.84" y2="176.33"/>
<rect x="363" y="9.11" className="st4" width="88.14" height="18.78"/>
<rect x="372.54" y="9.11" className="st4" width="26.33" height="9.9"/>
<rect x="390.95" y="21.29" className="st4" width="8.11" height="6.79"/>
<rect x="415.49" y="9.11" className="st4" width="13.87" height="9.39"/>
<rect x="415.49" y="18.5" className="st4" width="8.61" height="9.39"/>
<polygon className="st4" points="441.84,21.89 441.84,27.89 424.1,27.89 424.1,18.5 437.1,18.5 437.1,21.89 "/>
<rect x="363" y="9.11" className="st4" width="9.18" height="9.9"/>
<rect x="446.43" y="21.83" className="st4" width="4.71" height="6.06"/>
<rect x="441.84" y="21.83" className="st4" width="4.71" height="6.06"/>
<rect x="441.17" y="9.11" className="st4" width="4.71" height="4.71"/>
<rect x="445.88" y="9.11" className="st4" width="5.26" height="4.71"/>
<rect x="363" y="20.89" className="st3" width="9.84" height="6.64"/>
<rect x="441.17" y="14.06" className="st3" width="9.97" height="5.72"/>
<rect x="624.32" y="8.59" className="st3" width="9.97" height="19.25"/>
<rect x="639.02" y="8.62" className="st3" width="9.97" height="9.97"/>
<rect x="639.02" y="18.24" className="st3" width="9.97" height="9.36"/>
<rect x="563.85" y="132.05" className="st3" width="6" height="2.8"/>
<rect x="436.98" y="15.05" className="st3" width="4.19" height="6.84"/>
<path className="st3" d="M415.49,8.67h-16.43V8.21c0-4.54,3.68-8.21,8.21-8.21h0c4.54,0,8.21,3.68,8.21,8.21V8.67z"/>
<path className="st4" d="M489.86,9.42V28.2H578V9.42H489.86z M525.05,21.2h-8.12l-10.16-0.08l-4.65-2.82l4.59-3.36l5.1,3.36h3.79
	l4.07-3.12l5.38,3.63V21.2z M558.52,18.09h-4.94l-3.61-2.69l-0.06-0.04l-3.48,2.73h-4.14V9.6h16.23V18.09z"/>
<polygon className="st4" points="515.6,9.42 515.6,18.3 511.81,18.3 506.71,14.94 502.12,18.3 499.4,18.3 499.4,9.42 "/>
<rect x="516.93" y="21.2" className="st4" width="8.12" height="7"/>
<rect x="542.29" y="21.4" className="st4" width="7.68" height="6.6"/>
<polygon className="st4" points="549.97,9.6 549.97,15.4 549.91,15.36 546.43,18.09 542.29,18.09 542.29,9.6 "/>
<polyline className="st4" points="546.43,18.09 549.91,15.36 549.97,15.4 549.97,18.09 "/>
<polygon className="st4" points="558.52,9.6 558.52,18.09 553.58,18.09 549.97,15.4 549.97,9.6 "/>
<polyline className="st4" points="553.58,18.09 549.97,15.4 549.97,18.09 "/>
<rect x="549.97" y="21.4" className="st4" width="5.34" height="6.8"/>
<rect x="555.31" y="21.4" className="st4" width="6.8" height="6.8"/>
<rect x="562.11" y="21.4" className="st4" width="5.91" height="6.8"/>
<rect x="558.52" y="9.74" className="st4" width="5.53" height="8.36"/>
<rect x="489.86" y="9.42" className="st4" width="9.18" height="8.88"/>
<rect x="568.02" y="21.36" className="st4" width="4.72" height="4.17"/>
<rect x="568.03" y="9.42" className="st4" width="4.71" height="4.71"/>
<rect x="572.74" y="9.42" className="st4" width="5.26" height="4.71"/>
<rect x="489.86" y="21.2" className="st3" width="9.84" height="6.64"/>
<rect x="568.03" y="14.37" className="st3" width="9.97" height="5.72"/>
<path className="st3" d="M542.35,8.98h-16.43V8.53c0-4.54,3.68-8.21,8.21-8.21l0,0c4.54,0,8.21,3.68,8.21,8.21V8.98z"/>
<line className="st4" x1="506.64" y1="9.42" x2="506.64" y2="14.94"/>
<rect x="506.64" y="21.2" className="st4" width="5.81" height="7"/>
<rect x="512.45" y="21.2" className="st4" width="4.48" height="7"/>
<rect x="516.93" y="21.2" className="st4" width="3.74" height="2.26"/>
<rect x="520.67" y="21.2" className="st4" width="4.37" height="2.26"/>
<rect x="516.93" y="23.39" className="st4" width="3.75" height="4.81"/>
<polygon className="st4" points="525.05,18.81 525.05,21.2 516.93,21.2 506.77,21.12 502.12,18.3 506.71,14.94 511.81,18.3 515.6,18.3 
	519.67,15.18 "/>
<line className="st4" x1="525.04" y1="9.42" x2="525.04" y2="18.81"/>
<line className="st4" x1="519.75" y1="9.54" x2="519.67" y2="15.18"/>
<line className="st4" x1="553.92" y1="18.34" x2="553.58" y2="18.09"/>
<rect x="548.72" y="17.74" className="st4" width="2.5" height="1.2"/>
<path className="st4" d="M528.79,27.96l0.08-4.79c0,0,3.33,4.98,9.4,0.28c0,0.06,0,4.75,0,4.75"/>
<rect x="309.19" y="191.29" transform="matrix(-1.836970e-16 1 -1 -1.836970e-16 511.7979 -120.3251)" className="st7" width="13.74" height="8.89"/>
<text transform="matrix(1 0 0 1 563.8549 249.9821)" className="st8 st9">1</text>
<text transform="matrix(1 0 0 1 519.9746 281.3896)" className="st8 st9">1</text>
<text transform="matrix(1 0 0 1 519.9745 246.0826)" className="st8 st9">1</text>
<text transform="matrix(1 0 0 1 491.5199 248.7493)" className="st8 st9">1</text>
<text transform="matrix(1 0 0 1 492.1443 209.6381)" className="st8 st9">1</text>
<text transform="matrix(1 0 0 1 435.6718 285.7863)" className="st8 st9">1</text>
<text transform="matrix(1 0 0 1 401.2614 361.3795)" className="st8 st9">1</text>
<text transform="matrix(1 0 0 1 438.2214 362.861)" className="st8 st9">1</text>
<text transform="matrix(1 0 0 1 472.768 392.7869)" className="st8 st9">1</text>
<text transform="matrix(1 0 0 1 496.1754 399.927)" className="st8 st9">1</text>
<text transform="matrix(1 0 0 1 521.9 406.6423)" className="st8 st9">1</text>
<text transform="matrix(1 0 0 1 544.3325 410.6411)" className="st8 st9">1</text>
<text transform="matrix(1 0 0 1 570.2433 417.4186)" className="st8 st9">1</text>
<text transform="matrix(1 0 0 1 597.7988 423.4814)" className="st8 st9">1</text>
<text transform="matrix(1 0 0 1 623.4249 430.8377)" className="st8 st9">1</text>
<text transform="matrix(1 0 0 1 648.236 438.3705)" className="st8 st9">1</text>
<text transform="matrix(1 0 0 1 435.6721 267.4967)" className="st8 st9">1</text>
<text transform="matrix(1 0 0 1 435.6715 251.0001)" className="st8 st9">1</text>
<text transform="matrix(1 0 0 1 435.6717 233.8118)" className="st8 st9">1</text>
<text transform="matrix(1 0 0 1 435.6719 215.8463)" className="st8 st9">1</text>
<text transform="matrix(1 0 0 1 435.6718 198.6611)" className="st8 st9">1</text>
<text transform="matrix(1 0 0 1 375.9051 196.2962)" className="st8 st9">1</text>
<text transform="matrix(1 0 0 1 375.9055 205.49)" className="st8 st9">1</text>
<text transform="matrix(1 0 0 1 375.9055 214.2307)" className="st8 st9">1</text>
<text transform="matrix(1 0 0 1 375.9051 223.2224)" className="st8 st9">1</text>
<text transform="matrix(1 0 0 1 380.3374 237.1429)" className="st8 st9">1</text>
<text transform="matrix(1 0 0 1 380.3374 253.5873)" className="st8 st9">1</text>
<text transform="matrix(1 0 0 1 380.3372 270.6694)" className="st8 st9">1</text>
<text transform="matrix(1 0 0 1 380.3375 288.0024)" className="st8 st9">1</text>
<text transform="matrix(1 0 0 1 345.6814 249.3519)" className="st8 st9">1</text>
<text transform="matrix(1 0 0 1 331.1859 291.0226)" className="st8 st9">1</text>
<text transform="matrix(1 0 0 1 345.6811 205.1555)" className="st8 st9">1</text>
<text transform="matrix(1 0 0 1 357.125 202.24)" className="st8 st9">1</text>
<text transform="matrix(1 0 0 1 346.3054 195.7366)" className="st8 st9">1</text>
<text transform="matrix(1 0 0 1 334.3104 194.7614)" className="st8 st9">1</text>
<text transform="matrix(1 0 0 1 331.8097 205.4902)" className="st8 st9">1</text>
<text transform="matrix(1 0 0 1 315.0628 198.6611)" className="st8 st9">1</text>
<text transform="matrix(1 0 0 1 305.581 198.6611)" className="st8 st9">1</text>
<text transform="matrix(1 0 0 1 295.8032 198.6611)" className="st8 st9">1</text>
<text transform="matrix(1 0 0 1 301.4329 237.5171)" className="st8 st9">1</text>
<text transform="matrix(1 0 0 1 301.4328 253.0002)" className="st8 st9">1</text>
<text transform="matrix(1 0 0 1 301.4326 269.0002)" className="st8 st9">1</text>
<text transform="matrix(1 0 0 1 301.4328 285.7863)" className="st8 st9">1</text>
<text transform="matrix(1 0 0 1 269.9062 280.6011)" className="st8 st9">1</text>
<text transform="matrix(1 0 0 1 217.1373 284.7732)" className="st8 st9">1</text>
<text transform="matrix(1 0 0 1 270.8659 247.1002)" className="st8 st9">1</text>
<text transform="matrix(1 0 0 1 270.8661 239.8423)" className="st8 st9">1</text>
<text transform="matrix(1 0 0 1 274.8375 231.1015)" className="st8 st9">1</text>
<text transform="matrix(1 0 0 1 274.8372 223.0006)" className="st8 st9">1</text>
<text transform="matrix(1 0 0 1 278.6063 194.7615)" className="st8 st9">1</text>
<text transform="matrix(1 0 0 1 262.9026 194.7617)" className="st8 st9">1</text>
<text transform="matrix(1 0 0 1 472.1443 270.0826)" className="st8 st9">1</text>
<text transform="matrix(1 0 0 1 490.6628 270.0826)" className="st8 st9">1</text>
<text transform="matrix(1 0 0 1 499.6904 287.4159)" className="st8 st9">1</text>
<text transform="matrix(1 0 0 1 483.5422 287.4159)" className="st8 st9">1</text>
<text transform="matrix(1 0 0 1 519.9745 205.49)" className="st8 st9">1</text>
<line className="st4" x1="304.41" y1="115.49" x2="304.41" y2="122.06"/>
</svg>
